Blockbone-Regular.ufo
<glyph name="exclam" format="2">
  <advance width="232"/>
  <unicode hex="0021"/>
  <outline>
    <contour>
      <point x="120.148" y="780" type="qcurve"/>
      <point x="95.7062" y="781.577"/>
      <point x="76.67" y="767.98" type="qcurve" smooth="yes"/>
      <point x="57.6338" y="754.382"/>
      <point x="51.1485" y="727" type="qcurve" smooth="yes"/>
      <point x="46.3929" y="707.978"/>
      <point x="59.0772" y="620.832" type="qcurve" smooth="yes"/>
      <point x="71.7615" y="533.686"/>
      <point x="78.1485" y="520" type="qcurve" smooth="yes"/>
      <point x="89.1485" y="498"/>
      <point x="92.1485" y="207" type="qcurve"/>
      <point x="139.148" y="207" type="line"/>
      <point x="144.148" y="367" type="line"/>
      <point x="144.148" y="394.964"/>
      <point x="148.8" y="450.342" type="qcurve" smooth="yes"/>
      <point x="153.452" y="505.719"/>
      <point x="156.148" y="521" type="qcurve" smooth="yes"/>
      <point x="160.116" y="539.251"/>
      <point x="170.773" y="612.231" type="qcurve" smooth="yes"/>
      <point x="181.431" y="685.21"/>
      <point x="182.148" y="701" type="qcurve" smooth="yes"/>
      <point x="182.69" y="708.037"/>
      <point x="180.798" y="718.916" type="qcurve" smooth="yes"/>
      <point x="178.906" y="729.796"/>
      <point x="173.515" y="744.255" type="qcurve" smooth="yes"/>
      <point x="168.123" y="758.715"/>
      <point x="154.204" y="769.01" type="qcurve" smooth="yes"/>
      <point x="140.285" y="779.306"/>
    </contour>
    <contour>
      <point x="116.148" y="121" type="qcurve"/>
      <point x="149.608" y="120.331"/>
      <point x="164.889" y="100.408" type="qcurve" smooth="yes"/>
      <point x="180.17" y="80.4847"/>
      <point x="181.148" y="57" type="qcurve" smooth="yes"/>
      <point x="181.916" y="30.1419"/>
      <point x="164.625" y="10.4383" type="qcurve" smooth="yes"/>
      <point x="147.334" y="-9.26525"/>
      <point x="120.148" y="-10" type="qcurve" smooth="yes"/>
      <point x="95.3563" y="-10.7513"/>
      <point x="74.5011" y="5.76769" type="qcurve" smooth="yes"/>
      <point x="53.646" y="22.2867"/>
      <point x="52.1485" y="44" type="qcurve" smooth="yes"/>
      <point x="50.4543" y="74.495"/>
      <point x="66.6128" y="97.7475" type="qcurve" smooth="yes"/>
      <point x="82.7714" y="121"/>
    </contour>
  </outline>
</glyph>
<glyph name="quotedbl" format="2">
  <advance width="365"/>
  <unicode hex="0022"/>
  <outline>
    <contour>
      <point x="108.747" y="830" type="qcurve"/>
      <point x="77.7132" y="830.69"/>
      <point x="67.1299" y="808.946" type="qcurve" smooth="yes"/>
      <point x="56.5466" y="787.202"/>
      <point x="61.747" y="756" type="qcurve" smooth="yes"/>
      <point x="62.7046" y="750.254"/>
      <point x="66.9296" y="723.628" type="qcurve" smooth="yes"/>
      <point x="71.1546" y="697.002"/>
      <point x="78.231" y="653.039" type="qcurve" smooth="yes"/>
      <point x="85.3075" y="609.075"/>
      <point x="92.747" y="564" type="qcurve"/>
      <point x="121.747" y="564" type="line"/>
      <point x="124.871" y="582.3"/>
      <point x="135.89" y="654.674" type="qcurve" smooth="yes"/>
      <point x="146.909" y="727.048"/>
      <point x="151.747" y="755" type="qcurve" smooth="yes"/>
      <point x="164.237" y="823.694"/>
    </contour>
    <contour>
      <point x="260.747" y="830" type="qcurve"/>
      <point x="229.713" y="830.69"/>
      <point x="219.13" y="808.946" type="qcurve" smooth="yes"/>
      <point x="208.547" y="787.202"/>
      <point x="213.747" y="756" type="qcurve" smooth="yes"/>
      <point x="214.705" y="750.254"/>
      <point x="218.93" y="723.628" type="qcurve" smooth="yes"/>
      <point x="223.155" y="697.002"/>
      <point x="230.231" y="653.039" type="qcurve" smooth="yes"/>
      <point x="237.307" y="609.075"/>
      <point x="244.747" y="564" type="qcurve"/>
      <point x="273.747" y="564" type="line"/>
      <point x="276.871" y="582.3"/>
      <point x="287.89" y="654.674" type="qcurve" smooth="yes"/>
      <point x="298.909" y="727.048"/>
      <point x="303.747" y="755" type="qcurve" smooth="yes"/>
      <point x="316.237" y="823.694"/>
    </contour>
  </outline>
</glyph>
<glyph name="numbersign" format="2">
  <advance width="667"/>
  <unicode hex="0023"/>
  <outline>
    <contour>
      <point x="317" y="770" type="line"/>
      <point x="257" y="770" type="line"/>
      <point x="222" y="525" type="line"/>
      <point x="78" y="525" type="line"/>
      <point x="70" y="475" type="line"/>
      <point x="213" y="475" type="line"/>
      <point x="189" y="305" type="line"/>
      <point x="47" y="305" type="line"/>
      <point x="39" y="255" type="line"/>
      <point x="179" y="255" type="line"/>
      <point x="141" y="0" type="line"/>
      <point x="201" y="0" type="line"/>
      <point x="239" y="255" type="line"/>
      <point x="390" y="255" type="line"/>
      <point x="355" y="0" type="line"/>
      <point x="414" y="0" type="line"/>
      <point x="451" y="255" type="line"/>
      <point x="590" y="255" type="line"/>
      <point x="598" y="305" type="line"/>
      <point x="461" y="305" type="line"/>
      <point x="484" y="475" type="line"/>
      <point x="619" y="475" type="line"/>
      <point x="627" y="525" type="line"/>
      <point x="493" y="525" type="line"/>
      <point x="527" y="770" type="line"/>
      <point x="467" y="770" type="line"/>
      <point x="433" y="525" type="line"/>
      <point x="282" y="525" type="line"/>
    </contour>
    <contour>
      <point x="274" y="475" type="line"/>
      <point x="423" y="475" type="line"/>
      <point x="400" y="305" type="line"/>
      <point x="248" y="307" type="line"/>
    </contour>
  </outline>
</glyph>
<glyph name="dollar" format="2">
  <advance width="600"/>
  <unicode hex="0024"/>
  <outline>
    <contour>
      <point x="552" y="639" type="line"/>
      <point x="529" y="689" type="line"/>
      <point x="503" y="716" type="line"/>
      <point x="477" y="736" type="line"/>
      <point x="414" y="763" type="line"/>
      <point x="344" y="777" type="line"/>
      <point x="345" y="900" type="line"/>
      <point x="288" y="899" type="line"/>
      <point x="287" y="779" type="line"/>
      <point x="235" y="771" type="line"/>
      <point x="196" y="755" type="line"/>
      <point x="161" y="735" type="line"/>
      <point x="117" y="693" type="line"/>
      <point x="87" y="624" type="line"/>
      <point x="84" y="521" type="line"/>
      <point x="123" y="438" type="line"/>
      <point x="196" y="381" type="line"/>
      <point x="288" y="337" type="line"/>
      <point x="287" y="41" type="line"/>
      <point x="342" y="43" type="line"/>
      <point x="347" y="314" type="line"/>
      <point x="424" y="272" type="line"/>
      <point x="469" y="220" type="line"/>
      <point x="473" y="146" type="line"/>
      <point x="447" y="88" type="line"/>
      <point x="374" y="46" type="line"/>
      <point x="259" y="42" type="line"/>
      <point x="201" y="61" type="line"/>
      <point x="163" y="100" type="line"/>
      <point x="136" y="196" type="line"/>
      <point x="102" y="228" type="line"/>
      <point x="71" y="228" type="line"/>
      <point x="45" y="210" type="line"/>
      <point x="38" y="189" type="line"/>
      <point x="37" y="147" type="line"/>
      <point x="65" y="85" type="line"/>
      <point x="101" y="51" type="line"/>
      <point x="166" y="15" type="line"/>
      <point x="238" y="-7" type="line"/>
      <point x="288" y="-9" type="line"/>
      <point x="288" y="-170" type="line"/>
      <point x="343" y="-170" type="line"/>
      <point x="343" y="-9" type="line"/>
      <point x="408" y="3" type="line"/>
      <point x="466" y="25" type="line"/>
      <point x="506" y="53" type="line"/>
      <point x="534" y="84" type="line"/>
      <point x="552" y="113" type="line"/>
      <point x="568" y="151" type="line"/>
      <point x="572" y="181" type="line"/>
      <point x="575" y="211" type="line"/>
      <point x="577" y="245" type="line"/>
      <point x="573" y="272" type="line"/>
      <point x="560" y="300" type="line"/>
      <point x="540" y="331" type="line"/>
      <point x="511" y="359" type="line"/>
      <point x="480" y="383" type="line"/>
      <point x="455" y="402" type="line"/>
      <point x="423" y="412" type="line"/>
      <point x="391" y="435" type="line"/>
      <point x="343" y="454" type="line"/>
      <point x="344" y="731" type="line"/>
      <point x="288" y="730" type="line"/>
      <point x="289" y="483" type="line"/>
      <point x="215" y="523" type="line"/>
      <point x="180" y="589" type="line"/>
      <point x="190" y="679" type="line"/>
      <point x="257" y="725" type="line"/>
      <point x="316" y="731" type="line"/>
      <point x="378" y="726" type="line"/>
      <point x="414" y="700" type="line"/>
      <point x="436" y="646" type="line"/>
      <point x="449" y="605" type="line"/>
      <point x="474" y="572" type="line"/>
      <point x="515" y="571" type="line"/>
      <point x="539" y="588" type="line"/>
      <point x="552" y="601" type="line"/>
    </contour>
  </outline>
</glyph>
<glyph name="percent" format="2">
  <advance width="800"/>
  <unicode hex="0025"/>
  <outline>
    <contour>
      <point x="591" y="770" type="curve"/>
      <point x="580" y="747"/>
      <point x="291" y="354"/>
      <point x="34" y="2" type="curve" smooth="yes"/>
      <point x="26" y="-10"/>
      <point x="84" y="-2"/>
      <point x="84" y="-2" type="curve" smooth="yes"/>
      <point x="161" y="101"/>
      <point x="433" y="479"/>
      <point x="640" y="770" type="curve"/>
      <point x="622" y="770"/>
      <point x="619" y="770"/>
    </contour>
    <contour>
      <point x="199" y="768" type="curve"/>
      <point x="233" y="770"/>
      <point x="262" y="748"/>
      <point x="267" y="681" type="curve"/>
      <point x="269" y="649" type="line"/>
      <point x="271" y="635"/>
      <point x="273" y="617"/>
      <point x="267" y="575" type="curve"/>
      <point x="259" y="509"/>
      <point x="240" y="494"/>
      <point x="205" y="491" type="curve"/>
      <point x="168" y="494"/>
      <point x="166" y="497"/>
      <point x="150" y="527" type="curve"/>
      <point x="144" y="543"/>
      <point x="137" y="571"/>
      <point x="137" y="602" type="curve"/>
      <point x="136" y="649"/>
      <point x="136" y="673"/>
      <point x="144" y="712" type="curve"/>
      <point x="160" y="765"/>
      <point x="184" y="767"/>
    </contour>
    <contour>
      <point x="248" y="775" type="curve" smooth="yes"/>
      <point x="227" y="786"/>
      <point x="228" y="787"/>
      <point x="200" y="787" type="curve" smooth="yes"/>
      <point x="189" y="787"/>
      <point x="181" y="790"/>
      <point x="158" y="775" type="curve" smooth="yes"/>
      <point x="122" y="752"/>
      <point x="121" y="743"/>
      <point x="104" y="715" type="curve" smooth="yes"/>
      <point x="93" y="697"/>
      <point x="84" y="650"/>
      <point x="85" y="618" type="curve" smooth="yes"/>
      <point x="86" y="598"/>
      <point x="87" y="580"/>
      <point x="99" y="553" type="curve" smooth="yes"/>
      <point x="105" y="539"/>
      <point x="113" y="524"/>
      <point x="135" y="500" type="curve" smooth="yes"/>
      <point x="151" y="484"/>
      <point x="182" y="471"/>
      <point x="200" y="471" type="curve" smooth="yes"/>
      <point x="223" y="471"/>
      <point x="233" y="473"/>
      <point x="250" y="484" type="curve" smooth="yes"/>
      <point x="262" y="492"/>
      <point x="271" y="496"/>
      <point x="289" y="519" type="curve" smooth="yes"/>
      <point x="306" y="541"/>
      <point x="311" y="555"/>
      <point x="319" y="592" type="curve" smooth="yes"/>
      <point x="324" y="613"/>
      <point x="327" y="625"/>
      <point x="316" y="675" type="curve" smooth="yes"/>
      <point x="309" y="705"/>
      <point x="308" y="705"/>
      <point x="296" y="726" type="curve" smooth="yes"/>
      <point x="282" y="749"/>
      <point x="275" y="761"/>
    </contour>
    <contour>
      <point x="468" y="290" type="curve"/>
      <point x="502" y="292"/>
      <point x="531" y="270"/>
      <point x="536" y="203" type="curve"/>
      <point x="538" y="171" type="line"/>
      <point x="540" y="157"/>
      <point x="542" y="139"/>
      <point x="536" y="97" type="curve"/>
      <point x="528" y="31"/>
      <point x="509" y="16"/>
      <point x="474" y="13" type="curve"/>
      <point x="437" y="16"/>
      <point x="435" y="19"/>
      <point x="419" y="49" type="curve"/>
      <point x="413" y="65"/>
      <point x="406" y="93"/>
      <point x="406" y="124" type="curve"/>
      <point x="405" y="171"/>
      <point x="405" y="195"/>
      <point x="413" y="234" type="curve"/>
      <point x="429" y="287"/>
      <point x="453" y="289"/>
    </contour>
    <contour>
      <point x="517" y="297" type="curve" smooth="yes"/>
      <point x="496" y="308"/>
      <point x="497" y="309"/>
      <point x="469" y="309" type="curve" smooth="yes"/>
      <point x="458" y="309"/>
      <point x="450" y="312"/>
      <point x="427" y="297" type="curve" smooth="yes"/>
      <point x="391" y="274"/>
      <point x="390" y="265"/>
      <point x="373" y="237" type="curve" smooth="yes"/>
      <point x="362" y="219"/>
      <point x="353" y="172"/>
      <point x="354" y="140" type="curve" smooth="yes"/>
      <point x="355" y="120"/>
      <point x="356" y="102"/>
      <point x="368" y="75" type="curve" smooth="yes"/>
      <point x="374" y="61"/>
      <point x="382" y="46"/>
      <point x="404" y="22" type="curve" smooth="yes"/>
      <point x="420" y="6"/>
      <point x="451" y="-7"/>
      <point x="469" y="-7" type="curve" smooth="yes"/>
      <point x="492" y="-7"/>
      <point x="502" y="-5"/>
      <point x="519" y="6" type="curve" smooth="yes"/>
      <point x="531" y="14"/>
      <point x="540" y="18"/>
      <point x="558" y="41" type="curve" smooth="yes"/>
      <point x="575" y="63"/>
      <point x="580" y="77"/>
      <point x="588" y="114" type="curve" smooth="yes"/>
      <point x="593" y="135"/>
      <point x="596" y="147"/>
      <point x="585" y="197" type="curve" smooth="yes"/>
      <point x="578" y="227"/>
      <point x="577" y="227"/>
      <point x="565" y="248" type="curve" smooth="yes"/>
      <point x="551" y="271"/>
      <point x="544" y="283"/>
    </contour>
  </outline>
</glyph>
<glyph name="ampersand" format="2">
  <advance width="900"/>
  <unicode hex="0026"/>
  <outline>
    <contour>
      <point x="814" y="467" type="line"/>
      <point x="587" y="467" type="line"/>
      <point x="586" y="432" type="line"/>
      <point x="598.5" y="431.5" type="line" smooth="yes"/>
      <point x="611" y="431"/>
      <point x="619" y="429.5" type="qcurve" smooth="yes"/>
      <point x="627" y="428"/>
      <point x="637" y="422" type="qcurve" smooth="yes"/>
      <point x="647" y="416"/>
      <point x="649.5" y="407" type="qcurve" smooth="yes"/>
      <point x="652" y="398"/>
      <point x="647" y="379.5" type="qcurve" smooth="yes"/>
      <point x="642" y="361"/>
      <point x="625" y="337" type="qcurve" smooth="yes"/>
      <point x="624" y="335"/>
      <point x="615" y="319" type="qcurve" smooth="yes"/>
      <point x="606" y="303"/>
      <point x="595" y="284.5" type="qcurve" smooth="yes"/>
      <point x="584" y="266"/>
      <point x="572" y="247.5" type="qcurve" smooth="yes"/>
      <point x="560" y="229"/>
      <point x="550" y="220" type="qcurve" smooth="yes"/>
      <point x="540" y="211"/>
      <point x="535" y="217" type="qcurve" smooth="yes"/>
      <point x="485" y="274.5" type="line" smooth="yes"/>
      <point x="435" y="332"/>
      <point x="405" y="371" type="qcurve" smooth="yes"/>
      <point x="375" y="410"/>
      <point x="379" y="418" type="qcurve" smooth="yes"/>
      <point x="380" y="419"/>
      <point x="416.5" y="451" type="qcurve" smooth="yes"/>
      <point x="453" y="483"/>
      <point x="489" y="522.5" type="qcurve" smooth="yes"/>
      <point x="525" y="562"/>
      <point x="527" y="585" type="qcurve" smooth="yes"/>
      <point x="532" y="632"/>
      <point x="522" y="668" type="qcurve" smooth="yes"/>
      <point x="512" y="704"/>
      <point x="497" y="723.5" type="qcurve" smooth="yes"/>
      <point x="482" y="743"/>
      <point x="460.5" y="756.5" type="qcurve" smooth="yes"/>
      <point x="439" y="770"/>
      <point x="426.5" y="773.5" type="qcurve" smooth="yes"/>
      <point x="414" y="777"/>
      <point x="402" y="779" type="qcurve" smooth="yes"/>
      <point x="393" y="778"/>
      <point x="377" y="780" type="qcurve" smooth="yes"/>
      <point x="361" y="782"/>
      <point x="337" y="774" type="qcurve" smooth="yes"/>
      <point x="313" y="766"/>
      <point x="289.5" y="753" type="qcurve" smooth="yes"/>
      <point x="266" y="740"/>
      <point x="242.5" y="709.5" type="qcurve" smooth="yes"/>
      <point x="219" y="679"/>
      <point x="204" y="636" type="qcurve" smooth="yes"/>
      <point x="202" y="620"/>
      <point x="199.5" y="593.5" type="qcurve" smooth="yes"/>
      <point x="197" y="567"/>
      <point x="212.5" y="514.5" type="qcurve" smooth="yes"/>
      <point x="228" y="462"/>
      <point x="261" y="412" type="qcurve"/>
      <point x="242" y="403"/>
      <point x="220" y="390" type="qcurve" smooth="yes"/>
      <point x="198" y="377"/>
      <point x="156" y="349" type="qcurve" smooth="yes"/>
      <point x="114" y="321"/>
      <point x="81" y="281.5" type="qcurve" smooth="yes"/>
      <point x="48" y="242"/>
      <point x="35" y="201" type="qcurve" smooth="yes"/>
      <point x="23" y="162"/>
      <point x="37" y="123.5" type="qcurve" smooth="yes"/>
      <point x="51" y="85"/>
      <point x="78" y="59" type="qcurve" smooth="yes"/>
      <point x="105" y="33"/>
      <point x="132.5" y="16.5" type="qcurve" smooth="yes"/>
      <point x="160" y="-0"/>
      <point x="176" y="-2" type="qcurve" smooth="yes"/>
      <point x="207" y="-8"/>
      <point x="252.5" y="-4.5" type="qcurve" smooth="yes"/>
      <point x="298" y="-1"/>
      <point x="341" y="7" type="qcurve" smooth="yes"/>
      <point x="384" y="15"/>
      <point x="426" y="38.5" type="qcurve" smooth="yes"/>
      <point x="468" y="62"/>
      <point x="492" y="97" type="qcurve" smooth="yes"/>
      <point x="493" y="99"/>
      <point x="508" y="84.5" type="qcurve" smooth="yes"/>
      <point x="523" y="70"/>
      <point x="562" y="42.5" type="qcurve" smooth="yes"/>
      <point x="601" y="15"/>
      <point x="649" y="-6" type="qcurve" smooth="yes"/>
      <point x="663" y="-15"/>
      <point x="692" y="-12" type="qcurve" smooth="yes"/>
      <point x="721" y="-9"/>
      <point x="750.5" y="-1" type="qcurve" smooth="yes"/>
      <point x="780" y="7"/>
      <point x="806" y="34" type="qcurve" smooth="yes"/>
      <point x="832" y="61"/>
      <point x="840" y="101" type="qcurve"/>
      <point x="821" y="117" type="line"/>
      <point x="809" y="87"/>
      <point x="794" y="72.5" type="qcurve" smooth="yes"/>
      <point x="779" y="58"/>
      <point x="764" y="58.5" type="qcurve" smooth="yes"/>
      <point x="749" y="59"/>
      <point x="731" y="60" type="qcurve" smooth="yes"/>
      <point x="705" y="63"/>
      <point x="678" y="75" type="qcurve" smooth="yes"/>
      <point x="651" y="87"/>
      <point x="631" y="102.5" type="qcurve" smooth="yes"/>
      <point x="611" y="118"/>
      <point x="595" y="133" type="qcurve" smooth="yes"/>
      <point x="579" y="148"/>
      <point x="571" y="159.5" type="qcurve" smooth="yes"/>
      <point x="563" y="171"/>
      <point x="566" y="173" type="qcurve" smooth="yes"/>
      <point x="576" y="181"/>
      <point x="633" y="264.5" type="qcurve" smooth="yes"/>
      <point x="690" y="348"/>
      <point x="703" y="370" type="qcurve" smooth="yes"/>
      <point x="711" y="384"/>
      <point x="722" y="397.5" type="qcurve" smooth="yes"/>
      <point x="733" y="411"/>
      <point x="760" y="424.5" type="qcurve" smooth="yes"/>
      <point x="787" y="438"/>
      <point x="817" y="430" type="qcurve"/>
    </contour>
    <contour>
      <point x="363" y="718" type="qcurve"/>
      <point x="398.835" y="711.109"/>
      <point x="411.96" y="698.09" type="qcurve" smooth="yes"/>
      <point x="436.383" y="673.864"/>
      <point x="437" y="614" type="qcurve" smooth="yes"/>
      <point x="437" y="576"/>
      <point x="416.5" y="537.5" type="qcurve" smooth="yes"/>
      <point x="396" y="499"/>
      <point x="374" y="479" type="qcurve" smooth="yes"/>
      <point x="352" y="459"/>
      <point x="345" y="460" type="qcurve" smooth="yes"/>
      <point x="332" y="462"/>
      <point x="298" y="567" type="qcurve" smooth="yes"/>
      <point x="295" y="576"/>
      <point x="295.5" y="599.5" type="qcurve" smooth="yes"/>
      <point x="296" y="623"/>
      <point x="299.5" y="652" type="qcurve" smooth="yes"/>
      <point x="303" y="681"/>
      <point x="319.5" y="701" type="qcurve" smooth="yes"/>
      <point x="336" y="721"/>
    </contour>
    <contour>
      <point x="288" y="364" type="qcurve"/>
      <point x="462" y="135" type="line"/>
      <point x="450" y="112"/>
      <point x="388.5" y="80" type="qcurve" smooth="yes"/>
      <point x="327" y="48"/>
      <point x="280" y="52" type="qcurve" smooth="yes"/>
      <point x="228" y="57"/>
      <point x="193" y="86.5" type="qcurve" smooth="yes"/>
      <point x="158" y="116"/>
      <point x="156" y="147" type="qcurve" smooth="yes"/>
      <point x="151" y="221"/>
      <point x="175" y="262" type="qcurve" smooth="yes"/>
      <point x="202" y="308"/>
    </contour>
  </outline>
</glyph>
<glyph name="quotesingle" format="2">
  <advance width="198"/>
  <unicode hex="0027"/>
  <outline>
    <contour>
      <point x="109" y="830" type="curve"/>
      <point x="64" y="831"/>
      <point x="56" y="792"/>
      <point x="62" y="756" type="curve" smooth="yes"/>
      <point x="65" y="738"/>
      <point x="76" y="667"/>
      <point x="93" y="564" type="curve"/>
      <point x="122" y="564" type="line"/>
      <point x="129" y="605"/>
      <point x="143" y="703"/>
      <point x="152" y="755" type="curve" smooth="yes"/>
      <point x="158" y="788"/>
      <point x="152" y="829"/>
    </contour>
  </outline>
</glyph>
<glyph name="parenleft" format="2">
  <advance width="300"/>
  <unicode hex="0028"/>
  <outline>
    <contour>
      <point x="312" y="803" type="qcurve"/>
      <point x="280" y="828" type="line"/>
      <point x="246" y="803"/>
      <point x="194" y="731.5" type="qcurve" smooth="yes"/>
      <point x="142" y="660"/>
      <point x="111" y="599" type="qcurve" smooth="yes"/>
      <point x="42" y="463"/>
      <point x="50" y="302" type="qcurve" smooth="yes"/>
      <point x="56" y="166"/>
      <point x="120.5" y="32" type="qcurve" smooth="yes"/>
      <point x="185" y="-102"/>
      <point x="291" y="-195" type="qcurve"/>
      <point x="298" y="-188" type="line" smooth="yes"/>
      <point x="305" y="-181"/>
      <point x="311.5" y="-173.5" type="qcurve" smooth="yes"/>
      <point x="318" y="-166"/>
      <point x="318" y="-165" type="qcurve" smooth="yes"/>
      <point x="314" y="-159"/>
      <point x="283.5" y="-120.5" type="qcurve" smooth="yes"/>
      <point x="253" y="-82"/>
      <point x="241.5" y="-62" type="qcurve" smooth="yes"/>
      <point x="230" y="-42"/>
      <point x="208" y="2.5" type="qcurve" smooth="yes"/>
      <point x="186" y="47"/>
      <point x="173.5" y="102.5" type="qcurve" smooth="yes"/>
      <point x="161" y="158"/>
      <point x="153" y="230" type="qcurve" smooth="yes"/>
      <point x="144" y="300"/>
      <point x="147" y="364.5" type="qcurve" smooth="yes"/>
      <point x="150" y="429"/>
      <point x="155" y="466" type="qcurve" smooth="yes"/>
      <point x="160" y="503"/>
      <point x="166" y="523" type="qcurve" smooth="yes"/>
      <point x="187" y="592"/>
      <point x="211" y="643.5" type="qcurve" smooth="yes"/>
      <point x="235" y="695"/>
      <point x="254.5" y="724" type="qcurve" smooth="yes"/>
      <point x="274" y="753"/>
    </contour>
  </outline>
</glyph>
<glyph name="parenright" format="2">
  <advance width="300"/>
  <unicode hex="0029"/>
  <outline>
    <contour>
      <point x="18" y="803" type="line"/>
      <point x="56" y="753"/>
      <point x="76" y="724" type="qcurve" smooth="yes"/>
      <point x="95" y="695"/>
      <point x="119" y="644" type="qcurve" smooth="yes"/>
      <point x="143" y="592"/>
      <point x="164" y="523" type="qcurve" smooth="yes"/>
      <point x="170" y="503"/>
      <point x="175" y="466" type="qcurve" smooth="yes"/>
      <point x="180" y="429"/>
      <point x="183" y="365" type="qcurve" smooth="yes"/>
      <point x="186" y="300"/>
      <point x="177" y="230" type="qcurve" smooth="yes"/>
      <point x="169" y="158"/>
      <point x="157" y="103" type="qcurve" smooth="yes"/>
      <point x="144" y="47"/>
      <point x="122" y="3" type="qcurve" smooth="yes"/>
      <point x="100" y="-42"/>
      <point x="89" y="-62" type="qcurve" smooth="yes"/>
      <point x="77" y="-82"/>
      <point x="47" y="-120" type="qcurve" smooth="yes"/>
      <point x="16" y="-159"/>
      <point x="12" y="-165" type="qcurve" smooth="yes"/>
      <point x="12" y="-166"/>
      <point x="19" y="-173" type="qcurve" smooth="yes"/>
      <point x="25" y="-181"/>
      <point x="32" y="-188" type="qcurve" smooth="yes"/>
      <point x="39" y="-195" type="line"/>
      <point x="145" y="-102"/>
      <point x="210" y="32" type="qcurve" smooth="yes"/>
      <point x="274" y="166"/>
      <point x="280" y="302" type="qcurve" smooth="yes"/>
      <point x="288" y="463"/>
      <point x="219" y="599" type="qcurve" smooth="yes"/>
      <point x="188" y="660"/>
      <point x="136" y="732" type="qcurve" smooth="yes"/>
      <point x="84" y="803"/>
      <point x="50" y="828" type="qcurve"/>
    </contour>
  </outline>
</glyph>
<glyph name="asterisk" format="2">
  <advance width="500"/>
  <unicode hex="002A"/>
  <outline>
    <contour>
      <point x="256" y="779" type="qcurve"/>
      <point x="239" y="772"/>
      <point x="225.5" y="760.5" type="qcurve" smooth="yes"/>
      <point x="212" y="749"/>
      <point x="212" y="736" type="qcurve" smooth="yes"/>
      <point x="212" y="733"/>
      <point x="222" y="710.5" type="qcurve" smooth="yes"/>
      <point x="232" y="688"/>
      <point x="239.5" y="655.5" type="qcurve" smooth="yes"/>
      <point x="247" y="623"/>
      <point x="241" y="594" type="qcurve"/>
      <point x="236" y="588"/>
      <point x="228.5" y="592.5" type="qcurve" smooth="yes"/>
      <point x="221" y="597"/>
      <point x="203" y="617.5" type="qcurve" smooth="yes"/>
      <point x="185" y="638"/>
      <point x="172" y="650" type="qcurve" smooth="yes"/>
      <point x="128.843" y="691.395"/>
      <point x="117.446" y="696.053" type="qcurve" smooth="yes"/>
      <point x="98.1937" y="703.922"/>
      <point x="75" y="678" type="qcurve" smooth="yes"/>
      <point x="58" y="656"/>
      <point x="64.5" y="634.5" type="qcurve" smooth="yes"/>
      <point x="71" y="613"/>
      <point x="86" y="611" type="qcurve" smooth="yes"/>
      <point x="182" y="599"/>
      <point x="224" y="567" type="qcurve"/>
      <point x="228.473" y="563.645"/>
      <point x="214.198" y="557.135" type="qcurve" smooth="yes"/>
      <point x="184.485" y="543.586"/>
      <point x="107" y="529" type="qcurve" smooth="yes"/>
      <point x="86" y="525"/>
      <point x="69" y="506" type="qcurve" smooth="yes"/>
      <point x="52" y="487"/>
      <point x="61" y="466" type="qcurve" smooth="yes"/>
      <point x="70" y="446"/>
      <point x="88" y="438.5" type="qcurve" smooth="yes"/>
      <point x="106" y="431"/>
      <point x="120" y="433.5" type="qcurve" smooth="yes"/>
      <point x="134" y="436"/>
      <point x="137" y="440" type="qcurve" smooth="yes"/>
      <point x="206" y="524"/>
      <point x="239" y="539" type="qcurve" smooth="yes"/>
      <point x="248.899" y="543.455"/>
      <point x="246.021" y="524.049" type="qcurve" smooth="yes"/>
      <point x="244.47" y="513.584"/>
      <point x="236.956" y="487.204" type="qcurve" smooth="yes"/>
      <point x="231.813" y="469.151"/>
      <point x="231" y="464" type="qcurve" smooth="yes"/>
      <point x="226" y="450.5" type="line" smooth="yes"/>
      <point x="221" y="437"/>
      <point x="218" y="423" type="qcurve" smooth="yes"/>
      <point x="215" y="409"/>
      <point x="213.5" y="393" type="qcurve" smooth="yes"/>
      <point x="212" y="377"/>
      <point x="219.5" y="365.5" type="qcurve" smooth="yes"/>
      <point x="227" y="354"/>
      <point x="243" y="351" type="qcurve" smooth="yes"/>
      <point x="275" y="345"/>
      <point x="288.5" y="361" type="qcurve" smooth="yes"/>
      <point x="302" y="377"/>
      <point x="300" y="391" type="qcurve" smooth="yes"/>
      <point x="298" y="403"/>
      <point x="293" y="424" type="qcurve" smooth="yes"/>
      <point x="288" y="445"/>
      <point x="282.5" y="463" type="qcurve" smooth="yes"/>
      <point x="277" y="481"/>
      <point x="272.5" y="500.5" type="qcurve" smooth="yes"/>
      <point x="268" y="520"/>
      <point x="268" y="528.5" type="qcurve" smooth="yes"/>
      <point x="268" y="537"/>
      <point x="272" y="538" type="qcurve" smooth="yes"/>
      <point x="299" y="532"/>
      <point x="323" y="509.5" type="qcurve" smooth="yes"/>
      <point x="347" y="487"/>
      <point x="363" y="465" type="qcurve" smooth="yes"/>
      <point x="379" y="443"/>
      <point x="384" y="440" type="qcurve" smooth="yes"/>
      <point x="396" y="433"/>
      <point x="420" y="439.5" type="qcurve" smooth="yes"/>
      <point x="444" y="446"/>
      <point x="450" y="460" type="qcurve" smooth="yes"/>
      <point x="463" y="492"/>
      <point x="442" y="511" type="qcurve" smooth="yes"/>
      <point x="435" y="517"/>
      <point x="395.5" y="528.5" type="qcurve" smooth="yes"/>
      <point x="356" y="540"/>
      <point x="322" y="550.5" type="qcurve" smooth="yes"/>
      <point x="288" y="561"/>
      <point x="292" y="565" type="qcurve" smooth="yes"/>
      <point x="305" y="580"/>
      <point x="336.5" y="590.5" type="qcurve" smooth="yes"/>
      <point x="368" y="601"/>
      <point x="392" y="603" type="qcurve" smooth="yes"/>
      <point x="422" y="606"/>
      <point x="440.5" y="619.5" type="qcurve" smooth="yes"/>
      <point x="459" y="633"/>
      <point x="450" y="658" type="qcurve" smooth="yes"/>
      <point x="440" y="686"/>
      <point x="427.5" y="692.5" type="qcurve" smooth="yes"/>
      <point x="415" y="699"/>
      <point x="394" y="695" type="qcurve" smooth="yes"/>
      <point x="389" y="694"/>
      <point x="360" y="665" type="qcurve" smooth="yes"/>
      <point x="331" y="636"/>
      <point x="304.5" y="612" type="qcurve" smooth="yes"/>
      <point x="278" y="588"/>
      <point x="275" y="595" type="qcurve" smooth="yes"/>
      <point x="264" y="626"/>
      <point x="305" y="743" type="qcurve" smooth="yes"/>
      <point x="308" y="751"/>
      <point x="291.5" y="768" type="qcurve" smooth="yes"/>
      <point x="275" y="785"/>
    </contour>
    <contour>
      <point x="270" y="329" type="line"/>
    </contour>
  </outline>
</glyph>
<glyph name="plus" format="2">
  <advance width="550"/>
  <unicode hex="002B"/>
  <outline>
    <contour>
      <point x="299" y="571" type="line"/>
      <point x="248" y="571" type="line"/>
      <point x="249" y="552"/>
      <point x="249" y="480" type="qcurve"/>
      <point x="249" y="469"/>
      <point x="249" y="443" type="qcurve" smooth="yes"/>
      <point x="249" y="417"/>
      <point x="248.5" y="390.5" type="qcurve" smooth="yes"/>
      <point x="248" y="364" type="line"/>
      <point x="231" y="363"/>
      <point x="156" y="363" type="qcurve" smooth="yes"/>
      <point x="43" y="363" type="line"/>
      <point x="41" y="312" type="line"/>
      <point x="250" y="313" type="line"/>
      <point x="249" y="104" type="line"/>
      <point x="301" y="104" type="line"/>
      <point x="301" y="106"/>
      <point x="301" y="131" type="qcurve" smooth="yes"/>
      <point x="301" y="156"/>
      <point x="301" y="179.5" type="qcurve" smooth="yes"/>
      <point x="301" y="203"/>
      <point x="301" y="214" type="qcurve" smooth="yes"/>
      <point x="301" y="313" type="line"/>
      <point x="414" y="313" type="line"/>
      <point x="509" y="313" type="line"/>
      <point x="509" y="363" type="line"/>
      <point x="302" y="363" type="line"/>
    </contour>
  </outline>
</glyph>
<glyph name="comma" format="2">
  <advance width="300"/>
  <unicode hex="002C"/>
  <outline>
    <contour>
      <point x="133" y="123" type="qcurve"/>
      <point x="109" y="123"/>
      <point x="87" y="104" type="qcurve" smooth="yes"/>
      <point x="65" y="85"/>
      <point x="66" y="59" type="qcurve" smooth="yes"/>
      <point x="67" y="34"/>
      <point x="80.5" y="18.5" type="qcurve" smooth="yes"/>
      <point x="94" y="3"/>
      <point x="109" y="-1" type="qcurve" smooth="yes"/>
      <point x="116" y="-3"/>
      <point x="126" y="0.5" type="qcurve" smooth="yes"/>
      <point x="136" y="4"/>
      <point x="140.5" y="6" type="qcurve" smooth="yes"/>
      <point x="145" y="8"/>
      <point x="147" y="5" type="qcurve" smooth="yes"/>
      <point x="150" y="-14"/>
      <point x="138" y="-41.5" type="qcurve" smooth="yes"/>
      <point x="126" y="-69"/>
      <point x="117" y="-81" type="qcurve" smooth="yes"/>
      <point x="94" y="-110"/>
      <point x="49" y="-142" type="qcurve"/>
      <point x="72" y="-175" type="line"/>
      <point x="87" y="-164"/>
      <point x="111" y="-143.5" type="qcurve" smooth="yes"/>
      <point x="135" y="-123"/>
      <point x="147" y="-114" type="qcurve" smooth="yes"/>
      <point x="172" y="-96"/>
      <point x="199" y="-25" type="qcurve" smooth="yes"/>
      <point x="204" y="-12"/>
      <point x="205.5" y="16.5" type="qcurve" smooth="yes"/>
      <point x="207" y="45"/>
      <point x="201" y="68" type="qcurve" smooth="yes"/>
      <point x="199" y="73" type="line" smooth="yes"/>
      <point x="197" y="78"/>
      <point x="195.5" y="81.5" type="qcurve" smooth="yes"/>
      <point x="194" y="85"/>
      <point x="190" y="91.5" type="qcurve" smooth="yes"/>
      <point x="186" y="98"/>
      <point x="181" y="103" type="qcurve" smooth="yes"/>
      <point x="176" y="108"/>
      <point x="169.5" y="112.5" type="qcurve" smooth="yes"/>
      <point x="163" y="117"/>
      <point x="153.5" y="120" type="qcurve" smooth="yes"/>
      <point x="144" y="123"/>
    </contour>
  </outline>
</glyph>
<glyph name="hyphen" format="2">
  <advance width="550"/>
  <unicode hex="002D"/>
  <outline>
    <contour>
      <point x="386" y="331" type="line"/>
      <point x="309" y="331" type="line"/>
      <point x="162" y="331" type="line"/>
      <point x="77" y="331" type="line"/>
      <point x="77" y="327"/>
      <point x="77" y="316.5" type="qcurve" smooth="yes"/>
      <point x="77" y="306"/>
      <point x="77" y="290.5" type="qcurve" smooth="yes"/>
      <point x="77" y="275"/>
      <point x="77" y="248" type="qcurve"/>
      <point x="166" y="248" type="line"/>
      <point x="386" y="248" type="line"/>
    </contour>
  </outline>
</glyph>
<glyph name="period" format="2">
  <advance width="172"/>
  <unicode hex="002E"/>
  <outline>
    <contour>
      <point x="152" y="53" type="curve" smooth="yes"/>
      <point x="153" y="84"/>
      <point x="132" y="121"/>
      <point x="86" y="121" type="curve" smooth="yes"/>
      <point x="41" y="121"/>
      <point x="20" y="81"/>
      <point x="20" y="53" type="curve" smooth="yes"/>
      <point x="20" y="37"/>
      <point x="40" y="-11"/>
      <point x="85" y="-10" type="curve" smooth="yes"/>
      <point x="130" y="-9"/>
      <point x="151" y="23"/>
    </contour>
  </outline>
</glyph>
<glyph name="slash" format="2">
  <advance width="500"/>
  <unicode hex="002F"/>
  <outline>
    <contour>
      <point x="382" y="770" type="line"/>
      <point x="380" y="766"/>
      <point x="321" y="635.5" type="qcurve" smooth="yes"/>
      <point x="262" y="505"/>
      <point x="177" y="320.5" type="qcurve" smooth="yes"/>
      <point x="92" y="136"/>
      <point x="31" y="7" type="qcurve"/>
      <point x="44" y="4.5" type="line" smooth="yes"/>
      <point x="57" y="2"/>
      <point x="70.5" y="0" type="qcurve" smooth="yes"/>
      <point x="84" y="-2" type="line"/>
      <point x="153" y="145"/>
      <point x="431" y="770" type="qcurve"/>
    </contour>
  </outline>
</glyph>
<glyph name="zero" format="2">
  <advance width="700"/>
  <unicode hex="0030"/>
  <outline>
    <contour>
      <point x="347" y="732" type="qcurve"/>
      <point x="416" y="735"/>
      <point x="461.5" y="684" type="qcurve" smooth="yes"/>
      <point x="507" y="633"/>
      <point x="517" y="515" type="qcurve"/>
      <point x="522" y="434" type="line"/>
      <point x="533" y="359"/>
      <point x="516" y="248" type="qcurve"/>
      <point x="502" y="131"/>
      <point x="467" y="88" type="qcurve" smooth="yes"/>
      <point x="432" y="45"/>
      <point x="361" y="39" type="qcurve"/>
      <point x="294" y="44"/>
      <point x="274" y="58" type="qcurve" smooth="yes"/>
      <point x="254" y="72"/>
      <point x="224" y="130" type="qcurve"/>
      <point x="192" y="205"/>
      <point x="191" y="317" type="qcurve"/>
      <point x="189" y="409"/>
      <point x="192.5" y="465.5" type="qcurve" smooth="yes"/>
      <point x="196" y="522"/>
      <point x="210" y="592" type="qcurve"/>
      <point x="224" y="638"/>
      <point x="241.5" y="668" type="qcurve" smooth="yes"/>
      <point x="259" y="698"/>
      <point x="280.5" y="710.5" type="qcurve" smooth="yes"/>
      <point x="302" y="723"/>
      <point x="314" y="726.5" type="qcurve" smooth="yes"/>
      <point x="326" y="730"/>
    </contour>
    <contour>
      <point x="468" y="750" type="qcurve"/>
      <point x="461" y="753"/>
      <point x="450.5" y="758" type="qcurve" smooth="yes"/>
      <point x="440" y="763"/>
      <point x="436" y="764.5" type="qcurve" smooth="yes"/>
      <point x="432" y="766"/>
      <point x="425.5" y="769" type="qcurve" smooth="yes"/>
      <point x="419" y="772"/>
      <point x="414.5" y="773" type="qcurve" smooth="yes"/>
      <point x="410" y="774"/>
      <point x="403.5" y="775.5" type="qcurve" smooth="yes"/>
      <point x="397" y="777"/>
      <point x="389" y="777" type="qcurve" smooth="yes"/>
      <point x="381" y="777"/>
      <point x="372" y="777.5" type="qcurve" smooth="yes"/>
      <point x="363" y="778"/>
      <point x="348" y="778" type="qcurve"/>
      <point x="345" y="778"/>
      <point x="336" y="778" type="qcurve" smooth="yes"/>
      <point x="327" y="778"/>
      <point x="322.5" y="777.5" type="qcurve" smooth="yes"/>
      <point x="318" y="777"/>
      <point x="309" y="775.5" type="qcurve" smooth="yes"/>
      <point x="300" y="774"/>
      <point x="292" y="771" type="qcurve" smooth="yes"/>
      <point x="284" y="768"/>
      <point x="271" y="763" type="qcurve" smooth="yes"/>
      <point x="258" y="758"/>
      <point x="244" y="750" type="qcurve"/>
      <point x="211" y="726"/>
      <point x="192.5" y="711" type="qcurve" smooth="yes"/>
      <point x="174" y="696"/>
      <point x="157.5" y="675.5" type="qcurve" smooth="yes"/>
      <point x="141" y="655"/>
      <point x="135.5" y="645" type="qcurve" smooth="yes"/>
      <point x="130" y="635"/>
      <point x="109" y="600" type="qcurve"/>
      <point x="88" y="567"/>
      <point x="73.5" y="492.5" type="qcurve" smooth="yes"/>
      <point x="59" y="418"/>
      <point x="61" y="356" type="qcurve"/>
      <point x="69" y="263"/>
      <point x="97" y="193" type="qcurve"/>
      <point x="99" y="188"/>
      <point x="107" y="172" type="qcurve" smooth="yes"/>
      <point x="115" y="156"/>
      <point x="120" y="147.5" type="qcurve" smooth="yes"/>
      <point x="125" y="139"/>
      <point x="134.5" y="123.5" type="qcurve" smooth="yes"/>
      <point x="144" y="108"/>
      <point x="156.5" y="93" type="qcurve" smooth="yes"/>
      <point x="169" y="78"/>
      <point x="186" y="62" type="qcurve"/>
      <point x="213" y="32"/>
      <point x="262.5" y="11.5" type="qcurve" smooth="yes"/>
      <point x="312" y="-9"/>
      <point x="348" y="-10" type="qcurve"/>
      <point x="393" y="-9"/>
      <point x="417.5" y="-3" type="qcurve" smooth="yes"/>
      <point x="442" y="3"/>
      <point x="474" y="22" type="qcurve"/>
      <point x="478" y="25"/>
      <point x="489.5" y="33.5" type="qcurve" smooth="yes"/>
      <point x="501" y="42"/>
      <point x="507" y="46.5" type="qcurve" smooth="yes"/>
      <point x="513" y="51"/>
      <point x="524" y="60.5" type="qcurve" smooth="yes"/>
      <point x="535" y="70"/>
      <point x="546.5" y="82" type="qcurve" smooth="yes"/>
      <point x="558" y="94"/>
      <point x="572" y="109" type="qcurve"/>
      <point x="598" y="149"/>
      <point x="611" y="182" type="qcurve" smooth="yes"/>
      <point x="624" y="215"/>
      <point x="646" y="292" type="qcurve"/>
      <point x="647" y="300"/>
      <point x="649.5" y="320" type="qcurve" smooth="yes"/>
      <point x="652" y="340"/>
      <point x="652.5" y="352" type="qcurve" smooth="yes"/>
      <point x="653" y="364"/>
      <point x="653" y="386" type="qcurve" smooth="yes"/>
      <point x="653" y="408"/>
      <point x="650" y="436" type="qcurve" smooth="yes"/>
      <point x="647" y="464"/>
      <point x="640" y="500" type="qcurve"/>
      <point x="637" y="512"/>
      <point x="634.5" y="520.5" type="qcurve" smooth="yes"/>
      <point x="632" y="529"/>
      <point x="630" y="536.5" type="qcurve" smooth="yes"/>
      <point x="628" y="544"/>
      <point x="625.5" y="550.5" type="qcurve" smooth="yes"/>
      <point x="623" y="557"/>
      <point x="622" y="561" type="qcurve" smooth="yes"/>
      <point x="621" y="565"/>
      <point x="618" y="571.5" type="qcurve" smooth="yes"/>
      <point x="615" y="578"/>
      <point x="614" y="580.5" type="qcurve" smooth="yes"/>
      <point x="613" y="583"/>
      <point x="609" y="590.5" type="qcurve" smooth="yes"/>
      <point x="605" y="598"/>
      <point x="603.5" y="600.5" type="qcurve" smooth="yes"/>
      <point x="602" y="603"/>
      <point x="596.5" y="613" type="qcurve" smooth="yes"/>
      <point x="591" y="623"/>
      <point x="589" y="627" type="qcurve"/>
      <point x="559" y="674"/>
      <point x="536" y="698.5" type="qcurve" smooth="yes"/>
      <point x="513" y="723"/>
    </contour>
  </outline>
</glyph>
<glyph name="one" format="2">
  <advance width="450"/>
  <unicode hex="0031"/>
  <outline>
    <contour>
      <point x="67" y="740" type="qcurve"/>
      <point x="72" y="699" type="line"/>
      <point x="134" y="698" type="line"/>
      <point x="154" y="697"/>
      <point x="164" y="687.5" type="qcurve" smooth="yes"/>
      <point x="174" y="678"/>
      <point x="175" y="662.5" type="qcurve" smooth="yes"/>
      <point x="176" y="647"/>
      <point x="176" y="627.5" type="qcurve" smooth="yes"/>
      <point x="176" y="608"/>
      <point x="177" y="587" type="qcurve"/>
      <point x="178" y="228" type="line"/>
      <point x="181" y="138"/>
      <point x="171.5" y="97.5" type="qcurve" smooth="yes"/>
      <point x="162" y="57"/>
      <point x="147.5" y="49" type="qcurve" smooth="yes"/>
      <point x="133" y="41"/>
      <point x="90.8944" y="37.553" type="qcurve" smooth="yes"/>
      <point x="79" y="37"/>
      <point x="73" y="36" type="qcurve"/>
      <point x="74" y="-1" type="line"/>
      <point x="380" y="0" type="line"/>
      <point x="379" y="37" type="line"/>
      <point x="341" y="38"/>
      <point x="320.5" y="43.5" type="qcurve" smooth="yes"/>
      <point x="300" y="49"/>
      <point x="290" y="73.5" type="qcurve" smooth="yes"/>
      <point x="280" y="98"/>
      <point x="278.5" y="114" type="qcurve" smooth="yes"/>
      <point x="277" y="130"/>
      <point x="275.539" y="186.833" type="qcurve" smooth="yes"/>
      <point x="275" y="205"/>
      <point x="275" y="215" type="qcurve"/>
      <point x="273" y="769" type="line"/>
      <point x="269" y="780" type="line"/>
      <point x="152" y="740"/>
    </contour>
  </outline>
</glyph>
<glyph name="two" format="2">
  <advance width="600"/>
  <unicode hex="0032"/>
  <outline>
    <contour>
      <point x="296" y="780" type="qcurve"/>
      <point x="285" y="780"/>
      <point x="277.5" y="779.5" type="qcurve" smooth="yes"/>
      <point x="270" y="779"/>
      <point x="264.5" y="779" type="qcurve" smooth="yes"/>
      <point x="259" y="779"/>
      <point x="251.5" y="777" type="qcurve" smooth="yes"/>
      <point x="244" y="775"/>
      <point x="240.5" y="774.5" type="qcurve" smooth="yes"/>
      <point x="237" y="774"/>
      <point x="227" y="770.5" type="qcurve" smooth="yes"/>
      <point x="217" y="767"/>
      <point x="213.5" y="766" type="qcurve" smooth="yes"/>
      <point x="210" y="765"/>
      <point x="194.5" y="759.5" type="qcurve" smooth="yes"/>
      <point x="179" y="754"/>
      <point x="172" y="751" type="qcurve"/>
      <point x="115" y="718"/>
      <point x="73" y="652" type="qcurve"/>
      <point x="62" y="622"/>
      <point x="60" y="603.5" type="qcurve" smooth="yes"/>
      <point x="58" y="585"/>
      <point x="64" y="522" type="qcurve"/>
      <point x="72" y="501"/>
      <point x="78" y="489" type="qcurve" smooth="yes"/>
      <point x="84" y="477"/>
      <point x="100.5" y="460.5" type="qcurve" smooth="yes"/>
      <point x="117" y="444"/>
      <point x="143" y="430" type="qcurve"/>
      <point x="242" y="407"/>
      <point x="265" y="474" type="qcurve"/>
      <point x="262" y="474"/>
      <point x="251.5" y="476" type="qcurve" smooth="yes"/>
      <point x="241" y="478"/>
      <point x="236.5" y="479" type="qcurve" smooth="yes"/>
      <point x="232" y="480"/>
      <point x="222.5" y="483" type="qcurve" smooth="yes"/>
      <point x="213" y="486"/>
      <point x="207" y="489.5" type="qcurve" smooth="yes"/>
      <point x="201" y="493"/>
      <point x="193.5" y="499" type="qcurve" smooth="yes"/>
      <point x="186" y="505"/>
      <point x="180" y="513" type="qcurve"/>
      <point x="158" y="537"/>
      <point x="155" y="602" type="qcurve"/>
      <point x="157" y="617"/>
      <point x="161.5" y="633" type="qcurve" smooth="yes"/>
      <point x="166" y="649"/>
      <point x="176.5" y="670.5" type="qcurve" smooth="yes"/>
      <point x="187" y="692"/>
      <point x="209" y="708.5" type="qcurve" smooth="yes"/>
      <point x="231" y="725"/>
      <point x="262" y="731" type="qcurve"/>
      <point x="292" y="738"/>
      <point x="331" y="729" type="qcurve" smooth="yes"/>
      <point x="370" y="720"/>
      <point x="394" y="683" type="qcurve"/>
      <point x="430" y="640"/>
      <point x="428" y="546" type="qcurve"/>
      <point x="428" y="489"/>
      <point x="386" y="401" type="qcurve"/>
      <point x="349" y="333"/>
      <point x="265" y="242" type="qcurve"/>
      <point x="246" y="208"/>
      <point x="128" y="104" type="qcurve"/>
      <point x="70" y="50"/>
      <point x="50" y="35" type="qcurve"/>
      <point x="50" y="20"/>
      <point x="51" y="0" type="qcurve"/>
      <point x="514" y="0" type="line"/>
      <point x="553" y="213" type="line"/>
      <point x="516" y="213" type="line"/>
      <point x="513" y="206"/>
      <point x="508" y="189.5" type="qcurve" smooth="yes"/>
      <point x="503" y="173"/>
      <point x="499" y="162.5" type="qcurve" smooth="yes"/>
      <point x="495" y="152"/>
      <point x="482.5" y="136" type="qcurve" smooth="yes"/>
      <point x="470" y="120"/>
      <point x="451" y="105" type="qcurve"/>
      <point x="442" y="102"/>
      <point x="425" y="100" type="qcurve" smooth="yes"/>
      <point x="408" y="98"/>
      <point x="381.5" y="97.5" type="qcurve" smooth="yes"/>
      <point x="355" y="97"/>
      <point x="331.5" y="97" type="qcurve" smooth="yes"/>
      <point x="308" y="97"/>
      <point x="266.5" y="97.5" type="qcurve" smooth="yes"/>
      <point x="225" y="98"/>
      <point x="196" y="98" type="qcurve"/>
      <point x="195" y="102"/>
      <point x="195" y="103" type="qcurve"/>
      <point x="209" y="110"/>
      <point x="347" y="224" type="qcurve"/>
      <point x="388" y="262"/>
      <point x="417.5" y="295.5" type="qcurve" smooth="yes"/>
      <point x="447" y="329"/>
      <point x="498" y="401" type="qcurve"/>
      <point x="501" y="407"/>
      <point x="512" y="427.5" type="qcurve" smooth="yes"/>
      <point x="523" y="448"/>
      <point x="528" y="460.5" type="qcurve" smooth="yes"/>
      <point x="533" y="473"/>
      <point x="540" y="501" type="qcurve" smooth="yes"/>
      <point x="547" y="529"/>
      <point x="550" y="564" type="qcurve"/>
      <point x="543" y="678"/>
      <point x="462" y="735" type="qcurve"/>
      <point x="446" y="752"/>
      <point x="400.5" y="766.5" type="qcurve" smooth="yes"/>
      <point x="355" y="781"/>
    </contour>
  </outline>
</glyph>
<glyph name="three" format="2">
  <advance width="600"/>
  <unicode hex="0033"/>
  <outline>
    <contour>
      <point x="331" y="780" type="qcurve"/>
      <point x="268" y="782" type="line"/>
      <point x="147" y="764"/>
      <point x="104.5" y="708" type="qcurve" smooth="yes"/>
      <point x="62" y="652"/>
      <point x="84.5" y="601.5" type="qcurve" smooth="yes"/>
      <point x="107" y="551"/>
      <point x="151" y="538" type="qcurve" smooth="yes"/>
      <point x="217" y="520"/>
      <point x="251" y="569" type="qcurve"/>
      <point x="224" y="575" type="line"/>
      <point x="168" y="630"/>
      <point x="180.5" y="667" type="qcurve" smooth="yes"/>
      <point x="193" y="704"/>
      <point x="232.5" y="724" type="qcurve" smooth="yes"/>
      <point x="272" y="744"/>
      <point x="300" y="738" type="qcurve" smooth="yes"/>
      <point x="314" y="735.5" type="line" smooth="yes"/>
      <point x="328" y="733"/>
      <point x="333.5" y="731" type="qcurve" smooth="yes"/>
      <point x="339" y="729"/>
      <point x="353" y="724" type="qcurve" smooth="yes"/>
      <point x="367" y="719"/>
      <point x="374" y="711" type="qcurve" smooth="yes"/>
      <point x="381" y="703"/>
      <point x="390.5" y="691" type="qcurve" smooth="yes"/>
      <point x="400" y="679"/>
      <point x="405" y="661" type="qcurve" smooth="yes"/>
      <point x="410" y="643"/>
      <point x="412" y="620" type="qcurve" smooth="yes"/>
      <point x="413" y="603"/>
      <point x="410" y="577.5" type="qcurve" smooth="yes"/>
      <point x="407" y="552"/>
      <point x="398" y="516" type="qcurve" smooth="yes"/>
      <point x="389" y="480"/>
      <point x="363.5" y="453" type="qcurve" smooth="yes"/>
      <point x="338" y="426"/>
      <point x="301" y="419" type="qcurve" smooth="yes"/>
      <point x="300" y="419"/>
      <point x="265" y="426" type="qcurve" smooth="yes"/>
      <point x="230" y="433"/>
      <point x="204.5" y="428.5" type="qcurve" smooth="yes"/>
      <point x="179" y="424"/>
      <point x="185" y="397" type="qcurve"/>
      <point x="187" y="393" type="line"/>
      <point x="208" y="372"/>
      <point x="235.5" y="372" type="qcurve" smooth="yes"/>
      <point x="263" y="372"/>
      <point x="283.5" y="381" type="qcurve" smooth="yes"/>
      <point x="304" y="390"/>
      <point x="305" y="390" type="qcurve" smooth="yes"/>
      <point x="308" y="389"/>
      <point x="322.5" y="385" type="qcurve" smooth="yes"/>
      <point x="337" y="381"/>
      <point x="348.5" y="376.5" type="qcurve" smooth="yes"/>
      <point x="360" y="372"/>
      <point x="376" y="358.5" type="qcurve" smooth="yes"/>
      <point x="392" y="345"/>
      <point x="403" y="325.5" type="qcurve" smooth="yes"/>
      <point x="414" y="306"/>
      <point x="421.5" y="270.5" type="qcurve" smooth="yes"/>
      <point x="429" y="235"/>
      <point x="429" y="188" type="qcurve" smooth="yes"/>
      <point x="429" y="112"/>
      <point x="384" y="71" type="qcurve" smooth="yes"/>
      <point x="339" y="30"/>
      <point x="271" y="38" type="qcurve" smooth="yes"/>
      <point x="238" y="41"/>
      <point x="197.5" y="69" type="qcurve" smooth="yes"/>
      <point x="157" y="97"/>
      <point x="158" y="138" type="qcurve" smooth="yes"/>
      <point x="158" y="158"/>
      <point x="159" y="166.5" type="qcurve" smooth="yes"/>
      <point x="160" y="175"/>
      <point x="164.5" y="194" type="qcurve" smooth="yes"/>
      <point x="169" y="213"/>
      <point x="177" y="222.5" type="qcurve" smooth="yes"/>
      <point x="185" y="232"/>
      <point x="202.5" y="240" type="qcurve" smooth="yes"/>
      <point x="220" y="248"/>
      <point x="245" y="248" type="qcurve"/>
      <point x="231" y="274" type="line"/>
      <point x="213" y="290"/>
      <point x="183" y="294.5" type="qcurve" smooth="yes"/>
      <point x="153" y="299"/>
      <point x="120" y="284" type="qcurve" smooth="yes"/>
      <point x="87" y="269"/>
      <point x="69" y="234" type="qcurve" smooth="yes"/>
      <point x="48" y="186"/>
      <point x="48.5" y="149.5" type="qcurve" smooth="yes"/>
      <point x="49" y="113"/>
      <point x="72.5" y="85.5" type="qcurve" smooth="yes"/>
      <point x="96" y="58"/>
      <point x="125" y="39.5" type="qcurve" smooth="yes"/>
      <point x="154" y="21"/>
      <point x="189" y="10" type="qcurve" smooth="yes"/>
      <point x="224" y="-1"/>
      <point x="247.5" y="-6" type="qcurve" smooth="yes"/>
      <point x="271" y="-11"/>
      <point x="284" y="-12" type="qcurve" smooth="yes"/>
      <point x="339" y="-15"/>
      <point x="384.5" y="-2" type="qcurve" smooth="yes"/>
      <point x="430" y="11"/>
      <point x="457" y="31" type="qcurve" smooth="yes"/>
      <point x="484" y="51"/>
      <point x="505.5" y="79" type="qcurve" smooth="yes"/>
      <point x="527" y="107"/>
      <point x="535" y="124.5" type="qcurve" smooth="yes"/>
      <point x="543" y="142"/>
      <point x="549" y="160" type="qcurve" smooth="yes"/>
      <point x="559" y="189"/>
      <point x="540.5" y="259" type="qcurve" smooth="yes"/>
      <point x="522" y="329"/>
      <point x="506" y="340" type="qcurve" smooth="yes"/>
      <point x="504" y="341"/>
      <point x="490" y="353" type="qcurve" smooth="yes"/>
      <point x="476" y="365"/>
      <point x="462.5" y="375.5" type="qcurve" smooth="yes"/>
      <point x="449" y="386"/>
      <point x="424.5" y="398" type="qcurve" smooth="yes"/>
      <point x="400" y="410"/>
      <point x="375" y="416" type="qcurve"/>
      <point x="400" y="422" type="line"/>
      <point x="438" y="435"/>
      <point x="465.5" y="458.5" type="qcurve" smooth="yes"/>
      <point x="493" y="482"/>
      <point x="506.5" y="507.5" type="qcurve" smooth="yes"/>
      <point x="520" y="533"/>
      <point x="525.5" y="550" type="qcurve" smooth="yes"/>
      <point x="531" y="567"/>
      <point x="533" y="581" type="qcurve" smooth="yes"/>
      <point x="537" y="621"/>
      <point x="522" y="658" type="qcurve" smooth="yes"/>
      <point x="507" y="695"/>
      <point x="493" y="709.5" type="qcurve" smooth="yes"/>
      <point x="479" y="724"/>
      <point x="474" y="727" type="qcurve" smooth="yes"/>
      <point x="423.878" y="757.402"/>
      <point x="413.13" y="761.093" type="qcurve" smooth="yes"/>
      <point x="399.625" y="765.731"/>
    </contour>
  </outline>
</glyph>
<glyph name="four" format="2">
  <advance width="500"/>
  <unicode hex="0034"/>
  <outline>
    <contour>
      <point x="401" y="780" type="qcurve"/>
      <point x="382" y="780" type="line"/>
      <point x="370" y="780" type="line"/>
      <point x="17" y="229" type="line"/>
      <point x="18" y="180" type="line"/>
      <point x="260" y="180"/>
      <point x="305" y="176" type="qcurve" smooth="yes"/>
      <point x="309" y="176"/>
      <point x="305" y="125" type="qcurve" smooth="yes"/>
      <point x="305" y="123"/>
      <point x="305" y="112.5" type="qcurve" smooth="yes"/>
      <point x="305" y="102"/>
      <point x="304.5" y="94" type="qcurve" smooth="yes"/>
      <point x="304" y="86"/>
      <point x="298" y="74.5" type="qcurve" smooth="yes"/>
      <point x="292" y="63"/>
      <point x="281.5" y="55.5" type="qcurve" smooth="yes"/>
      <point x="271" y="48"/>
      <point x="250" y="42.5" type="qcurve" smooth="yes"/>
      <point x="229" y="37"/>
      <point x="199" y="37" type="qcurve" smooth="yes"/>
      <point x="198" y="37"/>
      <point x="198" y="18" type="qcurve" smooth="yes"/>
      <point x="198" y="-1"/>
      <point x="199" y="-1" type="qcurve" smooth="yes"/>
      <point x="468" y="3"/>
      <point x="482" y="2" type="qcurve" smooth="yes"/>
      <point x="484" y="3"/>
      <point x="483.5" y="11" type="qcurve" smooth="yes"/>
      <point x="483" y="19"/>
      <point x="481.5" y="28" type="qcurve" smooth="yes"/>
      <point x="480" y="37"/>
      <point x="479" y="37" type="qcurve" smooth="yes"/>
      <point x="476" y="38"/>
      <point x="456.5" y="40.5" type="qcurve" smooth="yes"/>
      <point x="437" y="43"/>
      <point x="426" y="49.5" type="qcurve" smooth="yes"/>
      <point x="415" y="56"/>
      <point x="409" y="71" type="qcurve" smooth="yes"/>
      <point x="405" y="81"/>
      <point x="403" y="100" type="qcurve" smooth="yes"/>
      <point x="401" y="119"/>
      <point x="399.5" y="144.5" type="qcurve" smooth="yes"/>
      <point x="398" y="170"/>
      <point x="397" y="178" type="qcurve" smooth="yes"/>
      <point x="400" y="180"/>
      <point x="426.5" y="185" type="qcurve" smooth="yes"/>
      <point x="453" y="190"/>
      <point x="478" y="166.5" type="qcurve" smooth="yes"/>
      <point x="503" y="143"/>
      <point x="493" y="95" type="qcurve" smooth="yes"/>
      <point x="491.576" y="90.7269"/>
      <point x="516.624" y="91.7822" type="qcurve" smooth="yes"/>
      <point x="529" y="92.3037"/>
      <point x="529" y="96" type="qcurve" smooth="yes"/>
      <point x="531" y="243"/>
      <point x="529" y="317" type="qcurve" smooth="yes"/>
      <point x="529" y="318"/>
      <point x="495" y="318" type="qcurve"/>
      <point x="495.5" y="303" type="line" smooth="yes"/>
      <point x="496" y="288"/>
      <point x="490.5" y="268.5" type="qcurve" smooth="yes"/>
      <point x="485" y="249"/>
      <point x="472" y="240" type="qcurve" smooth="yes"/>
      <point x="464" y="235"/>
      <point x="446.5" y="231.5" type="qcurve" smooth="yes"/>
      <point x="429" y="228"/>
      <point x="415" y="227" type="qcurve" smooth="yes"/>
      <point x="401" y="226"/>
      <point x="401" y="227" type="qcurve" smooth="yes"/>
      <point x="402" y="245"/>
      <point x="401" y="337.5" type="qcurve" smooth="yes"/>
      <point x="400" y="430"/>
      <point x="400" y="438" type="qcurve"/>
      <point x="401" y="438"/>
      <point x="400.5" y="571.5" type="qcurve" smooth="yes"/>
      <point x="400" y="705"/>
      <point x="398" y="778" type="qcurve"/>
      <point x="298" y="585" type="line"/>
      <point x="305.266" y="592.266"/>
      <point x="303" y="445" type="qcurve"/>
      <point x="303" y="332" type="line"/>
      <point x="305" y="295"/>
      <point x="303" y="229" type="qcurve"/>
      <point x="69" y="227" type="line"/>
      <point x="60.1991" y="217.256"/>
      <point x="85.3471" y="257.763" type="qcurve" smooth="yes"/>
      <point x="90.1094" y="265.434"/>
      <point x="296.156" y="582.152" type="qcurve" smooth="yes"/>
      <point x="297.31" y="583.926"/>
      <point x="298" y="585" type="qcurve" smooth="yes"/>
      <point x="333" y="636"/>
    </contour>
  </outline>
</glyph>
<glyph name="five" format="2">
  <advance width="500"/>
  <unicode hex="0035"/>
  <outline>
    <contour>
      <point x="489" y="780" type="qcurve"/>
      <point x="483" y="781" type="line"/>
      <point x="421" y="761"/>
      <point x="356.5" y="761.5" type="qcurve" smooth="yes"/>
      <point x="292" y="762"/>
      <point x="233" y="778" type="qcurve" smooth="yes"/>
      <point x="232" y="778"/>
      <point x="227.5" y="760.5" type="qcurve" smooth="yes"/>
      <point x="223" y="743"/>
      <point x="213.5" y="705" type="qcurve" smooth="yes"/>
      <point x="204" y="667"/>
      <point x="193" y="632" type="qcurve"/>
      <point x="126" y="353" type="line"/>
      <point x="140" y="336"/>
      <point x="155" y="339" type="qcurve" smooth="yes"/>
      <point x="159" y="340"/>
      <point x="166.5" y="360" type="qcurve" smooth="yes"/>
      <point x="174" y="380"/>
      <point x="188" y="406" type="qcurve" smooth="yes"/>
      <point x="202" y="432"/>
      <point x="219" y="444" type="qcurve" smooth="yes"/>
      <point x="248" y="463"/>
      <point x="286.5" y="463" type="qcurve" smooth="yes"/>
      <point x="325" y="463"/>
      <point x="354" y="433" type="qcurve" smooth="yes"/>
      <point x="397" y="380"/>
      <point x="383" y="242" type="qcurve" smooth="yes"/>
      <point x="378" y="193"/>
      <point x="364" y="154.5" type="qcurve" smooth="yes"/>
      <point x="350" y="116"/>
      <point x="335" y="96" type="qcurve" smooth="yes"/>
      <point x="320" y="76"/>
      <point x="301" y="61.5" type="qcurve" smooth="yes"/>
      <point x="282" y="47"/>
      <point x="272.5" y="43.5" type="qcurve" smooth="yes"/>
      <point x="263" y="40"/>
      <point x="255" y="38" type="qcurve" smooth="yes"/>
      <point x="211" y="28"/>
      <point x="184.5" y="38.5" type="qcurve" smooth="yes"/>
      <point x="158" y="49"/>
      <point x="138" y="81" type="qcurve" smooth="yes"/>
      <point x="134" y="87"/>
      <point x="122" y="126" type="qcurve" smooth="yes"/>
      <point x="110" y="165"/>
      <point x="103" y="173" type="qcurve" smooth="yes"/>
      <point x="85" y="193"/>
      <point x="55" y="181.5" type="qcurve" smooth="yes"/>
      <point x="25" y="170"/>
      <point x="23" y="147" type="qcurve" smooth="yes"/>
      <point x="20" y="116"/>
      <point x="31" y="87.5" type="qcurve" smooth="yes"/>
      <point x="42" y="59"/>
      <point x="55" y="48" type="qcurve" smooth="yes"/>
      <point x="77" y="30"/>
      <point x="90.5" y="21.5" type="qcurve" smooth="yes"/>
      <point x="104" y="13"/>
      <point x="110.5" y="10" type="qcurve" smooth="yes"/>
      <point x="117" y="7"/>
      <point x="132" y="2" type="qcurve" smooth="yes"/>
      <point x="133" y="2"/>
      <point x="144.5" y="-2.5" type="qcurve" smooth="yes"/>
      <point x="156" y="-7"/>
      <point x="160.5" y="-7.5" type="qcurve" smooth="yes"/>
      <point x="165" y="-8"/>
      <point x="178" y="-10" type="qcurve" smooth="yes"/>
      <point x="191" y="-12"/>
      <point x="208.5" y="-11.5" type="qcurve" smooth="yes"/>
      <point x="226" y="-11"/>
      <point x="251" y="-9" type="qcurve" smooth="yes"/>
      <point x="309" y="-5"/>
      <point x="360.5" y="26.5" type="qcurve" smooth="yes"/>
      <point x="412" y="58"/>
      <point x="440" y="91" type="qcurve" smooth="yes"/>
      <point x="462" y="117"/>
      <point x="485.5" y="171.5" type="qcurve" smooth="yes"/>
      <point x="509" y="226"/>
      <point x="509" y="248" type="qcurve" smooth="yes"/>
      <point x="509" y="275"/>
      <point x="501.5" y="324.5" type="qcurve" smooth="yes"/>
      <point x="494" y="374"/>
      <point x="484" y="392" type="qcurve" smooth="yes"/>
      <point x="477" y="405"/>
      <point x="469" y="416.5" type="qcurve" smooth="yes"/>
      <point x="461" y="428"/>
      <point x="434.5" y="453" type="qcurve" smooth="yes"/>
      <point x="408" y="478"/>
      <point x="379" y="490.5" type="qcurve" smooth="yes"/>
      <point x="350" y="503"/>
      <point x="301.5" y="503" type="qcurve" smooth="yes"/>
      <point x="253" y="503"/>
      <point x="199" y="480" type="qcurve"/>
      <point x="199" y="487" type="line"/>
      <point x="218" y="560" type="line"/>
      <point x="219" y="564"/>
      <point x="229" y="600.5" type="qcurve" smooth="yes"/>
      <point x="239" y="637"/>
      <point x="245" y="661" type="qcurve"/>
      <point x="311" y="659"/>
      <point x="352" y="661" type="qcurve" smooth="yes"/>
      <point x="379" y="662"/>
      <point x="405.5" y="674.5" type="qcurve" smooth="yes"/>
      <point x="432" y="687"/>
      <point x="444" y="698" type="qcurve" smooth="yes"/>
      <point x="476" y="730"/>
    </contour>
  </outline>
</glyph>
<glyph name="six" format="2">
  <advance width="620"/>
  <unicode hex="0036"/>
  <outline>
    <contour>
      <point x="541" y="645" type="qcurve"/>
      <point x="567" y="670"/>
      <point x="532" y="724" type="qcurve"/>
      <point x="498" y="752" type="line"/>
      <point x="477" y="770"/>
      <point x="421.5" y="776.5" type="qcurve" smooth="yes"/>
      <point x="366" y="783"/>
      <point x="331" y="777" type="qcurve" smooth="yes"/>
      <point x="313" y="774"/>
      <point x="272" y="753.5" type="qcurve" smooth="yes"/>
      <point x="231" y="733"/>
      <point x="205" y="709" type="qcurve" smooth="yes"/>
      <point x="163" y="671"/>
      <point x="123.5" y="598.5" type="qcurve" smooth="yes"/>
      <point x="84" y="526"/>
      <point x="77" y="482" type="qcurve" smooth="yes"/>
      <point x="70" y="444"/>
      <point x="66" y="376" type="qcurve" smooth="yes"/>
      <point x="62" y="308"/>
      <point x="67" y="250" type="qcurve" smooth="yes"/>
      <point x="80" y="155"/>
      <point x="141" y="76" type="qcurve" smooth="yes"/>
      <point x="182" y="23"/>
      <point x="285" y="-8" type="qcurve" smooth="yes"/>
      <point x="324" y="-19"/>
      <point x="392.5" y="-1" type="qcurve" smooth="yes"/>
      <point x="461" y="17"/>
      <point x="504" y="62" type="qcurve" smooth="yes"/>
      <point x="538" y="97"/>
      <point x="562" y="154.5" type="qcurve" smooth="yes"/>
      <point x="586" y="212"/>
      <point x="588" y="244" type="qcurve" smooth="yes"/>
      <point x="590" y="272"/>
      <point x="574" y="328" type="qcurve" smooth="yes"/>
      <point x="558" y="384"/>
      <point x="539" y="414" type="qcurve" smooth="yes"/>
      <point x="521" y="442"/>
      <point x="476" y="470" type="qcurve" smooth="yes"/>
      <point x="431" y="498"/>
      <point x="396" y="506" type="qcurve" smooth="yes"/>
      <point x="381" y="509"/>
      <point x="362.5" y="509.5" type="qcurve" smooth="yes"/>
      <point x="344" y="510"/>
      <point x="312" y="506" type="qcurve" smooth="yes"/>
      <point x="280" y="502"/>
      <point x="246.5" y="479.5" type="qcurve" smooth="yes"/>
      <point x="213" y="457"/>
      <point x="187" y="418" type="qcurve"/>
      <point x="199" y="534" type="line"/>
      <point x="215" y="611"/>
      <point x="243" y="662" type="qcurve" smooth="yes"/>
      <point x="289" y="746"/>
      <point x="365" y="734" type="qcurve" smooth="yes"/>
      <point x="390" y="730"/>
      <point x="409" y="710" type="qcurve" smooth="yes"/>
      <point x="428" y="690"/>
      <point x="439.5" y="667.5" type="qcurve" smooth="yes"/>
      <point x="451" y="645"/>
      <point x="455" y="642" type="qcurve" smooth="yes"/>
      <point x="468" y="633"/>
      <point x="478.5" y="629" type="qcurve" smooth="yes"/>
      <point x="489" y="625"/>
      <point x="495.5" y="623.5" type="qcurve" smooth="yes"/>
      <point x="502" y="622"/>
      <point x="510" y="624.5" type="qcurve" smooth="yes"/>
      <point x="518" y="627"/>
      <point x="521" y="629" type="qcurve" smooth="yes"/>
      <point x="524" y="631"/>
      <point x="531.5" y="637" type="qcurve" smooth="yes"/>
      <point x="539" y="643"/>
    </contour>
    <contour>
      <point x="349" y="459" type="qcurve"/>
      <point x="379" y="460"/>
      <point x="409.5" y="428" type="qcurve" smooth="yes"/>
      <point x="440" y="396"/>
      <point x="453" y="351" type="qcurve" smooth="yes"/>
      <point x="455" y="343"/>
      <point x="458" y="287" type="qcurve" smooth="yes"/>
      <point x="461" y="231"/>
      <point x="459" y="202" type="qcurve" smooth="yes"/>
      <point x="459" y="198"/>
      <point x="458" y="183.5" type="qcurve" smooth="yes"/>
      <point x="457" y="169"/>
      <point x="456.5" y="163" type="qcurve" smooth="yes"/>
      <point x="456" y="157"/>
      <point x="453.5" y="143.5" type="qcurve" smooth="yes"/>
      <point x="451" y="130"/>
      <point x="447" y="121.5" type="qcurve" smooth="yes"/>
      <point x="443" y="113"/>
      <point x="436" y="100.5" type="qcurve" smooth="yes"/>
      <point x="429" y="88"/>
      <point x="418" y="76.5" type="qcurve" smooth="yes"/>
      <point x="407" y="65"/>
      <point x="393" y="53" type="qcurve" smooth="yes"/>
      <point x="365" y="31"/>
      <point x="331.5" y="33.5" type="qcurve" smooth="yes"/>
      <point x="298" y="36"/>
      <point x="271.5" y="48.5" type="qcurve" smooth="yes"/>
      <point x="245" y="61"/>
      <point x="238" y="72" type="qcurve" smooth="yes"/>
      <point x="203" y="127"/>
      <point x="194" y="176" type="qcurve" smooth="yes"/>
      <point x="188" y="210"/>
      <point x="184.5" y="257.5" type="qcurve" smooth="yes"/>
      <point x="181" y="305"/>
      <point x="187" y="336" type="qcurve" smooth="yes"/>
      <point x="194" y="354"/>
      <point x="214" y="382.5" type="qcurve" smooth="yes"/>
      <point x="234" y="411"/>
      <point x="248" y="423" type="qcurve" smooth="yes"/>
      <point x="272" y="445"/>
      <point x="293.5" y="453" type="qcurve" smooth="yes"/>
      <point x="315" y="461"/>
    </contour>
  </outline>
</glyph>
<glyph name="seven" format="2">
  <advance width="550"/>
  <unicode hex="0037"/>
  <outline>
    <contour>
      <point x="141" y="828" type="line"/>
      <point x="102" y="830" type="line"/>
      <point x="33" y="549" type="line"/>
      <point x="71" y="552" type="line"/>
      <point x="77" y="562"/>
      <point x="87" y="592.5" type="qcurve" smooth="yes"/>
      <point x="97" y="623"/>
      <point x="108.5" y="641.5" type="qcurve" smooth="yes"/>
      <point x="120" y="660"/>
      <point x="138" y="664" type="qcurve" smooth="yes"/>
      <point x="178" y="672"/>
      <point x="416" y="672" type="qcurve"/>
      <point x="285" y="415" type="line"/>
      <point x="235.401" y="316.235" type="line" smooth="yes"/>
      <point x="115.131" y="78.3941"/>
      <point x="112" y="69" type="qcurve" smooth="yes"/>
      <point x="104" y="43"/>
      <point x="108" y="23.5" type="qcurve" smooth="yes"/>
      <point x="112" y="4"/>
      <point x="123" y="-3" type="qcurve" smooth="yes"/>
      <point x="131" y="-8"/>
      <point x="145.5" y="-9" type="qcurve" smooth="yes"/>
      <point x="160" y="-10"/>
      <point x="177" y="-1.5" type="qcurve" smooth="yes"/>
      <point x="194" y="7"/>
      <point x="203" y="27" type="qcurve" smooth="yes"/>
      <point x="251" y="124"/>
      <point x="350" y="386" type="qcurve"/>
      <point x="507" y="750" type="line"/>
      <point x="507" y="770" type="line"/>
      <point x="421" y="770"/>
      <point x="300" y="771.5" type="qcurve" smooth="yes"/>
      <point x="179" y="773"/>
      <point x="173" y="773" type="qcurve" smooth="yes"/>
      <point x="164" y="773"/>
      <point x="157" y="775" type="qcurve" smooth="yes"/>
      <point x="150" y="777"/>
      <point x="146" y="781" type="qcurve" smooth="yes"/>
      <point x="142" y="785"/>
      <point x="140" y="789" type="qcurve" smooth="yes"/>
      <point x="138" y="793"/>
      <point x="138" y="798" type="qcurve" smooth="yes"/>
      <point x="138" y="803"/>
      <point x="138" y="806.5" type="qcurve" smooth="yes"/>
      <point x="138" y="810"/>
      <point x="138.5" y="813" type="qcurve" smooth="yes"/>
      <point x="139" y="816" type="line"/>
    </contour>
  </outline>
</glyph>
<glyph name="eight" format="2">
  <advance width="600"/>
  <unicode hex="0038"/>
  <outline>
    <contour>
      <point x="297" y="780" type="qcurve"/>
      <point x="262" y="783"/>
      <point x="219.5" y="766" type="qcurve" smooth="yes"/>
      <point x="177" y="749"/>
      <point x="156" y="730" type="qcurve" smooth="yes"/>
      <point x="121" y="699"/>
      <point x="101.5" y="649.5" type="qcurve" smooth="yes"/>
      <point x="82" y="600"/>
      <point x="84" y="569" type="qcurve" smooth="yes"/>
      <point x="86" y="544"/>
      <point x="95.5" y="520" type="qcurve" smooth="yes"/>
      <point x="105" y="496"/>
      <point x="118" y="478.5" type="qcurve" smooth="yes"/>
      <point x="131" y="461"/>
      <point x="146.5" y="445.5" type="qcurve" smooth="yes"/>
      <point x="162" y="430"/>
      <point x="177" y="419.5" type="qcurve" smooth="yes"/>
      <point x="192" y="409"/>
      <point x="204" y="401" type="qcurve" smooth="yes"/>
      <point x="216" y="393"/>
      <point x="222" y="389" type="qcurve" smooth="yes"/>
      <point x="228" y="385"/>
      <point x="226" y="384" type="qcurve" smooth="yes"/>
      <point x="156" y="358"/>
      <point x="116" y="311.5" type="qcurve" smooth="yes"/>
      <point x="76" y="265"/>
      <point x="67" y="224.5" type="qcurve" smooth="yes"/>
      <point x="58" y="184"/>
      <point x="65" y="148" type="qcurve" smooth="yes"/>
      <point x="76" y="90"/>
      <point x="124" y="52.5" type="qcurve" smooth="yes"/>
      <point x="172" y="15"/>
      <point x="226.5" y="2.5" type="qcurve" smooth="yes"/>
      <point x="281" y="-10"/>
      <point x="336" y="-7" type="qcurve" smooth="yes"/>
      <point x="549" y="4"/>
      <point x="544" y="238" type="qcurve" smooth="yes"/>
      <point x="543" y="277"/>
      <point x="522.5" y="314" type="qcurve" smooth="yes"/>
      <point x="502" y="351"/>
      <point x="474" y="375" type="qcurve" smooth="yes"/>
      <point x="446" y="399"/>
      <point x="424.5" y="413.5" type="qcurve" smooth="yes"/>
      <point x="403" y="428"/>
      <point x="391" y="432" type="qcurve" smooth="yes"/>
      <point x="386" y="434"/>
      <point x="396.5" y="440.5" type="qcurve" smooth="yes"/>
      <point x="407" y="447"/>
      <point x="427.5" y="460" type="qcurve" smooth="yes"/>
      <point x="448" y="473"/>
      <point x="468" y="491" type="qcurve" smooth="yes"/>
      <point x="488" y="509"/>
      <point x="503" y="540" type="qcurve" smooth="yes"/>
      <point x="518" y="571"/>
      <point x="517" y="607" type="qcurve" smooth="yes"/>
      <point x="517" y="625"/>
      <point x="512" y="642" type="qcurve" smooth="yes"/>
      <point x="507" y="659"/>
      <point x="501.5" y="670.5" type="qcurve" smooth="yes"/>
      <point x="496" y="682"/>
      <point x="487" y="693" type="qcurve" smooth="yes"/>
      <point x="478" y="704"/>
      <point x="472" y="709" type="qcurve" smooth="yes"/>
      <point x="466" y="714"/>
      <point x="458" y="721" type="qcurve" smooth="yes"/>
      <point x="450" y="728" type="line" smooth="yes"/>
      <point x="418" y="757"/>
      <point x="385" y="767" type="qcurve" smooth="yes"/>
      <point x="352" y="777"/>
    </contour>
    <contour>
      <point x="187" y="565" type="qcurve"/>
      <point x="170" y="606"/>
      <point x="171.5" y="636.5" type="qcurve" smooth="yes"/>
      <point x="173" y="667"/>
      <point x="190" y="688" type="qcurve" smooth="yes"/>
      <point x="207" y="709"/>
      <point x="224.5" y="719.5" type="qcurve" smooth="yes"/>
      <point x="242" y="730"/>
      <point x="255" y="731" type="qcurve" smooth="yes"/>
      <point x="274" y="733"/>
      <point x="290" y="733" type="qcurve" smooth="yes"/>
      <point x="306" y="733"/>
      <point x="319" y="731" type="qcurve" smooth="yes"/>
      <point x="332" y="729"/>
      <point x="342.5" y="727" type="qcurve" smooth="yes"/>
      <point x="353" y="725"/>
      <point x="361.5" y="720" type="qcurve" smooth="yes"/>
      <point x="370" y="715"/>
      <point x="375.5" y="711.5" type="qcurve" smooth="yes"/>
      <point x="381" y="708"/>
      <point x="386.5" y="702" type="qcurve" smooth="yes"/>
      <point x="392" y="696"/>
      <point x="394.5" y="693.5" type="qcurve" smooth="yes"/>
      <point x="397" y="691"/>
      <point x="400.5" y="685.5" type="qcurve" smooth="yes"/>
      <point x="404" y="680"/>
      <point x="405" y="679" type="qcurve" smooth="yes"/>
      <point x="440" y="636"/>
      <point x="434" y="575" type="qcurve" smooth="yes"/>
      <point x="432" y="550"/>
      <point x="396.5" y="502" type="qcurve" smooth="yes"/>
      <point x="361" y="454"/>
      <point x="346" y="456" type="qcurve" smooth="yes"/>
      <point x="313" y="460"/>
      <point x="267" y="492" type="qcurve" smooth="yes"/>
      <point x="221" y="524"/>
    </contour>
    <contour>
      <point x="266" y="363" type="qcurve"/>
      <point x="305" y="354"/>
      <point x="373.5" y="300.5" type="qcurve" smooth="yes"/>
      <point x="442" y="247"/>
      <point x="449" y="219" type="qcurve" smooth="yes"/>
      <point x="456" y="205"/>
      <point x="453" y="175.5" type="qcurve" smooth="yes"/>
      <point x="450" y="146"/>
      <point x="442" y="116" type="qcurve" smooth="yes"/>
      <point x="434" y="86"/>
      <point x="402.5" y="61.5" type="qcurve" smooth="yes"/>
      <point x="371" y="37"/>
      <point x="323" y="35" type="qcurve" smooth="yes"/>
      <point x="205" y="30"/>
      <point x="166" y="118" type="qcurve"/>
      <point x="152" y="160"/>
      <point x="156" y="200.5" type="qcurve" smooth="yes"/>
      <point x="160" y="241"/>
      <point x="173" y="263" type="qcurve" smooth="yes"/>
      <point x="181.5" y="280.5" type="line" smooth="yes"/>
      <point x="190" y="298"/>
      <point x="198" y="309.5" type="qcurve" smooth="yes"/>
      <point x="206" y="321"/>
      <point x="224.5" y="337.5" type="qcurve" smooth="yes"/>
      <point x="243" y="354"/>
    </contour>
  </outline>
</glyph>
<glyph name="nine" format="2">
  <advance width="650"/>
  <unicode hex="0039"/>
  <outline>
    <contour>
      <point x="309" y="780" type="curve"/>
      <point x="249" y="777"/>
      <point x="193" y="752"/>
      <point x="151" y="718" type="curve" smooth="yes"/>
      <point x="126" y="697"/>
      <point x="60" y="629"/>
      <point x="57" y="518" type="curve" smooth="yes"/>
      <point x="55" y="456"/>
      <point x="73" y="375"/>
      <point x="148" y="312" type="curve" smooth="yes"/>
      <point x="206" y="263"/>
      <point x="289" y="260"/>
      <point x="322" y="264" type="curve" smooth="yes"/>
      <point x="362" y="269"/>
      <point x="400" y="285"/>
      <point x="454" y="351" type="curve"/>
      <point x="462" y="329"/>
      <point x="442" y="224"/>
      <point x="427" y="170" type="curve" smooth="yes"/>
      <point x="410" y="108"/>
      <point x="346" y="44"/>
      <point x="323" y="40" type="curve" smooth="yes"/>
      <point x="250" y="26"/>
      <point x="228" y="54"/>
      <point x="212" y="90" type="curve" smooth="yes"/>
      <point x="188" y="142"/>
      <point x="153" y="150"/>
      <point x="125" y="141" type="curve" smooth="yes"/>
      <point x="105" y="134"/>
      <point x="79" y="106"/>
      <point x="101" y="55" type="curve" smooth="yes"/>
      <point x="115" y="23"/>
      <point x="172" y="-4"/>
      <point x="250" y="-10" type="curve" smooth="yes"/>
      <point x="288" y="-13"/>
      <point x="395" y="3"/>
      <point x="465" y="88" type="curve"/>
      <point x="500" y="127"/>
      <point x="561" y="242"/>
      <point x="574" y="346" type="curve" smooth="yes"/>
      <point x="580" y="391"/>
      <point x="592" y="494"/>
      <point x="552" y="605" type="curve" smooth="yes"/>
      <point x="531" y="662"/>
      <point x="488" y="716"/>
      <point x="445" y="743" type="curve" smooth="yes"/>
      <point x="412" y="764"/>
      <point x="382" y="779"/>
    </contour>
    <contour>
      <point x="320" y="734" type="curve"/>
      <point x="379" y="735"/>
      <point x="392" y="711"/>
      <point x="410" y="691" type="curve" smooth="yes"/>
      <point x="438" y="660"/>
      <point x="439" y="648"/>
      <point x="458" y="512" type="curve" smooth="yes"/>
      <point x="461" y="487"/>
      <point x="457" y="459"/>
      <point x="456" y="439" type="curve" smooth="yes"/>
      <point x="456" y="438"/>
      <point x="443" y="404"/>
      <point x="425" y="381" type="curve" smooth="yes"/>
      <point x="394" y="341"/>
      <point x="371" y="314"/>
      <point x="321" y="311" type="curve" smooth="yes"/>
      <point x="275" y="309"/>
      <point x="239" y="322"/>
      <point x="207" y="375" type="curve" smooth="yes"/>
      <point x="190" y="403"/>
      <point x="183" y="481"/>
      <point x="183" y="516" type="curve" smooth="yes"/>
      <point x="183" y="551"/>
      <point x="182" y="601"/>
      <point x="200" y="655" type="curve" smooth="yes"/>
      <point x="209" y="682"/>
      <point x="245" y="733"/>
    </contour>
  </outline>
</glyph>
<glyph name="colon" format="2">
  <advance width="282"/>
  <unicode hex="003A"/>
  <outline>
    <contour>
      <point x="208" y="55" type="qcurve" smooth="yes"/>
      <point x="209" y="81"/>
      <point x="191.5" y="102" type="qcurve" smooth="yes"/>
      <point x="174" y="123"/>
      <point x="142" y="123" type="qcurve" smooth="yes"/>
      <point x="111" y="123"/>
      <point x="93.5" y="101" type="qcurve" smooth="yes"/>
      <point x="76" y="79"/>
      <point x="76" y="55" type="qcurve" smooth="yes"/>
      <point x="76" y="38"/>
      <point x="93.5" y="14.5" type="qcurve" smooth="yes"/>
      <point x="111" y="-9"/>
      <point x="141" y="-8" type="qcurve" smooth="yes"/>
      <point x="173" y="-7"/>
      <point x="190" y="11.5" type="qcurve" smooth="yes"/>
      <point x="207" y="30"/>
    </contour>
    <contour>
      <point x="206" y="379" type="qcurve" smooth="yes"/>
      <point x="207" y="405"/>
      <point x="189.5" y="426" type="qcurve" smooth="yes"/>
      <point x="172" y="447"/>
      <point x="140" y="447" type="qcurve" smooth="yes"/>
      <point x="109" y="447"/>
      <point x="91.5" y="425" type="qcurve" smooth="yes"/>
      <point x="74" y="403"/>
      <point x="74" y="379" type="qcurve" smooth="yes"/>
      <point x="74" y="362"/>
      <point x="91.5" y="338.5" type="qcurve" smooth="yes"/>
      <point x="109" y="315"/>
      <point x="139" y="316" type="qcurve" smooth="yes"/>
      <point x="171" y="317"/>
      <point x="188" y="335.5" type="qcurve" smooth="yes"/>
      <point x="205" y="354"/>
    </contour>
  </outline>
</glyph>
<glyph name="semicolon" format="2">
  <advance width="300"/>
  <unicode hex="003B"/>
  <outline>
    <contour>
      <point x="155" y="121" type="qcurve"/>
      <point x="131" y="121"/>
      <point x="109" y="102" type="qcurve" smooth="yes"/>
      <point x="87" y="83"/>
      <point x="88" y="57" type="qcurve" smooth="yes"/>
      <point x="89" y="32"/>
      <point x="102.5" y="16.5" type="qcurve" smooth="yes"/>
      <point x="116" y="1"/>
      <point x="131" y="-3" type="qcurve" smooth="yes"/>
      <point x="138" y="-5"/>
      <point x="148" y="-1.5" type="qcurve" smooth="yes"/>
      <point x="158" y="2"/>
      <point x="162.5" y="4" type="qcurve" smooth="yes"/>
      <point x="167" y="6"/>
      <point x="169" y="3" type="qcurve" smooth="yes"/>
      <point x="172" y="-16"/>
      <point x="160" y="-43.5" type="qcurve" smooth="yes"/>
      <point x="148" y="-71"/>
      <point x="139" y="-83" type="qcurve" smooth="yes"/>
      <point x="116" y="-112"/>
      <point x="71" y="-144" type="qcurve"/>
      <point x="94" y="-177" type="line"/>
      <point x="109" y="-166"/>
      <point x="133" y="-145.5" type="qcurve" smooth="yes"/>
      <point x="157" y="-125"/>
      <point x="169" y="-116" type="qcurve" smooth="yes"/>
      <point x="194" y="-98"/>
      <point x="221" y="-27" type="qcurve" smooth="yes"/>
      <point x="226" y="-14"/>
      <point x="227.5" y="14.5" type="qcurve" smooth="yes"/>
      <point x="229" y="43"/>
      <point x="223" y="66" type="qcurve" smooth="yes"/>
      <point x="221" y="71" type="line" smooth="yes"/>
      <point x="219" y="76"/>
      <point x="217.5" y="79.5" type="qcurve" smooth="yes"/>
      <point x="216" y="83"/>
      <point x="212" y="89.5" type="qcurve" smooth="yes"/>
      <point x="208" y="96"/>
      <point x="203" y="101" type="qcurve" smooth="yes"/>
      <point x="198" y="106"/>
      <point x="191.5" y="110.5" type="qcurve" smooth="yes"/>
      <point x="185" y="115"/>
      <point x="175.5" y="118" type="qcurve" smooth="yes"/>
      <point x="166" y="121"/>
    </contour>
    <contour>
      <point x="221" y="380" type="qcurve" smooth="yes"/>
      <point x="222" y="406"/>
      <point x="204.5" y="427" type="qcurve" smooth="yes"/>
      <point x="187" y="448"/>
      <point x="155" y="448" type="qcurve" smooth="yes"/>
      <point x="124" y="448"/>
      <point x="106.5" y="426" type="qcurve" smooth="yes"/>
      <point x="89" y="404"/>
      <point x="89" y="380" type="qcurve" smooth="yes"/>
      <point x="89" y="363"/>
      <point x="106.5" y="339.5" type="qcurve" smooth="yes"/>
      <point x="124" y="316"/>
      <point x="154" y="317" type="qcurve" smooth="yes"/>
      <point x="186" y="318"/>
      <point x="203" y="336.5" type="qcurve" smooth="yes"/>
      <point x="220" y="355"/>
    </contour>
  </outline>
</glyph>
<glyph name="less" format="2">
  <advance width="550"/>
  <unicode hex="003C"/>
  <outline>
    <contour>
      <point x="495" y="596" type="line"/>
      <point x="27" y="373" type="line"/>
      <point x="35" y="299" type="line"/>
      <point x="495" y="78" type="line"/>
      <point x="491" y="126" type="line"/>
      <point x="84" y="336" type="line"/>
      <point x="501" y="542" type="line"/>
    </contour>
  </outline>
</glyph>
<glyph name="equal" format="2">
  <advance width="600"/>
  <unicode hex="003D"/>
  <outline>
    <contour>
      <point x="537" y="472" type="line"/>
      <point x="485" y="472" type="line"/>
      <point x="314" y="472" type="line"/>
      <point x="83" y="472" type="line"/>
      <point x="83" y="422" type="line"/>
      <point x="252" y="422" type="line"/>
      <point x="537" y="422" type="line"/>
    </contour>
    <contour>
      <point x="537" y="303" type="line"/>
      <point x="527" y="302"/>
      <point x="379" y="302" type="qcurve" smooth="yes"/>
      <point x="265" y="302" type="line" smooth="yes"/>
      <point x="264" y="302"/>
      <point x="240" y="302" type="qcurve" smooth="yes"/>
      <point x="216" y="302"/>
      <point x="189.5" y="302" type="qcurve" smooth="yes"/>
      <point x="163" y="302"/>
      <point x="132" y="302" type="qcurve" smooth="yes"/>
      <point x="101" y="302"/>
      <point x="83" y="302" type="qcurve"/>
      <point x="84" y="251" type="line"/>
      <point x="121" y="252"/>
      <point x="212" y="252" type="qcurve" smooth="yes"/>
      <point x="240" y="252" type="line" smooth="yes"/>
      <point x="268" y="252"/>
      <point x="307" y="252.5" type="qcurve" smooth="yes"/>
      <point x="346" y="253"/>
      <point x="389.5" y="253" type="qcurve" smooth="yes"/>
      <point x="433" y="253"/>
      <point x="474" y="253" type="qcurve" smooth="yes"/>
      <point x="515" y="253"/>
      <point x="538" y="252" type="qcurve"/>
    </contour>
  </outline>
</glyph>
<glyph name="greater" format="2">
  <advance width="500"/>
  <unicode hex="003E"/>
  <outline>
    <contour>
      <point x="33" y="78" type="line"/>
      <point x="501" y="301" type="line"/>
      <point x="493" y="375" type="line"/>
      <point x="33" y="596" type="line"/>
      <point x="37" y="548" type="line"/>
      <point x="444" y="338" type="line"/>
      <point x="27" y="132" type="line"/>
    </contour>
  </outline>
</glyph>
<glyph name="question" format="2">
  <advance width="372.672866310836"/>
  <unicode hex="003F"/>
  <outline>
    <contour>
      <point x="96.54653272002102" y="779" type="curve"/>
      <point x="90.54653272002102" y="778" type="line"/>
      <point x="69.54653272002102" y="774"/>
      <point x="22.54653272002102" y="730"/>
      <point x="71.54653272002102" y="679" type="curve"/>
      <point x="108.54653272002102" y="653"/>
      <point x="170.54653272002102" y="699"/>
      <point x="211.54653272002102" y="673" type="curve" smooth="yes"/>
      <point x="258.546532720021" y="643"/>
      <point x="284.546532720021" y="575"/>
      <point x="251.54653272002102" y="511" type="curve" smooth="yes"/>
      <point x="233.54653272002102" y="476"/>
      <point x="178.54653272002102" y="460"/>
      <point x="107.54653272002102" y="466" type="curve" smooth="yes"/>
      <point x="106.54653272002102" y="466"/>
      <point x="106.54653272002102" y="291"/>
      <point x="106.54653272002102" y="237" type="curve" smooth="yes"/>
      <point x="106.54653272002102" y="237"/>
      <point x="161.54653272002102" y="237"/>
      <point x="161.54653272002102" y="237" type="curve" smooth="yes"/>
      <point x="162.54653272002102" y="251"/>
      <point x="160.54653272002102" y="369"/>
      <point x="161.54653272002102" y="369" type="curve" smooth="yes"/>
      <point x="217.54653272002102" y="375"/>
      <point x="246.54653272002102" y="384"/>
      <point x="274.546532720021" y="402" type="curve" smooth="yes"/>
      <point x="302.546532720021" y="420"/>
      <point x="324.546532720021" y="490"/>
      <point x="322.546532720021" y="533" type="curve" smooth="yes"/>
      <point x="314.546532720021" y="669"/>
      <point x="245.54653272002102" y="716"/>
      <point x="212.54653272002102" y="747" type="curve" smooth="yes"/>
      <point x="195.54653272002102" y="763"/>
      <point x="139.54653272002102" y="787"/>
    </contour>
    <contour>
      <point x="129.54653272002102" y="122" type="curve"/>
      <point x="167.54653272002102" y="121"/>
      <point x="195.54653272002102" y="91"/>
      <point x="196.54653272002102" y="59" type="curve" smooth="yes"/>
      <point x="197.54653272002102" y="18"/>
      <point x="168.54653272002102" y="-10"/>
      <point x="131.54653272002102" y="-10" type="curve" smooth="yes"/>
      <point x="82.54653272002102" y="-10"/>
      <point x="65.54653272002102" y="31"/>
      <point x="64.54653272002102" y="60" type="curve" smooth="yes"/>
      <point x="64.54653272002102" y="83"/>
      <point x="91.54653272002102" y="119"/>
    </contour>
  </outline>
</glyph>
<glyph name="at" format="2">
  <advance width="1000"/>
  <unicode hex="0040"/>
  <outline>
    <contour>
      <point x="788" y="530" type="qcurve"/>
      <point x="693" y="530" type="line"/>
      <point x="669" y="441" type="line"/>
      <point x="660" y="470"/>
      <point x="647.5" y="490" type="qcurve" smooth="yes"/>
      <point x="635" y="510"/>
      <point x="618.5" y="520" type="qcurve" smooth="yes"/>
      <point x="602" y="530"/>
      <point x="596.5" y="532" type="qcurve" smooth="yes"/>
      <point x="591" y="534"/>
      <point x="577" y="538" type="qcurve" smooth="yes"/>
      <point x="511" y="555"/>
      <point x="435.5" y="503" type="qcurve" smooth="yes"/>
      <point x="360" y="451"/>
      <point x="337" y="413" type="qcurve" smooth="yes"/>
      <point x="330" y="401.5" type="line" smooth="yes"/>
      <point x="323" y="390"/>
      <point x="319.5" y="383" type="qcurve" smooth="yes"/>
      <point x="316" y="376"/>
      <point x="308" y="360" type="qcurve" smooth="yes"/>
      <point x="300" y="344"/>
      <point x="296" y="332" type="qcurve" smooth="yes"/>
      <point x="292" y="320"/>
      <point x="287" y="301" type="qcurve" smooth="yes"/>
      <point x="282" y="282"/>
      <point x="281.5" y="266" type="qcurve" smooth="yes"/>
      <point x="281" y="250"/>
      <point x="282" y="230" type="qcurve" smooth="yes"/>
      <point x="283" y="210"/>
      <point x="289" y="192" type="qcurve" smooth="yes"/>
      <point x="295" y="174"/>
      <point x="306.5" y="154" type="qcurve" smooth="yes"/>
      <point x="318" y="134"/>
      <point x="334" y="116" type="qcurve" smooth="yes"/>
      <point x="362" y="86"/>
      <point x="410.5" y="79" type="qcurve" smooth="yes"/>
      <point x="459" y="72"/>
      <point x="518" y="105" type="qcurve" smooth="yes"/>
      <point x="536" y="117"/>
      <point x="552" y="131" type="qcurve" smooth="yes"/>
      <point x="568" y="145"/>
      <point x="577" y="155.5" type="qcurve" smooth="yes"/>
      <point x="586" y="166"/>
      <point x="592.5" y="175" type="qcurve" smooth="yes"/>
      <point x="599" y="184"/>
      <point x="601.5" y="188" type="qcurve" smooth="yes"/>
      <point x="604" y="192"/>
      <point x="605" y="191" type="qcurve" smooth="yes"/>
      <point x="606" y="189"/>
      <point x="610" y="173.5" type="qcurve" smooth="yes"/>
      <point x="614" y="158"/>
      <point x="618.5" y="146.5" type="qcurve" smooth="yes"/>
      <point x="623" y="135"/>
      <point x="630.5" y="120" type="qcurve" smooth="yes"/>
      <point x="638" y="105"/>
      <point x="649" y="95.5" type="qcurve" smooth="yes"/>
      <point x="660" y="86"/>
      <point x="674" y="83" type="qcurve" smooth="yes"/>
      <point x="796" y="55"/>
      <point x="900" y="195" type="qcurve" smooth="yes"/>
      <point x="914" y="214"/>
      <point x="940" y="287.5" type="qcurve" smooth="yes"/>
      <point x="966" y="361"/>
      <point x="969" y="389" type="qcurve" smooth="yes"/>
      <point x="979" y="484"/>
      <point x="931" y="575.5" type="qcurve" smooth="yes"/>
      <point x="883" y="667"/>
      <point x="833" y="702" type="qcurve" smooth="yes"/>
      <point x="780" y="739"/>
      <point x="722.5" y="756" type="qcurve" smooth="yes"/>
      <point x="665" y="773"/>
      <point x="574" y="779" type="qcurve" smooth="yes"/>
      <point x="468" y="786"/>
      <point x="348" y="735" type="qcurve" smooth="yes"/>
      <point x="226" y="683"/>
      <point x="152" y="588" type="qcurve" smooth="yes"/>
      <point x="56" y="465"/>
      <point x="52" y="327" type="qcurve" smooth="yes"/>
      <point x="51" y="260"/>
      <point x="61.5" y="206" type="qcurve" smooth="yes"/>
      <point x="72" y="152"/>
      <point x="95.5" y="110" type="qcurve" smooth="yes"/>
      <point x="119" y="68"/>
      <point x="140.5" y="41.5" type="qcurve" smooth="yes"/>
      <point x="162" y="15"/>
      <point x="197" y="-20" type="qcurve" smooth="yes"/>
      <point x="232" y="-54"/>
      <point x="322" y="-92.5" type="qcurve" smooth="yes"/>
      <point x="412" y="-131"/>
      <point x="503" y="-135" type="qcurve" smooth="yes"/>
      <point x="593" y="-139"/>
      <point x="684.5" y="-116" type="qcurve" smooth="yes"/>
      <point x="776" y="-93"/>
      <point x="886" y="-18" type="qcurve"/>
      <point x="867" y="15" type="line"/>
      <point x="825" y="-12" type="line"/>
      <point x="759" y="-56"/>
      <point x="644.5" y="-77.5" type="qcurve" smooth="yes"/>
      <point x="530" y="-99"/>
      <point x="448" y="-77" type="qcurve" smooth="yes"/>
      <point x="297" y="-36"/>
      <point x="246" y="23" type="qcurve" smooth="yes"/>
      <point x="129" y="157"/>
      <point x="142" y="336" type="qcurve" smooth="yes"/>
      <point x="144" y="363"/>
      <point x="169" y="440.5" type="qcurve" smooth="yes"/>
      <point x="194" y="518"/>
      <point x="223" y="558" type="qcurve" smooth="yes"/>
      <point x="252" y="598"/>
      <point x="293.5" y="633.5" type="qcurve" smooth="yes"/>
      <point x="335" y="669"/>
      <point x="375" y="690" type="qcurve" smooth="yes"/>
      <point x="454" y="732"/>
      <point x="559" y="736" type="qcurve" smooth="yes"/>
      <point x="634" y="739"/>
      <point x="688" y="721.5" type="qcurve" smooth="yes"/>
      <point x="742" y="704"/>
      <point x="805" y="658" type="qcurve" smooth="yes"/>
      <point x="858" y="620"/>
      <point x="886.5" y="566.5" type="qcurve" smooth="yes"/>
      <point x="915" y="513"/>
      <point x="920" y="419" type="qcurve" smooth="yes"/>
      <point x="921" y="392"/>
      <point x="917.5" y="365" type="qcurve" smooth="yes"/>
      <point x="914" y="338"/>
      <point x="907" y="315.5" type="qcurve" smooth="yes"/>
      <point x="900" y="293"/>
      <point x="893.5" y="277.5" type="qcurve" smooth="yes"/>
      <point x="887" y="262"/>
      <point x="879.5" y="247" type="qcurve" smooth="yes"/>
      <point x="872" y="232"/>
      <point x="871" y="230" type="qcurve" smooth="yes"/>
      <point x="863" y="212"/>
      <point x="822.5" y="172" type="qcurve" smooth="yes"/>
      <point x="782" y="132"/>
      <point x="760" y="130" type="qcurve" smooth="yes"/>
      <point x="759" y="130"/>
      <point x="750" y="129" type="qcurve" smooth="yes"/>
      <point x="741" y="128"/>
      <point x="738.5" y="128.5" type="qcurve" smooth="yes"/>
      <point x="736" y="129"/>
      <point x="727" y="129.5" type="qcurve" smooth="yes"/>
      <point x="718" y="130"/>
      <point x="715.5" y="132.5" type="qcurve" smooth="yes"/>
      <point x="713" y="135"/>
      <point x="706.5" y="140" type="qcurve" smooth="yes"/>
      <point x="700" y="145"/>
      <point x="699" y="152.5" type="qcurve" smooth="yes"/>
      <point x="698" y="160"/>
      <point x="696.5" y="171.5" type="qcurve" smooth="yes"/>
      <point x="695" y="183"/>
      <point x="697.5" y="197.5" type="qcurve" smooth="yes"/>
      <point x="700" y="212"/>
      <point x="705" y="232.5" type="qcurve" smooth="yes"/>
      <point x="710" y="253"/>
      <point x="718" y="277" type="qcurve" smooth="yes"/>
      <point x="719" y="280"/>
    </contour>
    <contour>
      <point x="560" y="498" type="qcurve"/>
      <point x="589" y="495"/>
      <point x="606" y="477" type="qcurve" smooth="yes"/>
      <point x="623" y="459"/>
      <point x="628" y="437.5" type="qcurve" smooth="yes"/>
      <point x="633" y="416"/>
      <point x="632" y="386.5" type="qcurve" smooth="yes"/>
      <point x="631" y="357"/>
      <point x="628" y="342.5" type="qcurve" smooth="yes"/>
      <point x="625" y="328"/>
      <point x="622" y="314" type="qcurve" smooth="yes"/>
      <point x="599" y="225"/>
      <point x="532" y="165.5" type="qcurve" smooth="yes"/>
      <point x="465" y="106"/>
      <point x="427" y="124" type="qcurve" smooth="yes"/>
      <point x="354" y="159"/>
      <point x="395" y="318" type="qcurve" smooth="yes"/>
      <point x="399" y="334"/>
      <point x="412" y="361.5" type="qcurve" smooth="yes"/>
      <point x="425" y="389"/>
      <point x="446" y="422" type="qcurve" smooth="yes"/>
      <point x="467" y="455"/>
      <point x="498" y="477.5" type="qcurve" smooth="yes"/>
      <point x="529" y="500"/>
    </contour>
  </outline>
</glyph>
<glyph name="A" format="2">
  <advance width="772"/>
  <unicode hex="0041"/>
  <outline>
    <contour>
      <point x="274" y="547" type="qcurve"/>
      <point x="186" y="322"/>
      <point x="177" y="304" type="qcurve"/>
      <point x="140" y="206"/>
      <point x="114" y="119"/>
      <point x="86" y="59"/>
      <point x="71" y="41"/>
      <point x="6" y="2" type="qcurve"/>
      <point x="254" y="-5"/>
      <point x="234" y="0" type="qcurve" smooth="yes"/>
      <point x="150" y="20"/>
      <point x="154" y="131"/>
      <point x="223" y="281" type="qcurve"/>
      <point x="487" y="279" type="line"/>
      <point x="586" y="84"/>
      <point x="527" y="44" type="qcurve" smooth="yes"/>
      <point x="459" y="-2" type="line"/>
      <point x="765" y="4" type="line"/>
      <point x="724" y="36" type="line"/>
      <point x="664" y="109"/>
      <point x="626" y="218" type="qcurve" smooth="yes"/>
      <point x="595" y="308" type="line"/>
      <point x="569" y="365" type="line" smooth="yes"/>
      <point x="552" y="403"/>
      <point x="544" y="428" type="qcurve"/>
      <point x="525" y="474"/>
      <point x="509" y="515"/>
      <point x="501" y="534" type="qcurve" smooth="yes"/>
      <point x="534" y="449"/>
      <point x="406" y="770" type="qcurve"/>
      <point x="377" y="770"/>
      <point x="365" y="769" type="qcurve"/>
      <point x="364" y="765"/>
      <point x="334" y="713"/>
      <point x="320" y="667" type="qcurve"/>
      <point x="315" y="651"/>
      <point x="293" y="595" type="qcurve" smooth="yes"/>
      <point x="271" y="540"/>
    </contour>
    <contour>
      <point x="466" y="328" type="qcurve"/>
      <point x="242" y="330" type="line"/>
      <point x="269" y="391"/>
      <point x="319" y="536"/>
      <point x="359" y="618" type="qcurve"/>
      <point x="388" y="549"/>
      <point x="427" y="443" type="qcurve" smooth="yes"/>
      <point x="433" y="428"/>
      <point x="457" y="360"/>
    </contour>
  </outline>
</glyph>
<glyph name="B" format="2">
  <advance width="800"/>
  <unicode hex="0042"/>
  <outline>
    <contour>
      <point x="59" y="766" type="line"/>
      <point x="68" y="727" type="line"/>
      <point x="148" y="702" type="line"/>
      <point x="149" y="109" type="line"/>
      <point x="125" y="50" type="line"/>
      <point x="48" y="38" type="line"/>
      <point x="43" y="-5" type="line"/>
      <point x="362" y="-7" type="line"/>
      <point x="457" y="-1" type="line" smooth="yes"/>
      <point x="460" y="-1"/>
      <point x="479" y="-0.5" type="qcurve" smooth="yes"/>
      <point x="498" y="0"/>
      <point x="514" y="2" type="qcurve" smooth="yes"/>
      <point x="530" y="4"/>
      <point x="552" y="7.5" type="qcurve" smooth="yes"/>
      <point x="574" y="11"/>
      <point x="593.5" y="19" type="qcurve" smooth="yes"/>
      <point x="613" y="27"/>
      <point x="627" y="39" type="qcurve" smooth="yes"/>
      <point x="668" y="74"/>
      <point x="698" y="121" type="qcurve" smooth="yes"/>
      <point x="728" y="168"/>
      <point x="719" y="199" type="qcurve" smooth="yes"/>
      <point x="687" y="311" type="line"/>
      <point x="615" y="371" type="line"/>
      <point x="470" y="409" type="line"/>
      <point x="594" y="467" type="line"/>
      <point x="639" y="537" type="line"/>
      <point x="635" y="656" type="line"/>
      <point x="563" y="729" type="line"/>
      <point x="437" y="772" type="line"/>
    </contour>
    <contour>
      <point x="488" y="476" type="qcurve" smooth="yes"/>
      <point x="438" y="446" type="line"/>
      <point x="398" y="433" type="line"/>
      <point x="335" y="424" type="line"/>
      <point x="259" y="426" type="line"/>
      <point x="257" y="717" type="line"/>
      <point x="290" y="726" type="line"/>
      <point x="290" y="728"/>
      <point x="336.5" y="723.5" type="qcurve" smooth="yes"/>
      <point x="383" y="719"/>
      <point x="432" y="708" type="qcurve" smooth="yes"/>
      <point x="481" y="697"/>
      <point x="486" y="684" type="qcurve" smooth="yes"/>
      <point x="486" y="683"/>
      <point x="486.5" y="681" type="qcurve" smooth="yes"/>
      <point x="487" y="679"/>
      <point x="488.5" y="675" type="qcurve" smooth="yes"/>
      <point x="490" y="671"/>
      <point x="493" y="663" type="qcurve" smooth="yes"/>
      <point x="496" y="655"/>
      <point x="504" y="640" type="qcurve" smooth="yes"/>
      <point x="512" y="625"/>
      <point x="524" y="605" type="qcurve" smooth="yes"/>
      <point x="529" y="596"/>
      <point x="515" y="540" type="qcurve" smooth="yes"/>
      <point x="501" y="484"/>
    </contour>
    <contour>
      <point x="267" y="125" type="line"/>
      <point x="267" y="378" type="line"/>
      <point x="342" y="380" type="line"/>
      <point x="431" y="380" type="line"/>
      <point x="502" y="354" type="line"/>
      <point x="577" y="285" type="line"/>
      <point x="582" y="134" type="line"/>
      <point x="509" y="55" type="line"/>
      <point x="388" y="41" type="line"/>
      <point x="291" y="62" type="line"/>
    </contour>
  </outline>
</glyph>
<glyph name="C" format="2">
  <advance width="800"/>
  <unicode hex="0043"/>
  <outline>
    <contour>
      <point x="726" y="540" type="line"/>
      <point x="717" y="771" type="line"/>
      <point x="691" y="773" type="line"/>
      <point x="671" y="712" type="line"/>
      <point x="654" y="719" type="line"/>
      <point x="622" y="735" type="line"/>
      <point x="592" y="750" type="line"/>
      <point x="540" y="766" type="line"/>
      <point x="477" y="781" type="line"/>
      <point x="411" y="782" type="line"/>
      <point x="339" y="770" type="line"/>
      <point x="270" y="744" type="line"/>
      <point x="212" y="709" type="line"/>
      <point x="164" y="665" type="line"/>
      <point x="126" y="619" type="line"/>
      <point x="103" y="578" type="line"/>
      <point x="78" y="519" type="line"/>
      <point x="67" y="467" type="line"/>
      <point x="58" y="422" type="line"/>
      <point x="57" y="380" type="line"/>
      <point x="60" y="338" type="line"/>
      <point x="62" y="299" type="line"/>
      <point x="69" y="260" type="line"/>
      <point x="79" y="220" type="line"/>
      <point x="100" y="180" type="line"/>
      <point x="119" y="140" type="line"/>
      <point x="144" y="108" type="line"/>
      <point x="163" y="85" type="line"/>
      <point x="206" y="54" type="line"/>
      <point x="236" y="35" type="line"/>
      <point x="278" y="19" type="line"/>
      <point x="308" y="5" type="line"/>
      <point x="371" y="-4" type="line"/>
      <point x="429" y="-12" type="line"/>
      <point x="479" y="-9" type="line"/>
      <point x="543" y="5" type="line"/>
      <point x="595" y="21" type="line"/>
      <point x="629" y="38" type="line"/>
      <point x="656" y="58" type="line"/>
      <point x="682" y="77" type="line"/>
      <point x="698" y="37" type="line"/>
      <point x="710" y="6" type="line"/>
      <point x="741" y="2" type="line"/>
      <point x="745" y="252" type="line"/>
      <point x="705" y="250" type="line"/>
      <point x="690" y="213" type="line"/>
      <point x="669" y="169" type="line"/>
      <point x="638" y="122" type="line"/>
      <point x="601" y="81" type="line"/>
      <point x="567" y="66" type="line"/>
      <point x="501" y="48" type="line"/>
      <point x="431" y="45" type="line"/>
      <point x="379" y="55" type="line"/>
      <point x="323" y="75" type="line"/>
      <point x="273" y="119" type="line"/>
      <point x="236" y="170" type="line"/>
      <point x="213" y="227" type="line"/>
      <point x="199" y="290" type="line"/>
      <point x="193" y="338" type="line"/>
      <point x="195" y="401" type="line"/>
      <point x="199" y="459" type="line"/>
      <point x="205" y="497" type="line"/>
      <point x="210" y="525" type="line"/>
      <point x="225" y="568" type="line"/>
      <point x="243" y="603" type="line"/>
      <point x="260" y="632" type="line"/>
      <point x="274" y="649" type="line"/>
      <point x="291" y="666" type="line"/>
      <point x="311" y="686" type="line"/>
      <point x="357" y="711" type="line"/>
      <point x="395" y="724" type="line"/>
      <point x="444" y="727" type="line"/>
      <point x="490" y="726" type="line"/>
      <point x="532" y="718" type="line"/>
      <point x="581" y="690" type="line"/>
      <point x="637" y="650" type="line"/>
      <point x="658" y="618" type="line"/>
      <point x="669" y="597" type="line"/>
      <point x="678" y="580" type="line"/>
      <point x="685" y="560" type="line"/>
      <point x="687" y="541" type="line"/>
      <point x="709" y="540" type="line"/>
    </contour>
  </outline>
</glyph>
<glyph name="D" format="2">
  <advance width="1000"/>
  <unicode hex="0044"/>
  <outline>
    <contour>
      <point x="61" y="768" type="line"/>
      <point x="60" y="730" type="line"/>
      <point x="95" y="726" type="line"/>
      <point x="122" y="721" type="line"/>
      <point x="141" y="712" type="line"/>
      <point x="153" y="693" type="line"/>
      <point x="155" y="670" type="line"/>
      <point x="154" y="660" type="line"/>
      <point x="158" y="592" type="line"/>
      <point x="158" y="565" type="line"/>
      <point x="160" y="142" type="line"/>
      <point x="156" y="67" type="line"/>
      <point x="120" y="49" type="line"/>
      <point x="33" y="37" type="line"/>
      <point x="41" y="2" type="line"/>
      <point x="156" y="-3" type="line"/>
      <point x="209" y="-4" type="line"/>
      <point x="258" y="2" type="line"/>
      <point x="439" y="0" type="line"/>
      <point x="518" y="4" type="line"/>
      <point x="596" y="29" type="line"/>
      <point x="686" y="78" type="line"/>
      <point x="766" y="161" type="line"/>
      <point x="807" y="259" type="line"/>
      <point x="828" y="360" type="line"/>
      <point x="820" y="437" type="line"/>
      <point x="780" y="575" type="line"/>
      <point x="665" y="696" type="line"/>
      <point x="575" y="743" type="line"/>
      <point x="475" y="769" type="line"/>
      <point x="408" y="768" type="line"/>
      <point x="282" y="770" type="line"/>
      <point x="215" y="769" type="line"/>
    </contour>
    <contour>
      <point x="405" y="722" type="line"/>
      <point x="479" y="718" type="line"/>
      <point x="571" y="674" type="line"/>
      <point x="630" y="616" type="line"/>
      <point x="676" y="526" type="line"/>
      <point x="695" y="441" type="line"/>
      <point x="692" y="320" type="line"/>
      <point x="686" y="278" type="line"/>
      <point x="668" y="195" type="line"/>
      <point x="620" y="128" type="line"/>
      <point x="560" y="83" type="line"/>
      <point x="483" y="54" type="line"/>
      <point x="392" y="50" type="line"/>
      <point x="321" y="64" type="line"/>
      <point x="263" y="117" type="line"/>
      <point x="262" y="200" type="line"/>
      <point x="265" y="516" type="line"/>
      <point x="266" y="642" type="line"/>
      <point x="262" y="720" type="line"/>
      <point x="318" y="719" type="line"/>
    </contour>
  </outline>
</glyph>
<glyph name="F" format="2">
  <advance width="700"/>
  <unicode hex="0046"/>
  <outline>
    <contour>
      <point x="632" y="769" type="line"/>
      <point x="493" y="768" type="line"/>
      <point x="396" y="769" type="line"/>
      <point x="332" y="769" type="line"/>
      <point x="248" y="770" type="line"/>
      <point x="145" y="770" type="line"/>
      <point x="61" y="771" type="line"/>
      <point x="56" y="738" type="line"/>
      <point x="120" y="722" type="line"/>
      <point x="168" y="687"/>
      <point x="149" y="636"/>
      <point x="155" y="596" type="curve"/>
      <point x="152" y="445" type="line"/>
      <point x="153" y="380" type="line"/>
      <point x="152" y="326" type="line"/>
      <point x="153" y="269" type="line"/>
      <point x="154" y="240" type="line"/>
      <point x="155" y="207" type="line"/>
      <point x="156" y="183" type="line"/>
      <point x="155" y="160" type="line"/>
      <point x="155" y="141" type="line"/>
      <point x="154" y="110" type="line"/>
      <point x="146" y="75" type="line"/>
      <point x="118" y="48" type="line"/>
      <point x="72" y="40" type="line"/>
      <point x="45" y="38" type="line"/>
      <point x="45" y="0" type="line"/>
      <point x="93" y="0" type="line"/>
      <point x="148" y="0" type="line"/>
      <point x="184" y="0" type="line"/>
      <point x="230" y="0" type="line"/>
      <point x="282" y="-1" type="line"/>
      <point x="400" y="1" type="line"/>
      <point x="400" y="38" type="line"/>
      <point x="364" y="38" type="line"/>
      <point x="316" y="46" type="line"/>
      <point x="286" y="60" type="line"/>
      <point x="268" y="81" type="line"/>
      <point x="261" y="121" type="line"/>
      <point x="259" y="253" type="line"/>
      <point x="257" y="363" type="line"/>
      <point x="291" y="362" type="line"/>
      <point x="339" y="358" type="line"/>
      <point x="375" y="350" type="line"/>
      <point x="407" y="331" type="line"/>
      <point x="427" y="307" type="line"/>
      <point x="443" y="273" type="line"/>
      <point x="451" y="233" type="line"/>
      <point x="483" y="235" type="line"/>
      <point x="484" y="298" type="line"/>
      <point x="484" y="358" type="line"/>
      <point x="484" y="413" type="line"/>
      <point x="485" y="491" type="line"/>
      <point x="484" y="528" type="line"/>
      <point x="450" y="528" type="line"/>
      <point x="447" y="515" type="line"/>
      <point x="441" y="485" type="line"/>
      <point x="428" y="454" type="line"/>
      <point x="390" y="420" type="line"/>
      <point x="359" y="409" type="line"/>
      <point x="312" y="404" type="line"/>
      <point x="262" y="405" type="line"/>
      <point x="260" y="698" type="line"/>
      <point x="262" y="717" type="line"/>
      <point x="289" y="721" type="line"/>
      <point x="343" y="723" type="line"/>
      <point x="387" y="720" type="line"/>
      <point x="426" y="720" type="line"/>
      <point x="477" y="716" type="line"/>
      <point x="542" y="702" type="line"/>
      <point x="577" y="674" type="line"/>
      <point x="596" y="638" type="line"/>
      <point x="604" y="605" type="line"/>
      <point x="609" y="579" type="line"/>
      <point x="644" y="579" type="line"/>
      <point x="642" y="627" type="line"/>
      <point x="636" y="695" type="line"/>
    </contour>
  </outline>
</glyph>
<glyph name="H" format="2">
  <advance width="920"/>
  <unicode hex="0048"/>
  <guideline x="333" y="419" angle="0"/>
  <guideline x="260" y="552" angle="90"/>
  <outline>
    <contour>
      <point x="321" y="730" type="line"/>
      <point x="340" y="731" type="line"/>
      <point x="359" y="732" type="line"/>
      <point x="357" y="768" type="line"/>
      <point x="53" y="772" type="line"/>
      <point x="53" y="730" type="line"/>
      <point x="86" y="728" type="line"/>
      <point x="120" y="722" type="line"/>
      <point x="138" y="707" type="line"/>
      <point x="152" y="679" type="line"/>
      <point x="155" y="611" type="line"/>
      <point x="155" y="422" type="line"/>
      <point x="155" y="270" type="line"/>
      <point x="156" y="128" type="line"/>
      <point x="150" y="85" type="line"/>
      <point x="137" y="62" type="line"/>
      <point x="117" y="49" type="line"/>
      <point x="81" y="40" type="line"/>
      <point x="45" y="38" type="line"/>
      <point x="45" y="-1" type="line"/>
      <point x="261" y="0" type="line"/>
      <point x="369" y="0" type="line"/>
      <point x="369" y="38" type="line"/>
      <point x="330" y="40" type="line"/>
      <point x="309" y="45" type="line"/>
      <point x="284" y="57" type="line"/>
      <point x="268" y="80" type="line"/>
      <point x="261" y="120" type="line"/>
      <point x="261" y="138" type="line"/>
      <point x="261" y="190" type="line"/>
      <point x="261" y="238" type="line"/>
      <point x="261" y="370" type="line"/>
      <point x="364" y="369" type="line"/>
      <point x="464" y="369" type="line"/>
      <point x="665" y="369" type="line"/>
      <point x="663" y="98" type="line"/>
      <point x="652" y="69" type="line"/>
      <point x="630" y="50" type="line"/>
      <point x="600" y="42" type="line"/>
      <point x="556" y="39" type="line"/>
      <point x="555" y="-1" type="line"/>
      <point x="714" y="0" type="line"/>
      <point x="879" y="0" type="line"/>
      <point x="879" y="38" type="line"/>
      <point x="844" y="40" type="line"/>
      <point x="797" y="56" type="line"/>
      <point x="775" y="90" type="line"/>
      <point x="768" y="622" type="line"/>
      <point x="775" y="670" type="line"/>
      <point x="783" y="702" type="line"/>
      <point x="818" y="727" type="line"/>
      <point x="869" y="732" type="line"/>
      <point x="870" y="770" type="line"/>
      <point x="565" y="769" type="line"/>
      <point x="565" y="731" type="line"/>
      <point x="617" y="724" type="line"/>
      <point x="650" y="711" type="line"/>
      <point x="665" y="677" type="line"/>
      <point x="665" y="418" type="line"/>
      <point x="428" y="418" type="line"/>
      <point x="260" y="419" type="line"/>
      <point x="260" y="482" type="line"/>
      <point x="260" y="492" type="line"/>
      <point x="260" y="503" type="line"/>
      <point x="260" y="511" type="line"/>
      <point x="260" y="518" type="line"/>
      <point x="260" y="532" type="line"/>
      <point x="260" y="564" type="line"/>
      <point x="260" y="578" type="line"/>
      <point x="260" y="589" type="line"/>
      <point x="260" y="604" type="line"/>
      <point x="260" y="615" type="line"/>
      <point x="260" y="626" type="line"/>
      <point x="261" y="640" type="line"/>
      <point x="260" y="654" type="line"/>
      <point x="263" y="670" type="line"/>
      <point x="269" y="695" type="line"/>
      <point x="279" y="709" type="line"/>
      <point x="292" y="721" type="line"/>
      <point x="305" y="727" type="line"/>
    </contour>
  </outline>
</glyph>
<glyph name="I" format="2">
  <advance width="500"/>
  <unicode hex="0049"/>
  <outline>
    <contour>
      <point x="132" y="708" type="line"/>
      <point x="139" y="698" type="line"/>
      <point x="146" y="684" type="line"/>
      <point x="150" y="667" type="line"/>
      <point x="153" y="646" type="line"/>
      <point x="154" y="634" type="line"/>
      <point x="154" y="633" type="line"/>
      <point x="155" y="615" type="line"/>
      <point x="155" y="611" type="line"/>
      <point x="155" y="605" type="line"/>
      <point x="155" y="596" type="line"/>
      <point x="155" y="561" type="line"/>
      <point x="155" y="539" type="line"/>
      <point x="155" y="529" type="line"/>
      <point x="155" y="519" type="line"/>
      <point x="155" y="513" type="line"/>
      <point x="155" y="474" type="line"/>
      <point x="155" y="431" type="line"/>
      <point x="155" y="376" type="line"/>
      <point x="155" y="337" type="line"/>
      <point x="155" y="288" type="line"/>
      <point x="155" y="253" type="line"/>
      <point x="155" y="224" type="line"/>
      <point x="155" y="206" type="line"/>
      <point x="155" y="193" type="line"/>
      <point x="155" y="180" type="line"/>
      <point x="155" y="167" type="line"/>
      <point x="151" y="105" type="line"/>
      <point x="149" y="96" type="line"/>
      <point x="146" y="89" type="line"/>
      <point x="143" y="71" type="line"/>
      <point x="141" y="73" type="line"/>
      <point x="138" y="67" type="line"/>
      <point x="130" y="59" type="line"/>
      <point x="117" y="50" type="line"/>
      <point x="99" y="44" type="line"/>
      <point x="80" y="40" type="line"/>
      <point x="62" y="39" type="line"/>
      <point x="45" y="38" type="line"/>
      <point x="45" y="0" type="line"/>
      <point x="69" y="0" type="line"/>
      <point x="88" y="0" type="line"/>
      <point x="124" y="0" type="line"/>
      <point x="167" y="0" type="line"/>
      <point x="222" y="0" type="line"/>
      <point x="253" y="0" type="line"/>
      <point x="286" y="0" type="line"/>
      <point x="321" y="0" type="line"/>
      <point x="369" y="0" type="line"/>
      <point x="369" y="38" type="line"/>
      <point x="351" y="39" type="line"/>
      <point x="332" y="41" type="line"/>
      <point x="311" y="44" type="line"/>
      <point x="295" y="50" type="line"/>
      <point x="280" y="63" type="line"/>
      <point x="268" y="90" type="line"/>
      <point x="263" y="118" type="line"/>
      <point x="260" y="163" type="line"/>
      <point x="260" y="205" type="line"/>
      <point x="260" y="238" type="line"/>
      <point x="260" y="349" type="line"/>
      <point x="260" y="379" type="line"/>
      <point x="260" y="419" type="line"/>
      <point x="260" y="498" type="line"/>
      <point x="260" y="585" type="line"/>
      <point x="261" y="621" type="line"/>
      <point x="262" y="651" type="line"/>
      <point x="268" y="675" type="line"/>
      <point x="276" y="699" type="line"/>
      <point x="284" y="711" type="line"/>
      <point x="302" y="722" type="line"/>
      <point x="317" y="727" type="line"/>
      <point x="334" y="730" type="line"/>
      <point x="359" y="732" type="line"/>
      <point x="359" y="770" type="line"/>
      <point x="340" y="770" type="line"/>
      <point x="317" y="770" type="line"/>
      <point x="277" y="770" type="line"/>
      <point x="244" y="770" type="line"/>
      <point x="222" y="770" type="line"/>
      <point x="199" y="770" type="line"/>
      <point x="173" y="770" type="line"/>
      <point x="149" y="770" type="line"/>
      <point x="118" y="770" type="line"/>
      <point x="103" y="770" type="line"/>
      <point x="83" y="770" type="line"/>
      <point x="55" y="770" type="line"/>
      <point x="55" y="732" type="line"/>
      <point x="70" y="731" type="line"/>
      <point x="83" y="730" type="line"/>
      <point x="101" y="725" type="line"/>
      <point x="113" y="721" type="line"/>
      <point x="122" y="716" type="line"/>
    </contour>
  </outline>
</glyph>
<glyph name="J" format="2">
  <advance width="500"/>
  <unicode hex="004A"/>
  <outline>
    <contour>
      <point x="46" y="768" type="line"/>
      <point x="44" y="731" type="line"/>
      <point x="65" y="731" type="line"/>
      <point x="86" y="725" type="line"/>
      <point x="113" y="720" type="line"/>
      <point x="128" y="707" type="line"/>
      <point x="138" y="688" type="line"/>
      <point x="143" y="659" type="line"/>
      <point x="145" y="631" type="line"/>
      <point x="145" y="607" type="line"/>
      <point x="145" y="564" type="line"/>
      <point x="145" y="537" type="line"/>
      <point x="145" y="503" type="line"/>
      <point x="145" y="470" type="line"/>
      <point x="145" y="434" type="line"/>
      <point x="145" y="409" type="line"/>
      <point x="145" y="384" type="line"/>
      <point x="145" y="363" type="line"/>
      <point x="145" y="339" type="line"/>
      <point x="145" y="309" type="line"/>
      <point x="145" y="277" type="line"/>
      <point x="145" y="249" type="line"/>
      <point x="145" y="209" type="line"/>
      <point x="145" y="176" type="line"/>
      <point x="145" y="122" type="line"/>
      <point x="145" y="10" type="line"/>
      <point x="145" y="-32" type="line"/>
      <point x="144" y="-70" type="line"/>
      <point x="143" y="-94" type="line"/>
      <point x="137" y="-128" type="line"/>
      <point x="128" y="-158" type="line"/>
      <point x="116" y="-181" type="line"/>
      <point x="95" y="-201" type="line"/>
      <point x="71" y="-212" type="line"/>
      <point x="46" y="-210" type="line"/>
      <point x="23" y="-195" type="line"/>
      <point x="6" y="-175" type="line"/>
      <point x="-7" y="-149" type="line"/>
      <point x="-28" y="-119" type="line"/>
      <point x="-55" y="-111" type="line"/>
      <point x="-81" y="-113" type="line"/>
      <point x="-104" y="-131" type="line"/>
      <point x="-111" y="-161" type="line"/>
      <point x="-101" y="-198" type="line"/>
      <point x="-80" y="-225" type="line"/>
      <point x="-25" y="-253" type="line"/>
      <point x="41" y="-260" type="line"/>
      <point x="94" y="-255" type="line"/>
      <point x="144" y="-238" type="line"/>
      <point x="194" y="-197" type="line"/>
      <point x="229" y="-141" type="line"/>
      <point x="244" y="-90" type="line"/>
      <point x="248" y="-30" type="line"/>
      <point x="250" y="50" type="line"/>
      <point x="250" y="138" type="line"/>
      <point x="250" y="193" type="line"/>
      <point x="250" y="262" type="line"/>
      <point x="250" y="312" type="line"/>
      <point x="250" y="372" type="line"/>
      <point x="250" y="446" type="line"/>
      <point x="250" y="504" type="line"/>
      <point x="250" y="564" type="line"/>
      <point x="250" y="616" type="line"/>
      <point x="251" y="651" type="line"/>
      <point x="256" y="684" type="line"/>
      <point x="268" y="709" type="line"/>
      <point x="296" y="726" type="line"/>
      <point x="322" y="729" type="line"/>
      <point x="348" y="731" type="line"/>
      <point x="347" y="771" type="line"/>
      <point x="276" y="771" type="line"/>
      <point x="200" y="771" type="line"/>
      <point x="96" y="771" type="line"/>
    </contour>
  </outline>
</glyph>
<glyph name="K" format="2">
  <advance width="850"/>
  <unicode hex="004B"/>
  <outline>
    <contour>
      <point x="53" y="772" type="line"/>
      <point x="53" y="730" type="line"/>
      <point x="79" y="728" type="line"/>
      <point x="104" y="730" type="line"/>
      <point x="127" y="720" type="line"/>
      <point x="143" y="699" type="line"/>
      <point x="154" y="659" type="line"/>
      <point x="155" y="614" type="line"/>
      <point x="155" y="472" type="line"/>
      <point x="155" y="362" type="line"/>
      <point x="155" y="267" type="line"/>
      <point x="154" y="118" type="line"/>
      <point x="148" y="78" type="line"/>
      <point x="120" y="48" type="line"/>
      <point x="83" y="39" type="line"/>
      <point x="45" y="38" type="line"/>
      <point x="45" y="0" type="line"/>
      <point x="102" y="0" type="line"/>
      <point x="143" y="0" type="line"/>
      <point x="211" y="0" type="line"/>
      <point x="260" y="0" type="line"/>
      <point x="314" y="0" type="line"/>
      <point x="369" y="0" type="line"/>
      <point x="369" y="37" type="line"/>
      <point x="350" y="39" type="line"/>
      <point x="329" y="40" type="line"/>
      <point x="316" y="42" type="line"/>
      <point x="300" y="47" type="line"/>
      <point x="286" y="55" type="line"/>
      <point x="277" y="61" type="line"/>
      <point x="257" y="90"/>
      <point x="260" y="141"/>
      <point x="260" y="152" type="curve"/>
      <point x="260" y="170" type="line"/>
      <point x="260" y="189" type="line"/>
      <point x="260" y="217" type="line"/>
      <point x="260" y="240" type="line"/>
      <point x="260" y="268" type="line"/>
      <point x="260" y="285" type="line"/>
      <point x="329" y="363" type="line"/>
      <point x="446" y="222" type="line"/>
      <point x="543" y="97" type="line"/>
      <point x="567" y="69" type="line"/>
      <point x="548" y="45" type="line"/>
      <point x="510" y="37" type="line"/>
      <point x="483" y="36" type="line"/>
      <point x="486" y="1" type="line"/>
      <point x="796" y="1" type="line"/>
      <point x="792" y="35" type="line"/>
      <point x="763" y="39" type="line"/>
      <point x="737" y="47" type="line"/>
      <point x="704" y="69" type="line"/>
      <point x="672" y="106" type="line"/>
      <point x="571" y="228" type="line"/>
      <point x="481" y="336" type="line"/>
      <point x="431" y="396" type="line"/>
      <point x="394" y="441" type="line"/>
      <point x="507" y="569" type="line"/>
      <point x="599" y="674" type="line"/>
      <point x="624" y="702" type="line"/>
      <point x="650" y="722" type="line"/>
      <point x="686" y="730" type="line"/>
      <point x="715" y="732" type="line"/>
      <point x="711" y="770" type="line"/>
      <point x="473" y="770" type="line"/>
      <point x="477" y="731" type="line"/>
      <point x="498" y="730" type="line"/>
      <point x="519" y="722" type="line"/>
      <point x="530" y="713" type="line"/>
      <point x="527" y="685" type="line"/>
      <point x="376" y="508" type="line"/>
      <point x="261" y="368" type="line"/>
      <point x="262" y="637" type="line"/>
      <point x="264" y="676" type="line"/>
      <point x="272" y="699" type="line"/>
      <point x="285" y="718" type="line"/>
      <point x="305" y="729" type="line"/>
      <point x="329" y="732" type="line"/>
      <point x="360" y="732" type="line"/>
      <point x="360" y="769" type="line"/>
      <point x="142" y="774" type="line"/>
    </contour>
    <contour>
      <point x="343" y="381" type="line"/>
      <point x="343" y="382" type="line"/>
      <point x="344" y="382" type="line"/>
    </contour>
  </outline>
</glyph>
<glyph name="M" format="2">
  <advance width="1100"/>
  <unicode hex="004D"/>
  <guideline x="120" y="770" angle="0"/>
  <outline>
    <contour>
      <point x="55" y="770" type="line"/>
      <point x="55" y="732" type="line"/>
      <point x="70" y="731" type="line"/>
      <point x="89" y="728" type="line"/>
      <point x="104" y="724" type="line"/>
      <point x="117" y="719" type="line"/>
      <point x="129" y="712" type="line"/>
      <point x="138" y="700" type="line"/>
      <point x="148" y="678" type="line"/>
      <point x="155" y="616" type="line"/>
      <point x="155" y="448" type="line"/>
      <point x="155" y="185" type="line"/>
      <point x="153" y="120" type="line"/>
      <point x="146" y="84" type="line"/>
      <point x="132" y="59" type="line"/>
      <point x="109" y="46" type="line"/>
      <point x="80" y="40" type="line"/>
      <point x="45" y="38" type="line"/>
      <point x="45" y="0" type="line"/>
      <point x="196" y="0" type="line"/>
      <point x="324" y="0" type="line"/>
      <point x="324" y="38" type="line"/>
      <point x="289" y="40" type="line"/>
      <point x="260" y="46" type="line"/>
      <point x="245" y="54" type="line"/>
      <point x="234" y="65" type="line"/>
      <point x="226" y="81" type="line"/>
      <point x="223" y="91" type="line"/>
      <point x="218" y="118" type="line"/>
      <point x="215" y="161" type="line"/>
      <point x="215" y="251" type="line"/>
      <point x="214" y="425" type="line"/>
      <point x="215" y="505" type="line"/>
      <point x="219" y="642" type="line"/>
      <point x="251" y="568" type="line"/>
      <point x="278" y="503" type="line"/>
      <point x="299" y="458" type="line"/>
      <point x="317" y="423" type="line"/>
      <point x="343" y="362" type="line"/>
      <point x="364" y="313"/>
      <point x="366" y="310" type="qcurve"/>
      <point x="377" y="285" type="line"/>
      <point x="403" y="227" type="line"/>
      <point x="414" y="199" type="line"/>
      <point x="424" y="176" type="line"/>
      <point x="433" y="156" type="line"/>
      <point x="445" y="129" type="line"/>
      <point x="467" y="80" type="line"/>
      <point x="506" y="-10" type="line"/>
      <point x="528" y="-10" type="line"/>
      <point x="555" y="51" type="line"/>
      <point x="573" y="91" type="line"/>
      <point x="586" y="120" type="line"/>
      <point x="600" y="151" type="line"/>
      <point x="612" y="179" type="line"/>
      <point x="618" y="192" type="line"/>
      <point x="624" y="206" type="line"/>
      <point x="635" y="230" type="line"/>
      <point x="687" y="348" type="line"/>
      <point x="709" y="396" type="line"/>
      <point x="747" y="481" type="line"/>
      <point x="773" y="533" type="line"/>
      <point x="784" y="561"/>
      <point x="820" y="644" type="qcurve"/>
      <point x="830" y="642" type="line"/>
      <point x="832" y="554"/>
      <point x="832" y="482" type="qcurve"/>
      <point x="831" y="452" type="line"/>
      <point x="831" y="345" type="line"/>
      <point x="830" y="237" type="line"/>
      <point x="829" y="140" type="line"/>
      <point x="828" y="110"/>
      <point x="822" y="90" type="qcurve" smooth="yes"/>
      <point x="816" y="70"/>
      <point x="806" y="61" type="qcurve" smooth="yes"/>
      <point x="796" y="52"/>
      <point x="788" y="48" type="qcurve" smooth="yes"/>
      <point x="780" y="44"/>
      <point x="770.5" y="42.5" type="qcurve" smooth="yes"/>
      <point x="761" y="41"/>
      <point x="760" y="41" type="qcurve"/>
      <point x="721" y="38" type="line"/>
      <point x="719" y="-1" type="line"/>
      <point x="1042" y="1" type="line"/>
      <point x="1041" y="34" type="line"/>
      <point x="1010" y="41" type="line"/>
      <point x="988" y="46" type="line"/>
      <point x="964" y="52" type="line"/>
      <point x="940" y="88" type="line"/>
      <point x="936" y="165" type="line"/>
      <point x="934" y="626" type="line"/>
      <point x="937" y="666" type="line"/>
      <point x="950" y="699" type="line"/>
      <point x="975" y="722" type="line"/>
      <point x="1008" y="731" type="line"/>
      <point x="1034" y="732" type="line"/>
      <point x="1034" y="770" type="line"/>
      <point x="809" y="769" type="line"/>
      <point x="550" y="175" type="line"/>
      <point x="429" y="455" type="line"/>
      <point x="385" y="560" type="line"/>
      <point x="294" y="770" type="line"/>
      <point x="273" y="770" type="line"/>
      <point x="234" y="770" type="line"/>
      <point x="209" y="770" type="line"/>
      <point x="194" y="770" type="line"/>
      <point x="171" y="770" type="line"/>
      <point x="143" y="770" type="line"/>
      <point x="96" y="770" type="line"/>
    </contour>
  </outline>
</glyph>
<glyph name="N" format="2">
  <advance width="900"/>
  <unicode hex="004E"/>
  <outline>
    <contour>
      <point x="254" y="770" type="line"/>
      <point x="237" y="770" type="line"/>
      <point x="216" y="770" type="line"/>
      <point x="195" y="770" type="line"/>
      <point x="166" y="770" type="line"/>
      <point x="138" y="770" type="line"/>
      <point x="110" y="770" type="line"/>
      <point x="84" y="770" type="line"/>
      <point x="55" y="770" type="line"/>
      <point x="55" y="732" type="line"/>
      <point x="67" y="731" type="line"/>
      <point x="83" y="729" type="line"/>
      <point x="98" y="726" type="line"/>
      <point x="108" y="723" type="line"/>
      <point x="115.5" y="720" type="line" smooth="yes"/>
      <point x="123" y="717"/>
      <point x="125" y="715" type="qcurve" smooth="yes"/>
      <point x="127" y="713"/>
      <point x="133.5" y="707" type="qcurve" smooth="yes"/>
      <point x="140" y="701"/>
      <point x="142.5" y="691.5" type="qcurve" smooth="yes"/>
      <point x="145" y="682"/>
      <point x="149" y="668" type="qcurve" smooth="yes"/>
      <point x="153" y="654"/>
      <point x="154" y="632.5" type="qcurve" smooth="yes"/>
      <point x="155" y="611"/>
      <point x="155" y="584" type="qcurve"/>
      <point x="155" y="460" type="line"/>
      <point x="155" y="312" type="line"/>
      <point x="155" y="256" type="line"/>
      <point x="156" y="190" type="line"/>
      <point x="154" y="129" type="line"/>
      <point x="148" y="94" type="line"/>
      <point x="140" y="72" type="line"/>
      <point x="125" y="55" type="line"/>
      <point x="102" y="44" type="line"/>
      <point x="72" y="40" type="line"/>
      <point x="45" y="37" type="line"/>
      <point x="45" y="1" type="line"/>
      <point x="192" y="0" type="line"/>
      <point x="314" y="0" type="line"/>
      <point x="314" y="38" type="line"/>
      <point x="290" y="39" type="line"/>
      <point x="260" y="44" type="line"/>
      <point x="245" y="52" type="line"/>
      <point x="235" y="61" type="line"/>
      <point x="227" y="75" type="line"/>
      <point x="222" y="90" type="line"/>
      <point x="218" y="112" type="line"/>
      <point x="216" y="171" type="line"/>
      <point x="215" y="485" type="line"/>
      <point x="215" y="530" type="line"/>
      <point x="215" y="616" type="line"/>
      <point x="219" y="616" type="line"/>
      <point x="280" y="535" type="line"/>
      <point x="310" y="496" type="line"/>
      <point x="327" y="473" type="line"/>
      <point x="340" y="457" type="line"/>
      <point x="353" y="440" type="line"/>
      <point x="375" y="412" type="line"/>
      <point x="400" y="375" type="line"/>
      <point x="452" y="309" type="line"/>
      <point x="473" y="282" type="line"/>
      <point x="498" y="247" type="line"/>
      <point x="530" y="207" type="line"/>
      <point x="562" y="164" type="line"/>
      <point x="589" y="132" type="line"/>
      <point x="615" y="95" type="line"/>
      <point x="642" y="59" type="line"/>
      <point x="671" y="20" type="line"/>
      <point x="694" y="-11" type="line"/>
      <point x="755" y="-11" type="line"/>
      <point x="755" y="45" type="line"/>
      <point x="754" y="151" type="line"/>
      <point x="754" y="234" type="line"/>
      <point x="754" y="256" type="line"/>
      <point x="755" y="288" type="line"/>
      <point x="754" y="320" type="line"/>
      <point x="755" y="351" type="line"/>
      <point x="754" y="404" type="line"/>
      <point x="754" y="458" type="line"/>
      <point x="753" y="506" type="line"/>
      <point x="754" y="611" type="line"/>
      <point x="759" y="669" type="line"/>
      <point x="768" y="699" type="line"/>
      <point x="780" y="713" type="line"/>
      <point x="800" y="723" type="line"/>
      <point x="818" y="727" type="line"/>
      <point x="839" y="731" type="line"/>
      <point x="864" y="732" type="line"/>
      <point x="863" y="770" type="line"/>
      <point x="594" y="770" type="line"/>
      <point x="595" y="732" type="line"/>
      <point x="638" y="728" type="line"/>
      <point x="666" y="718" type="line"/>
      <point x="681" y="699" type="line"/>
      <point x="688" y="672" type="line"/>
      <point x="694" y="630" type="line"/>
      <point x="694" y="423" type="line"/>
      <point x="694" y="186" type="line"/>
      <point x="688" y="186" type="line"/>
      <point x="579" y="335" type="line"/>
    </contour>
  </outline>
</glyph>
<glyph name="P" format="2">
  <advance width="700"/>
  <unicode hex="0050"/>
  <outline>
    <contour>
      <point x="55" y="770" type="line"/>
      <point x="55" y="732" type="line"/>
      <point x="76" y="730" type="line"/>
      <point x="101" y="727" type="line"/>
      <point x="126" y="718" type="line"/>
      <point x="140" y="705" type="line"/>
      <point x="149" y="689" type="line"/>
      <point x="153" y="666" type="line"/>
      <point x="155" y="642" type="line"/>
      <point x="154" y="610" type="line"/>
      <point x="153" y="383" type="line"/>
      <point x="154" y="228" type="line"/>
      <point x="156" y="134" type="line"/>
      <point x="151" y="91" type="line"/>
      <point x="142" y="68" type="line"/>
      <point x="127" y="54" type="line"/>
      <point x="112" y="47" type="line"/>
      <point x="97" y="43" type="line"/>
      <point x="66" y="39" type="line"/>
      <point x="45" y="38" type="line"/>
      <point x="45" y="0" type="line"/>
      <point x="223" y="0" type="line"/>
      <point x="398" y="0" type="line"/>
      <point x="398" y="38" type="line"/>
      <point x="361" y="39" type="line"/>
      <point x="337" y="41" type="line"/>
      <point x="310" y="46" type="line"/>
      <point x="290" y="55" type="line"/>
      <point x="276" y="67" type="line"/>
      <point x="267" y="85" type="line"/>
      <point x="260" y="120" type="line"/>
      <point x="260" y="232" type="line"/>
      <point x="260" y="350" type="line"/>
      <point x="290" y="350" type="line"/>
      <point x="357" y="350" type="line"/>
      <point x="408" y="352" type="line"/>
      <point x="449" y="357" type="line"/>
      <point x="489" y="365" type="line"/>
      <point x="533" y="379" type="line"/>
      <point x="590" y="412" type="line"/>
      <point x="621" y="442" type="line"/>
      <point x="645" y="483" type="line"/>
      <point x="654" y="530" type="line"/>
      <point x="659" y="584" type="line"/>
      <point x="650" y="636" type="line"/>
      <point x="619" y="688" type="line"/>
      <point x="581" y="720" type="line"/>
      <point x="532" y="747" type="line"/>
      <point x="485" y="762" type="line"/>
      <point x="446" y="769" type="line"/>
      <point x="378" y="772" type="line"/>
      <point x="314" y="770" type="line"/>
      <point x="228" y="770" type="line"/>
      <point x="150" y="770" type="line"/>
      <point x="98" y="770" type="line"/>
    </contour>
    <contour>
      <point x="374" y="723" type="line"/>
      <point x="417" y="719" type="line"/>
      <point x="449" y="711" type="line"/>
      <point x="473" y="700" type="line"/>
      <point x="493" y="683" type="line"/>
      <point x="508" y="663" type="line"/>
      <point x="520" y="635" type="line"/>
      <point x="527" y="599" type="line"/>
      <point x="528" y="568" type="line"/>
      <point x="527" y="536" type="line"/>
      <point x="521" y="504" type="line"/>
      <point x="507" y="469" type="line"/>
      <point x="489" y="447" type="line"/>
      <point x="458" y="424" type="line"/>
      <point x="429" y="414" type="line"/>
      <point x="396" y="405" type="line"/>
      <point x="367" y="401" type="line"/>
      <point x="306" y="400" type="line"/>
      <point x="260" y="400" type="line"/>
      <point x="260" y="708" type="line"/>
      <point x="264" y="720" type="line"/>
      <point x="286" y="724" type="line"/>
    </contour>
  </outline>
</glyph>
<glyph name="T" format="2">
  <advance width="800"/>
  <unicode hex="0054"/>
  <outline>
    <contour>
      <point x="775" y="769" type="qcurve"/>
      <point x="681" y="774"/>
      <point x="573.5" y="774" type="qcurve" smooth="yes"/>
      <point x="466" y="774"/>
      <point x="297" y="771.5" type="qcurve" smooth="yes"/>
      <point x="128" y="769"/>
      <point x="21" y="769" type="qcurve"/>
      <point x="20" y="767"/>
      <point x="20" y="740.5" type="qcurve" smooth="yes"/>
      <point x="20" y="714"/>
      <point x="20.5" y="684.5" type="qcurve" smooth="yes"/>
      <point x="21" y="655"/>
      <point x="20" y="632" type="qcurve"/>
      <point x="21" y="577" type="line"/>
      <point x="58" y="577" type="line"/>
      <point x="60" y="607"/>
      <point x="67" y="631" type="qcurve" smooth="yes"/>
      <point x="74" y="655"/>
      <point x="81" y="670.5" type="qcurve" smooth="yes"/>
      <point x="88" y="686"/>
      <point x="101.5" y="697" type="qcurve" smooth="yes"/>
      <point x="115" y="708"/>
      <point x="123" y="713.5" type="qcurve" smooth="yes"/>
      <point x="131" y="719"/>
      <point x="149" y="722" type="qcurve" smooth="yes"/>
      <point x="167" y="725"/>
      <point x="173" y="725.5" type="qcurve" smooth="yes"/>
      <point x="179" y="726"/>
      <point x="197.5" y="725.5" type="qcurve" smooth="yes"/>
      <point x="216" y="725"/>
      <point x="218" y="725" type="qcurve"/>
      <point x="230" y="725"/>
      <point x="248" y="726" type="qcurve" smooth="yes"/>
      <point x="266" y="727"/>
      <point x="276" y="727" type="qcurve" smooth="yes"/>
      <point x="286" y="727"/>
      <point x="299" y="726.5" type="qcurve" smooth="yes"/>
      <point x="312" y="726"/>
      <point x="319" y="723.5" type="qcurve" smooth="yes"/>
      <point x="326" y="721"/>
      <point x="333" y="715.5" type="qcurve" smooth="yes"/>
      <point x="340" y="710"/>
      <point x="342.5" y="701" type="qcurve" smooth="yes"/>
      <point x="345" y="692"/>
      <point x="344" y="679" type="qcurve"/>
      <point x="343" y="516" type="line"/>
      <point x="343" y="366" type="line"/>
      <point x="342" y="265" type="line"/>
      <point x="342" y="165" type="line"/>
      <point x="342" y="157" type="line"/>
      <point x="342" y="153"/>
      <point x="341" y="140" type="qcurve" smooth="yes"/>
      <point x="340" y="127"/>
      <point x="339" y="120.5" type="qcurve" smooth="yes"/>
      <point x="338" y="114"/>
      <point x="335.5" y="103.5" type="qcurve" smooth="yes"/>
      <point x="333" y="93"/>
      <point x="329.5" y="85" type="qcurve" smooth="yes"/>
      <point x="326" y="77"/>
      <point x="320" y="70" type="qcurve" smooth="yes"/>
      <point x="292" y="37"/>
      <point x="212" y="38" type="qcurve"/>
      <point x="212" y="0" type="line"/>
      <point x="590" y="0" type="line"/>
      <point x="590" y="20" type="line"/>
      <point x="590" y="38" type="line"/>
      <point x="579.5" y="38" type="line" smooth="yes"/>
      <point x="569" y="38"/>
      <point x="564" y="38.5" type="qcurve" smooth="yes"/>
      <point x="559" y="39"/>
      <point x="547" y="40.5" type="qcurve" smooth="yes"/>
      <point x="535" y="42"/>
      <point x="527.5" y="44.5" type="qcurve" smooth="yes"/>
      <point x="520" y="47"/>
      <point x="509" y="51.5" type="qcurve" smooth="yes"/>
      <point x="498" y="56"/>
      <point x="491" y="63" type="qcurve" smooth="yes"/>
      <point x="484" y="70"/>
      <point x="477" y="78.5" type="qcurve" smooth="yes"/>
      <point x="470" y="87"/>
      <point x="466" y="100" type="qcurve" smooth="yes"/>
      <point x="462" y="113"/>
      <point x="462" y="128" type="qcurve"/>
      <point x="461" y="177" type="line"/>
      <point x="461" y="393" type="line" smooth="yes"/>
      <point x="460" y="458"/>
      <point x="460" y="515" type="qcurve"/>
      <point x="460" y="629" type="line"/>
      <point x="460" y="704" type="line"/>
      <point x="470" y="721"/>
      <point x="509" y="725.5" type="qcurve" smooth="yes"/>
      <point x="548" y="730"/>
      <point x="626" y="724" type="qcurve"/>
      <point x="627" y="724"/>
      <point x="643" y="721.5" type="qcurve" smooth="yes"/>
      <point x="659" y="719"/>
      <point x="673" y="712.5" type="qcurve" smooth="yes"/>
      <point x="687" y="706"/>
      <point x="704" y="692.5" type="qcurve" smooth="yes"/>
      <point x="721" y="679"/>
      <point x="732" y="649.5" type="qcurve" smooth="yes"/>
      <point x="743" y="620"/>
      <point x="745" y="579" type="qcurve"/>
      <point x="785" y="581" type="line"/>
      <point x="784" y="610"/>
    </contour>
  </outline>
</glyph>
<glyph name="U" format="2">
  <advance width="880"/>
  <unicode hex="0055"/>
  <outline>
    <contour>
      <point x="542" y="769" type="curve"/>
      <point x="542" y="732" type="line"/>
      <point x="572" y="730"/>
      <point x="641" y="743"/>
      <point x="652" y="667" type="curve" smooth="yes"/>
      <point x="668" y="555"/>
      <point x="659" y="547"/>
      <point x="663" y="419" type="curve"/>
      <point x="663" y="386"/>
      <point x="664" y="373"/>
      <point x="662" y="293" type="curve"/>
      <point x="664" y="230"/>
      <point x="659" y="138"/>
      <point x="596" y="93" type="curve"/>
      <point x="563" y="43"/>
      <point x="390" y="33"/>
      <point x="317" y="95" type="curve"/>
      <point x="272" y="124"/>
      <point x="251" y="214"/>
      <point x="260" y="387" type="curve"/>
      <point x="259" y="416"/>
      <point x="261" y="515"/>
      <point x="262" y="622" type="curve"/>
      <point x="263" y="640"/>
      <point x="246" y="745"/>
      <point x="371" y="732" type="curve"/>
      <point x="371" y="757"/>
      <point x="370" y="754"/>
      <point x="370" y="769" type="curve"/>
      <point x="322" y="770"/>
      <point x="40" y="766"/>
      <point x="29" y="774" type="curve"/>
      <point x="29" y="751"/>
      <point x="27" y="745"/>
      <point x="33" y="730" type="curve"/>
      <point x="107" y="730"/>
      <point x="131" y="727"/>
      <point x="139" y="638" type="curve"/>
      <point x="139" y="527"/>
      <point x="142" y="395"/>
      <point x="139" y="295" type="curve"/>
      <point x="144" y="231"/>
      <point x="146" y="192"/>
      <point x="157" y="134" type="curve"/>
      <point x="189" y="71"/>
      <point x="195" y="60"/>
      <point x="272" y="15" type="curve"/>
      <point x="325" y="-1"/>
      <point x="362" y="-9"/>
      <point x="440" y="-11" type="curve"/>
      <point x="502" y="-8"/>
      <point x="486" y="-7"/>
      <point x="531" y="-1" type="curve"/>
      <point x="574" y="11"/>
      <point x="566" y="9"/>
      <point x="626" y="41" type="curve"/>
      <point x="659" y="69"/>
      <point x="688" y="104"/>
      <point x="708" y="176" type="curve"/>
      <point x="729" y="241"/>
      <point x="721" y="556"/>
      <point x="728" y="657" type="curve"/>
      <point x="735" y="679"/>
      <point x="737" y="739"/>
      <point x="831" y="732" type="curve"/>
      <point x="832" y="750"/>
      <point x="830" y="750"/>
      <point x="831" y="769" type="curve"/>
      <point x="744" y="771"/>
      <point x="677" y="769"/>
    </contour>
  </outline>
</glyph>
<glyph name="V" format="2">
  <advance width="850"/>
  <unicode hex="0056"/>
  <outline>
    <contour>
      <point x="791" y="770" type="qcurve"/>
      <point x="551" y="769" type="line"/>
      <point x="549" y="733" type="line"/>
      <point x="600" y="735"/>
      <point x="630" y="701"/>
      <point x="627" y="677" type="qcurve"/>
      <point x="623" y="648"/>
      <point x="594" y="568"/>
      <point x="544" y="452"/>
      <point x="529" y="412" type="qcurve"/>
      <point x="525" y="403"/>
      <point x="504" y="348"/>
      <point x="495" y="325" type="qcurve"/>
      <point x="481" y="291"/>
      <point x="425" y="154" type="qcurve"/>
      <point x="418" y="169"/>
      <point x="401" y="209"/>
      <point x="391" y="235"/>
      <point x="389" y="238" type="qcurve"/>
      <point x="379" y="266"/>
      <point x="363" y="307"/>
      <point x="345" y="351"/>
      <point x="338" y="370" type="qcurve"/>
      <point x="326" y="400"/>
      <point x="277" y="527" type="qcurve"/>
      <point x="240" y="617" type="line"/>
      <point x="235" y="631" type="line"/>
      <point x="226" y="651"/>
      <point x="221" y="683"/>
      <point x="223" y="704"/>
      <point x="237" y="719"/>
      <point x="248" y="726"/>
      <point x="273" y="730"/>
      <point x="283" y="731"/>
      <point x="311" y="730"/>
      <point x="312" y="730" type="qcurve"/>
      <point x="312" y="737"/>
      <point x="313" y="761"/>
      <point x="313" y="770" type="qcurve"/>
      <point x="-13" y="770" type="line"/>
      <point x="-13" y="731" type="line"/>
      <point x="38" y="727"/>
      <point x="103" y="663"/>
      <point x="124" y="600" type="qcurve"/>
      <point x="126" y="594"/>
      <point x="189" y="446"/>
      <point x="204" y="406" type="qcurve"/>
      <point x="276" y="233"/>
      <point x="291" y="197" type="qcurve"/>
      <point x="308" y="157"/>
      <point x="377" y="-10" type="qcurve"/>
      <point x="412" y="-10" type="line"/>
      <point x="525" y="266" type="line"/>
      <point x="539" y="295"/>
      <point x="651" y="578"/>
      <point x="682" y="649" type="qcurve"/>
      <point x="712" y="726"/>
      <point x="792" y="732" type="qcurve"/>
      <point x="792" y="759"/>
    </contour>
  </outline>
</glyph>
<glyph name="W" format="2">
  <advance width="1200"/>
  <unicode hex="0057"/>
  <outline>
    <contour>
      <point x="315" y="732" type="curve"/>
      <point x="315" y="770" type="line"/>
      <point x="271" y="770"/>
      <point x="49" y="770"/>
      <point x="-10" y="770" type="curve"/>
      <point x="-11" y="757"/>
      <point x="-9" y="753"/>
      <point x="-11" y="730" type="curve"/>
      <point x="45" y="731"/>
      <point x="64" y="716"/>
      <point x="86" y="683" type="curve"/>
      <point x="113" y="644"/>
      <point x="108" y="641"/>
      <point x="148" y="542" type="curve"/>
      <point x="166" y="498"/>
      <point x="207" y="383"/>
      <point x="235" y="302" type="curve"/>
      <point x="266" y="207"/>
      <point x="312" y="98"/>
      <point x="349" y="-10" type="curve"/>
      <point x="364" y="-9"/>
      <point x="371" y="-10"/>
      <point x="384" y="-10" type="curve"/>
      <point x="409" y="55"/>
      <point x="573" y="494"/>
      <point x="597" y="557" type="curve"/>
      <point x="649" y="418"/>
      <point x="731" y="155"/>
      <point x="789" y="-11" type="curve"/>
      <point x="806" y="-10"/>
      <point x="809" y="-10"/>
      <point x="825" y="-9" type="curve"/>
      <point x="833" y="19"/>
      <point x="1048" y="584"/>
      <point x="1080" y="664" type="curve"/>
      <point x="1092" y="678"/>
      <point x="1093" y="730"/>
      <point x="1184" y="732" type="curve"/>
      <point x="1184" y="746"/>
      <point x="1184" y="756"/>
      <point x="1184" y="770" type="curve"/>
      <point x="1170" y="771"/>
      <point x="1003" y="770"/>
      <point x="940" y="770" type="curve"/>
      <point x="941" y="763"/>
      <point x="940" y="752"/>
      <point x="942" y="731" type="curve"/>
      <point x="978" y="731"/>
      <point x="1040" y="738"/>
      <point x="1007" y="637" type="curve"/>
      <point x="998" y="606"/>
      <point x="990" y="575"/>
      <point x="952" y="479" type="curve"/>
      <point x="924" y="399"/>
      <point x="930" y="423"/>
      <point x="905" y="347" type="curve"/>
      <point x="874" y="260"/>
      <point x="864" y="231"/>
      <point x="834" y="153" type="curve"/>
      <point x="810" y="217"/>
      <point x="802" y="258"/>
      <point x="791" y="291" type="curve"/>
      <point x="766" y="361"/>
      <point x="766" y="379"/>
      <point x="748" y="443" type="curve"/>
      <point x="731" y="496"/>
      <point x="704" y="573"/>
      <point x="693" y="619" type="curve"/>
      <point x="628" y="760"/>
      <point x="771" y="730"/>
      <point x="771" y="731" type="curve" smooth="yes"/>
      <point x="769" y="746"/>
      <point x="770" y="771"/>
      <point x="769" y="771" type="curve" smooth="yes"/>
      <point x="768" y="771"/>
      <point x="465" y="769"/>
      <point x="465" y="770" type="curve" smooth="yes"/>
      <point x="464" y="773"/>
      <point x="466" y="734"/>
      <point x="467" y="728" type="curve"/>
      <point x="477" y="728" type="line"/>
      <point x="524" y="730"/>
      <point x="554" y="654"/>
      <point x="563" y="634" type="curve" smooth="yes"/>
      <point x="570" y="619"/>
      <point x="441" y="304"/>
      <point x="430" y="267" type="curve" smooth="yes"/>
      <point x="421" y="237"/>
      <point x="393" y="153"/>
      <point x="392" y="154" type="curve" smooth="yes"/>
      <point x="390" y="157"/>
      <point x="358" y="255"/>
      <point x="358" y="255" type="curve" smooth="yes"/>
      <point x="350" y="277"/>
      <point x="344" y="299"/>
      <point x="339" y="313" type="curve" smooth="yes"/>
      <point x="329" y="345"/>
      <point x="324" y="357"/>
      <point x="309" y="405" type="curve"/>
      <point x="292" y="455"/>
      <point x="266" y="536"/>
      <point x="263" y="546" type="curve" smooth="yes"/>
      <point x="259" y="559"/>
      <point x="233" y="636"/>
      <point x="231" y="643" type="curve" smooth="yes"/>
      <point x="209" y="709"/>
      <point x="227" y="732"/>
    </contour>
  </outline>
</glyph>
<glyph name="X" format="2">
  <advance width="850"/>
  <unicode hex="0058"/>
  <outline>
    <contour>
      <point x="360" y="769" type="line"/>
      <point x="28" y="770" type="line"/>
      <point x="29" y="765"/>
      <point x="28" y="752" type="qcurve" smooth="yes"/>
      <point x="27" y="739"/>
      <point x="27" y="732" type="qcurve"/>
      <point x="45" y="731"/>
      <point x="59.5" y="729" type="qcurve" smooth="yes"/>
      <point x="74" y="727"/>
      <point x="88" y="721" type="qcurve" smooth="yes"/>
      <point x="102" y="715"/>
      <point x="111.5" y="711" type="qcurve" smooth="yes"/>
      <point x="121" y="707"/>
      <point x="133.5" y="695" type="qcurve" smooth="yes"/>
      <point x="146" y="683"/>
      <point x="152" y="677.5" type="qcurve" smooth="yes"/>
      <point x="158" y="672"/>
      <point x="171.5" y="654" type="qcurve" smooth="yes"/>
      <point x="185" y="636"/>
      <point x="190" y="628.5" type="qcurve" smooth="yes"/>
      <point x="195" y="621"/>
      <point x="211" y="597.5" type="qcurve" smooth="yes"/>
      <point x="227" y="574"/>
      <point x="234" y="564" type="qcurve"/>
      <point x="256" y="537"/>
      <point x="307" y="466.5" type="qcurve" smooth="yes"/>
      <point x="358" y="396"/>
      <point x="359" y="389" type="qcurve" smooth="yes"/>
      <point x="360" y="385"/>
      <point x="343.5" y="362" type="qcurve" smooth="yes"/>
      <point x="327" y="339"/>
      <point x="301" y="306.5" type="qcurve" smooth="yes"/>
      <point x="275" y="274"/>
      <point x="251.5" y="245.5" type="qcurve" smooth="yes"/>
      <point x="228" y="217"/>
      <point x="206" y="190.5" type="qcurve" smooth="yes"/>
      <point x="184" y="164"/>
      <point x="183" y="163" type="qcurve" smooth="yes"/>
      <point x="117" y="79"/>
      <point x="84.5" y="58.5" type="qcurve" smooth="yes"/>
      <point x="52" y="38"/>
      <point x="3" y="39" type="qcurve"/>
      <point x="1" y="1" type="line"/>
      <point x="68" y="0"/>
      <point x="280" y="0" type="qcurve" smooth="yes"/>
      <point x="281" y="0"/>
      <point x="281" y="19.5" type="qcurve" smooth="yes"/>
      <point x="281" y="39"/>
      <point x="280" y="39" type="qcurve" smooth="yes"/>
      <point x="247" y="37"/>
      <point x="228.5" y="40.5" type="qcurve" smooth="yes"/>
      <point x="210" y="44"/>
      <point x="203" y="51" type="qcurve" smooth="yes"/>
      <point x="196" y="58"/>
      <point x="200.5" y="73" type="qcurve" smooth="yes"/>
      <point x="205" y="88"/>
      <point x="212.5" y="101.5" type="qcurve" smooth="yes"/>
      <point x="220" y="115"/>
      <point x="236" y="139" type="qcurve" smooth="yes"/>
      <point x="279" y="203"/>
      <point x="394" y="341" type="qcurve"/>
      <point x="534" y="132" type="line"/>
      <point x="538" y="128"/>
      <point x="544.5" y="118" type="qcurve" smooth="yes"/>
      <point x="551" y="108"/>
      <point x="556.5" y="92.5" type="qcurve" smooth="yes"/>
      <point x="562" y="77"/>
      <point x="559.5" y="63.5" type="qcurve" smooth="yes"/>
      <point x="557" y="50"/>
      <point x="537.5" y="42" type="qcurve" smooth="yes"/>
      <point x="518" y="34"/>
      <point x="481" y="38" type="qcurve"/>
      <point x="481" y="37"/>
      <point x="481" y="28.5" type="qcurve" smooth="yes"/>
      <point x="481" y="20"/>
      <point x="481.5" y="10" type="qcurve" smooth="yes"/>
      <point x="482" y="0" type="line"/>
      <point x="822" y="0" type="line" smooth="yes"/>
      <point x="823" y="0"/>
      <point x="823" y="18.5" type="qcurve" smooth="yes"/>
      <point x="823" y="37"/>
      <point x="822" y="37" type="qcurve" smooth="yes"/>
      <point x="807" y="38"/>
      <point x="792.5" y="42" type="qcurve" smooth="yes"/>
      <point x="778" y="46"/>
      <point x="766.5" y="51" type="qcurve" smooth="yes"/>
      <point x="755" y="56"/>
      <point x="744" y="63.5" type="qcurve" smooth="yes"/>
      <point x="733" y="71"/>
      <point x="726" y="77" type="qcurve" smooth="yes"/>
      <point x="719" y="83"/>
      <point x="711.5" y="91" type="qcurve" smooth="yes"/>
      <point x="704" y="99"/>
      <point x="700" y="103.5" type="qcurve" smooth="yes"/>
      <point x="696" y="108"/>
      <point x="691.5" y="113.5" type="qcurve" smooth="yes"/>
      <point x="687" y="119"/>
      <point x="687" y="120" type="qcurve" smooth="yes"/>
      <point x="623" y="195"/>
      <point x="465" y="421" type="qcurve"/>
      <point x="470" y="428"/>
      <point x="559" y="542" type="qcurve" smooth="yes"/>
      <point x="648" y="656"/>
      <point x="650" y="659" type="qcurve" smooth="yes"/>
      <point x="662" y="678"/>
      <point x="675.5" y="692" type="qcurve" smooth="yes"/>
      <point x="689" y="706"/>
      <point x="699" y="713" type="qcurve" smooth="yes"/>
      <point x="709" y="720"/>
      <point x="723.5" y="724.5" type="qcurve" smooth="yes"/>
      <point x="738" y="729"/>
      <point x="743.5" y="730" type="qcurve" smooth="yes"/>
      <point x="749" y="731"/>
      <point x="764" y="731.5" type="qcurve" smooth="yes"/>
      <point x="779" y="732"/>
      <point x="780" y="732" type="qcurve"/>
      <point x="780" y="770" type="line"/>
      <point x="505" y="770" type="line"/>
      <point x="505" y="733" type="line"/>
      <point x="533" y="733"/>
      <point x="550" y="727.5" type="qcurve" smooth="yes"/>
      <point x="567" y="722"/>
      <point x="573.5" y="714" type="qcurve" smooth="yes"/>
      <point x="580" y="706"/>
      <point x="580" y="693" type="qcurve" smooth="yes"/>
      <point x="580" y="680"/>
      <point x="577" y="670" type="qcurve" smooth="yes"/>
      <point x="574" y="660"/>
      <point x="568.954" y="646.247" type="qcurve" smooth="yes"/>
      <point x="568" y="643"/>
      <point x="567" y="641" type="qcurve" smooth="yes"/>
      <point x="567" y="639"/>
      <point x="535" y="598" type="qcurve" smooth="yes"/>
      <point x="503" y="557"/>
      <point x="469" y="513" type="qcurve" smooth="yes"/>
      <point x="435" y="469"/>
      <point x="432" y="465" type="qcurve" smooth="yes"/>
      <point x="431" y="464"/>
      <point x="420" y="480.5" type="qcurve" smooth="yes"/>
      <point x="409" y="497"/>
      <point x="392.5" y="521.5" type="qcurve" smooth="yes"/>
      <point x="376" y="546"/>
      <point x="359" y="571" type="qcurve" smooth="yes"/>
      <point x="342" y="596"/>
      <point x="329" y="615.5" type="qcurve" smooth="yes"/>
      <point x="316" y="635"/>
      <point x="314" y="638" type="qcurve" smooth="yes"/>
      <point x="310" y="644"/>
      <point x="305" y="656" type="qcurve" smooth="yes"/>
      <point x="300" y="668"/>
      <point x="296.5" y="688" type="qcurve" smooth="yes"/>
      <point x="293" y="708"/>
      <point x="308.5" y="720.5" type="qcurve" smooth="yes"/>
      <point x="324" y="733"/>
      <point x="360" y="732" type="qcurve"/>
    </contour>
  </outline>
</glyph>
<glyph name="Y" format="2">
  <advance width="800"/>
  <unicode hex="0059"/>
  <outline>
    <contour>
      <point x="312" y="771" type="curve"/>
      <point x="284" y="773"/>
      <point x="8" y="770"/>
      <point x="-5" y="771" type="curve" smooth="yes"/>
      <point x="-18" y="772"/>
      <point x="-5" y="730"/>
      <point x="-4" y="730" type="curve" smooth="yes"/>
      <point x="35" y="724"/>
      <point x="86" y="739"/>
      <point x="187" y="524" type="curve" smooth="yes"/>
      <point x="192" y="514"/>
      <point x="274" y="377"/>
      <point x="280" y="365" type="curve" smooth="yes"/>
      <point x="286" y="353"/>
      <point x="306" y="318"/>
      <point x="314" y="304" type="curve" smooth="yes"/>
      <point x="315" y="302"/>
      <point x="315" y="265"/>
      <point x="315" y="257" type="curve" smooth="yes"/>
      <point x="315" y="248"/>
      <point x="314" y="205"/>
      <point x="314" y="190" type="curve" smooth="yes"/>
      <point x="314" y="175"/>
      <point x="316" y="128"/>
      <point x="312" y="114" type="curve" smooth="yes"/>
      <point x="308" y="100"/>
      <point x="302" y="75"/>
      <point x="300" y="72" type="curve" smooth="yes"/>
      <point x="274" y="26"/>
      <point x="247" y="45"/>
      <point x="205" y="38" type="curve"/>
      <point x="204" y="0" type="line"/>
      <point x="216" y="0"/>
      <point x="501" y="0"/>
      <point x="528" y="0" type="curve" smooth="yes"/>
      <point x="529" y="0"/>
      <point x="528" y="38"/>
      <point x="528" y="38" type="curve" smooth="yes"/>
      <point x="398" y="27"/>
      <point x="420" y="144"/>
      <point x="419" y="155" type="curve" smooth="yes"/>
      <point x="418" y="162"/>
      <point x="417" y="310"/>
      <point x="418" y="311" type="curve" smooth="yes"/>
      <point x="443" y="349"/>
      <point x="547" y="515"/>
      <point x="605" y="621" type="curve" smooth="yes"/>
      <point x="668" y="735"/>
      <point x="715" y="732"/>
      <point x="737" y="732" type="curve" smooth="yes"/>
      <point x="737" y="732"/>
      <point x="737" y="770"/>
      <point x="737" y="770" type="curve" smooth="yes"/>
      <point x="736" y="770"/>
      <point x="542" y="771"/>
      <point x="508" y="771" type="curve" smooth="yes"/>
      <point x="507" y="771"/>
      <point x="506" y="732"/>
      <point x="508" y="732" type="curve" smooth="yes"/>
      <point x="544" y="730"/>
      <point x="627" y="749"/>
      <point x="510" y="555" type="curve" smooth="yes"/>
      <point x="500" y="538"/>
      <point x="474" y="499"/>
      <point x="461" y="477" type="curve" smooth="yes"/>
      <point x="454" y="466"/>
      <point x="416" y="400"/>
      <point x="401" y="373" type="curve" smooth="yes"/>
      <point x="400" y="372"/>
      <point x="394" y="374"/>
      <point x="395" y="374" type="curve" smooth="yes"/>
      <point x="397" y="374"/>
      <point x="301" y="538"/>
      <point x="292" y="552" type="curve" smooth="yes"/>
      <point x="289" y="557"/>
      <point x="122" y="757"/>
      <point x="310" y="731" type="curve" smooth="yes"/>
      <point x="312" y="731"/>
      <point x="314" y="768"/>
    </contour>
  </outline>
</glyph>
<glyph name="Z" format="2">
  <advance width="800"/>
  <unicode hex="005A"/>
  <outline>
    <contour>
      <point x="90" y="765" type="curve"/>
      <point x="87" y="724"/>
      <point x="89" y="718"/>
      <point x="71" y="581" type="curve"/>
      <point x="74" y="585"/>
      <point x="69" y="581"/>
      <point x="115" y="586" type="curve"/>
      <point x="152" y="805"/>
      <point x="312" y="712"/>
      <point x="538" y="730" type="curve" smooth="yes"/>
      <point x="559" y="732"/>
      <point x="450" y="602"/>
      <point x="363" y="485" type="curve"/>
      <point x="293" y="377" type="line"/>
      <point x="282" y="365"/>
      <point x="237" y="310"/>
      <point x="200" y="257" type="curve" smooth="yes"/>
      <point x="180" y="229"/>
      <point x="150" y="192"/>
      <point x="137" y="171" type="curve" smooth="yes"/>
      <point x="76" y="74"/>
      <point x="63" y="72"/>
      <point x="16" y="0" type="curve" smooth="yes"/>
      <point x="15" y="-1"/>
      <point x="84" y="2"/>
      <point x="112" y="0" type="curve" smooth="yes"/>
      <point x="129" y="-1"/>
      <point x="317" y="1"/>
      <point x="370" y="0" type="curve" smooth="yes"/>
      <point x="429" y="-1"/>
      <point x="571" y="-7"/>
      <point x="708" y="2" type="curve" smooth="yes"/>
      <point x="712" y="2"/>
      <point x="722" y="236"/>
      <point x="723" y="234" type="curve" smooth="yes"/>
      <point x="724" y="231"/>
      <point x="680" y="238"/>
      <point x="680" y="235" type="curve" smooth="yes"/>
      <point x="679" y="228"/>
      <point x="673" y="80"/>
      <point x="578" y="53" type="curve" smooth="yes"/>
      <point x="567" y="50"/>
      <point x="472" y="48"/>
      <point x="429" y="47" type="curve" smooth="yes"/>
      <point x="299" y="44"/>
      <point x="179" y="45"/>
      <point x="180" y="47" type="curve" smooth="yes"/>
      <point x="239" y="145"/>
      <point x="300" y="211"/>
      <point x="343" y="269" type="curve" smooth="yes"/>
      <point x="396" y="341"/>
      <point x="399" y="351"/>
      <point x="422" y="382" type="curve" smooth="yes"/>
      <point x="432" y="396"/>
      <point x="498" y="479"/>
      <point x="506" y="493" type="curve"/>
      <point x="702" y="770" type="line"/>
      <point x="288" y="770"/>
      <point x="285" y="772"/>
    </contour>
  </outline>
</glyph>
<glyph name="bracketleft" format="2">
  <advance width="371"/>
  <unicode hex="005B"/>
  <outline>
    <contour>
      <point x="347" y="820" type="line"/>
      <point x="107" y="820" type="line"/>
      <point x="107" y="-150" type="line"/>
      <point x="348" y="-150" type="line"/>
      <point x="348" y="-104" type="line"/>
      <point x="197" y="-103" type="line"/>
      <point x="197" y="773" type="line"/>
      <point x="348" y="774" type="line"/>
    </contour>
  </outline>
</glyph>
<glyph name="backslash" format="2">
  <advance width="500"/>
  <unicode hex="005C"/>
  <outline>
    <contour>
      <point x="75" y="773" type="line"/>
      <point x="27" y="771" type="line"/>
      <point x="372" y="0" type="line"/>
      <point x="433" y="3" type="line"/>
    </contour>
  </outline>
</glyph>
<glyph name="bracketright" format="2">
  <advance width="371"/>
  <unicode hex="005D"/>
  <outline>
    <contour>
      <point x="25" y="-150" type="line"/>
      <point x="265" y="-150" type="line"/>
      <point x="265" y="820" type="line"/>
      <point x="24" y="820" type="line"/>
      <point x="24" y="774" type="line"/>
      <point x="175" y="773" type="line"/>
      <point x="175" y="-103" type="line"/>
      <point x="24" y="-104" type="line"/>
    </contour>
  </outline>
</glyph>
<glyph name="asciicircum" format="2">
  <advance width="500"/>
  <unicode hex="005E"/>
  <outline>
    <contour>
      <point x="250" y="409" type="line"/>
      <point x="285" y="409" type="line"/>
      <point x="401" y="234"/>
      <point x="404" y="230" type="qcurve"/>
      <point x="394" y="230" type="line"/>
      <point x="377" y="230" type="line"/>
      <point x="359" y="230" type="line"/>
      <point x="350" y="239"/>
      <point x="309.5" y="279" type="qcurve" smooth="yes"/>
      <point x="269" y="319"/>
      <point x="240" y="348" type="qcurve"/>
      <point x="121" y="230" type="line"/>
      <point x="105" y="230" type="line"/>
      <point x="89" y="230" type="line"/>
      <point x="76" y="230" type="line"/>
      <point x="77" y="232"/>
      <point x="92.5" y="255.5" type="qcurve" smooth="yes"/>
      <point x="108" y="279"/>
      <point x="138" y="323.5" type="qcurve" smooth="yes"/>
      <point x="168" y="368"/>
      <point x="194" y="408" type="qcurve"/>
      <point x="208" y="409"/>
      <point x="222" y="409" type="qcurve" smooth="yes"/>
    </contour>
  </outline>
</glyph>
<glyph name="underscore" format="2">
  <advance width="604"/>
  <unicode hex="005F"/>
  <outline>
    <contour>
      <point x="0" y="-75" type="line"/>
      <point x="0" y="-75"/>
      <point x="0" y="-74"/>
      <point x="0" y="-90" type="curve"/>
      <point x="0" y="-120" type="line"/>
      <point x="0" y="-137"/>
      <point x="0" y="-138"/>
      <point x="0" y="-137" type="curve"/>
      <point x="604" y="-137" type="line"/>
      <point x="604" y="-137"/>
      <point x="604" y="-137"/>
      <point x="604" y="-124" type="curve"/>
      <point x="604" y="-94" type="line"/>
      <point x="604" y="-77"/>
      <point x="604" y="-75"/>
      <point x="604" y="-75" type="curve"/>
    </contour>
  </outline>
</glyph>
<glyph name="grave" format="2">
  <advance width="280"/>
  <unicode hex="0060"/>
  <outline>
    <contour>
      <point x="256" y="650" type="line"/>
      <point x="118" y="777" type="line"/>
      <point x="96" y="794"/>
      <point x="92" y="796"/>
      <point x="70" y="801" type="curve" smooth="yes"/>
      <point x="43" y="807"/>
      <point x="24" y="793"/>
      <point x="21" y="769" type="curve" smooth="yes"/>
      <point x="19" y="750"/>
      <point x="45" y="731"/>
      <point x="54" y="725" type="curve" smooth="yes"/>
      <point x="61" y="720"/>
      <point x="108" y="699"/>
      <point x="210" y="650" type="curve"/>
    </contour>
  </outline>
</glyph>
<glyph name="a" format="2">
  <advance width="554"/>
  <unicode hex="0061"/>
  <outline>
    <contour>
      <point x="175" y="454" type="line"/>
      <point x="207" y="486" type="line"/>
      <point x="256" y="509" type="line"/>
      <point x="301" y="488" type="line"/>
      <point x="338" y="463" type="line"/>
      <point x="342" y="418" type="line"/>
      <point x="349" y="378" type="line"/>
      <point x="342" y="344" type="line"/>
      <point x="277" y="305" type="line"/>
      <point x="227" y="285" type="line"/>
      <point x="139" y="242" type="line"/>
      <point x="89" y="208" type="line"/>
      <point x="49" y="154" type="line"/>
      <point x="44" y="77" type="line"/>
      <point x="73" y="28" type="line"/>
      <point x="139" y="-9" type="line"/>
      <point x="218" y="-9" type="line"/>
      <point x="272" y="12" type="line"/>
      <point x="322" y="50" type="line"/>
      <point x="358" y="93" type="line"/>
      <point x="365" y="30" type="line"/>
      <point x="396" y="-2" type="line"/>
      <point x="435" y="-11" type="line"/>
      <point x="523" y="12" type="line"/>
      <point x="561" y="37" type="line"/>
      <point x="539" y="64" type="line"/>
      <point x="480" y="48" type="line"/>
      <point x="453" y="68" type="line"/>
      <point x="441" y="125" type="line"/>
      <point x="439" y="213" type="line"/>
      <point x="439" y="350" type="line"/>
      <point x="441" y="414" type="line"/>
      <point x="419" y="486" type="line"/>
      <point x="365" y="533" type="line"/>
      <point x="256" y="542" type="line"/>
      <point x="171" y="536" type="line"/>
      <point x="121" y="515" type="line"/>
      <point x="73" y="488" type="line"/>
      <point x="62" y="445" type="line"/>
      <point x="78" y="400" type="line"/>
      <point x="128" y="393" type="line"/>
      <point x="161" y="407" type="line"/>
    </contour>
    <contour>
      <point x="340" y="292" type="line"/>
      <point x="344" y="231" type="line"/>
      <point x="344" y="177" type="line"/>
      <point x="324" y="125" type="line"/>
      <point x="301" y="86" type="line"/>
      <point x="270" y="61" type="line"/>
      <point x="218" y="52" type="line"/>
      <point x="164" y="66" type="line"/>
      <point x="146" y="100" type="line"/>
      <point x="141" y="136" type="line"/>
      <point x="150" y="174" type="line"/>
      <point x="180" y="199" type="line"/>
      <point x="209" y="229" type="line"/>
      <point x="243" y="251" type="line"/>
      <point x="283" y="269" type="line"/>
    </contour>
  </outline>
</glyph>
<glyph name="b" format="2">
  <advance width="659"/>
  <unicode hex="0062"/>
  <outline>
    <contour>
      <point x="20" y="803" type="line"/>
      <point x="114" y="729" type="line"/>
      <point x="126" y="638" type="line"/>
      <point x="136" y="3" type="line"/>
      <point x="204" y="74" type="line"/>
      <point x="249" y="35" type="line"/>
      <point x="259" y="16" type="line"/>
      <point x="359" y="3" type="line"/>
      <point x="446" y="-3" type="line"/>
      <point x="507" y="26" type="line"/>
      <point x="558" y="68" type="line"/>
      <point x="610" y="139" type="line"/>
      <point x="629" y="190" type="line"/>
      <point x="639" y="258" type="line"/>
      <point x="629" y="371" type="line"/>
      <point x="591" y="442" type="line"/>
      <point x="529" y="493" type="line"/>
      <point x="468" y="532" type="line"/>
      <point x="400" y="545" type="line"/>
      <point x="320" y="535" type="line"/>
      <point x="217" y="471" type="line"/>
      <point x="220" y="700" type="line"/>
      <point x="220" y="829" type="line"/>
      <point x="120" y="812" type="line"/>
    </contour>
    <contour>
      <point x="226" y="361" type="line"/>
      <point x="252" y="438" type="line"/>
      <point x="294" y="461" type="line"/>
      <point x="349" y="484" type="line"/>
      <point x="391" y="480" type="line"/>
      <point x="426" y="471" type="line"/>
      <point x="468" y="448" type="line"/>
      <point x="497" y="416" type="line"/>
      <point x="517" y="348" type="line"/>
      <point x="523" y="287" type="line"/>
      <point x="526" y="210" type="line"/>
      <point x="500" y="145" type="line"/>
      <point x="475" y="97" type="line"/>
      <point x="439" y="61" type="line"/>
      <point x="371" y="52" type="line"/>
      <point x="320" y="55" type="line"/>
      <point x="275" y="90" type="line"/>
      <point x="233" y="139" type="line"/>
      <point x="220" y="197" type="line"/>
    </contour>
  </outline>
</glyph>
<glyph name="c" format="2">
  <advance width="606"/>
  <unicode hex="0063"/>
  <outline>
    <contour>
      <point x="506" y="82" type="line"/>
      <point x="474" y="111" type="line"/>
      <point x="446" y="88" type="line"/>
      <point x="409" y="61" type="line"/>
      <point x="372" y="50" type="line"/>
      <point x="328" y="39" type="line"/>
      <point x="297" y="42" type="line"/>
      <point x="258" y="52" type="line"/>
      <point x="237" y="66" type="line"/>
      <point x="214" y="87" type="line"/>
      <point x="196" y="114" type="line"/>
      <point x="183" y="140" type="line"/>
      <point x="173" y="178" type="line"/>
      <point x="164" y="219" type="line"/>
      <point x="164" y="257" type="line"/>
      <point x="163" y="298" type="line"/>
      <point x="165" y="328" type="line"/>
      <point x="168" y="357" type="line"/>
      <point x="176" y="387" type="line"/>
      <point x="181" y="413" type="line"/>
      <point x="195" y="434" type="line"/>
      <point x="208" y="455" type="line"/>
      <point x="228" y="469" type="line"/>
      <point x="253" y="483" type="line"/>
      <point x="284" y="493" type="line"/>
      <point x="313" y="494" type="line"/>
      <point x="342" y="491" type="line"/>
      <point x="360" y="483" type="line"/>
      <point x="361" y="481"/>
      <point x="370" y="473"/>
      <point x="387" y="458" type="curve"/>
      <point x="405" y="437" type="line"/>
      <point x="407" y="434"/>
      <point x="427" y="395"/>
      <point x="484" y="417" type="curve"/>
      <point x="492" y="423" type="line"/>
      <point x="499" y="432" type="line"/>
      <point x="503" y="450" type="line"/>
      <point x="501" y="467" type="line"/>
      <point x="493" y="484" type="line"/>
      <point x="477" y="500" type="line"/>
      <point x="462" y="511" type="line"/>
      <point x="448" y="518" type="line"/>
      <point x="434" y="524" type="line"/>
      <point x="419" y="528" type="line"/>
      <point x="405" y="532" type="line"/>
      <point x="384" y="535" type="line"/>
      <point x="356" y="539" type="line"/>
      <point x="332" y="540" type="line"/>
      <point x="331" y="540"/>
      <point x="322" y="540"/>
      <point x="304" y="540" type="curve"/>
      <point x="279" y="538" type="line"/>
      <point x="254" y="532" type="line"/>
      <point x="231" y="530" type="line"/>
      <point x="196" y="517" type="line"/>
      <point x="175" y="502" type="line"/>
      <point x="153" y="491" type="line"/>
      <point x="130" y="472" type="line"/>
      <point x="112" y="451" type="line"/>
      <point x="95" y="433" type="line"/>
      <point x="83" y="409" type="line"/>
      <point x="72" y="390" type="line"/>
      <point x="66" y="370" type="line"/>
      <point x="65" y="367"/>
      <point x="63" y="359"/>
      <point x="58" y="347" type="curve"/>
      <point x="53" y="323" type="line"/>
      <point x="52" y="304" type="line"/>
      <point x="48" y="285" type="line"/>
      <point x="49" y="264" type="line"/>
      <point x="49" y="235" type="line"/>
      <point x="51" y="219" type="line"/>
      <point x="52" y="201" type="line"/>
      <point x="58" y="179" type="line"/>
      <point x="65" y="148" type="line"/>
      <point x="75" y="127" type="line"/>
      <point x="85" y="109" type="line"/>
      <point x="97" y="91" type="line"/>
      <point x="107" y="75" type="line"/>
      <point x="119" y="59" type="line"/>
      <point x="129" y="49" type="line"/>
      <point x="148" y="33" type="line"/>
      <point x="172" y="21" type="line"/>
      <point x="191" y="11" type="line"/>
      <point x="205" y="3" type="line"/>
      <point x="219" y="-1" type="line"/>
      <point x="238" y="-5" type="line"/>
      <point x="270" y="-10" type="line"/>
      <point x="292" y="-10" type="line"/>
      <point x="317" y="-9" type="line"/>
      <point x="345" y="-6" type="line"/>
      <point x="380" y="4" type="line"/>
      <point x="419" y="17" type="line"/>
      <point x="453" y="37" type="line"/>
      <point x="478" y="55" type="line"/>
    </contour>
  </outline>
</glyph>
<glyph name="d" format="2">
  <advance width="700"/>
  <unicode hex="0064"/>
  <outline>
    <contour>
      <point x="563" y="828" type="line"/>
      <point x="560" y="466" type="line"/>
      <point x="558" y="132" type="line"/>
      <point x="565" y="75" type="line"/>
      <point x="587" y="43" type="line"/>
      <point x="649" y="32" type="line"/>
      <point x="649" y="-3" type="line"/>
      <point x="486" y="-10" type="line"/>
      <point x="485" y="85" type="line"/>
      <point x="428" y="25" type="line"/>
      <point x="357" y="-7" type="line"/>
      <point x="248" y="-5" type="line"/>
      <point x="178" y="18" type="line"/>
      <point x="128" y="55" type="line"/>
      <point x="95" y="95" type="line"/>
      <point x="75" y="138" type="line"/>
      <point x="53" y="192" type="line"/>
      <point x="42" y="265" type="line"/>
      <point x="52" y="338" type="line"/>
      <point x="75" y="405" type="line"/>
      <point x="112" y="452" type="line"/>
      <point x="158" y="495" type="line"/>
      <point x="215" y="522" type="line"/>
      <point x="295" y="538" type="line"/>
      <point x="372" y="532" type="line"/>
      <point x="428" y="512" type="line"/>
      <point x="472" y="462" type="line"/>
      <point x="465" y="695" type="line"/>
      <point x="460" y="729" type="line"/>
      <point x="437" y="751" type="line"/>
      <point x="405" y="757" type="line"/>
      <point x="357" y="763" type="line"/>
      <point x="355" y="792" type="line"/>
    </contour>
    <contour>
      <point x="445" y="412" type="line"/>
      <point x="418" y="453" type="line"/>
      <point x="367" y="483" type="line"/>
      <point x="302" y="496" type="line"/>
      <point x="229" y="467" type="line"/>
      <point x="190" y="414" type="line"/>
      <point x="171" y="367" type="line"/>
      <point x="163" y="316" type="line"/>
      <point x="161" y="264" type="line"/>
      <point x="165" y="205" type="line"/>
      <point x="174" y="157" type="line"/>
      <point x="193" y="110" type="line"/>
      <point x="210" y="83" type="line"/>
      <point x="211" y="81"/>
      <point x="222" y="70"/>
      <point x="244" y="51" type="curve"/>
      <point x="290" y="40" type="line"/>
      <point x="339" y="39" type="line"/>
      <point x="363" y="48" type="line"/>
      <point x="412" y="79" type="line"/>
      <point x="452" y="130" type="line"/>
      <point x="462" y="197" type="line"/>
      <point x="466" y="293" type="line"/>
      <point x="463" y="360" type="line"/>
    </contour>
  </outline>
</glyph>
<glyph name="e" format="2">
  <advance width="550"/>
  <unicode hex="0065"/>
  <outline>
    <contour>
      <point x="522" y="318" type="line"/>
      <point x="524" y="383" type="line"/>
      <point x="496" y="453" type="line"/>
      <point x="452" y="510" type="line"/>
      <point x="358" y="541" type="line"/>
      <point x="275" y="539" type="line"/>
      <point x="209" y="519" type="line"/>
      <point x="143" y="473" type="line"/>
      <point x="95" y="431" type="line"/>
      <point x="65" y="374" type="line"/>
      <point x="45" y="313" type="line"/>
      <point x="43" y="239" type="line"/>
      <point x="54" y="169" type="line"/>
      <point x="82" y="116" type="line"/>
      <point x="108" y="70" type="line"/>
      <point x="150" y="35" type="line"/>
      <point x="200" y="11" type="line"/>
      <point x="235" y="-9" type="line"/>
      <point x="288" y="-9" type="line"/>
      <point x="343" y="-13" type="line"/>
      <point x="389" y="-2" type="line"/>
      <point x="430" y="20" type="line"/>
      <point x="463" y="37" type="line"/>
      <point x="516" y="94" type="line"/>
      <point x="494" y="123" type="line"/>
      <point x="461" y="88" type="line"/>
      <point x="417" y="61" type="line"/>
      <point x="362" y="46" type="line"/>
      <point x="301" y="46" type="line"/>
      <point x="246" y="74" type="line"/>
      <point x="209" y="107" type="line"/>
      <point x="185" y="147" type="line"/>
      <point x="163" y="188" type="line"/>
      <point x="159" y="243" type="line"/>
      <point x="156" y="313" type="line"/>
      <point x="209" y="315" type="line"/>
      <point x="275" y="320" type="line"/>
      <point x="349" y="322" type="line"/>
      <point x="419" y="322" type="line"/>
      <point x="476" y="318" type="line"/>
    </contour>
    <contour>
      <point x="174" y="368" type="line"/>
      <point x="181" y="401" type="line"/>
      <point x="209" y="438" type="line"/>
      <point x="240" y="484" type="line"/>
      <point x="294" y="488" type="line"/>
      <point x="351" y="482" type="line"/>
      <point x="391" y="464" type="line"/>
      <point x="417" y="412" type="line"/>
      <point x="421" y="377" type="line"/>
      <point x="395" y="361" type="line"/>
      <point x="349" y="361" type="line"/>
      <point x="299" y="359" type="line"/>
      <point x="242" y="361" type="line"/>
    </contour>
  </outline>
</glyph>
<glyph name="i" format="2">
  <advance width="350"/>
  <unicode hex="0069"/>
  <outline>
    <contour>
      <point x="123" y="708" type="line"/>
      <point x="128" y="702" type="line"/>
      <point x="138" y="693" type="line"/>
      <point x="155" y="684" type="line"/>
      <point x="168" y="681" type="line"/>
      <point x="181" y="681" type="line"/>
      <point x="196" y="684" type="line"/>
      <point x="205" y="688" type="line"/>
      <point x="212" y="693" type="line"/>
      <point x="220" y="700" type="line"/>
      <point x="229" y="712" type="line"/>
      <point x="234" y="723" type="line"/>
      <point x="236" y="732" type="line"/>
      <point x="237" y="742" type="line"/>
      <point x="237" y="750" type="line"/>
      <point x="235" y="760" type="line"/>
      <point x="232" y="769" type="line"/>
      <point x="228" y="776" type="line"/>
      <point x="223" y="783" type="line"/>
      <point x="217" y="789" type="line"/>
      <point x="210" y="795" type="line"/>
      <point x="204" y="798" type="line"/>
      <point x="193" y="803" type="line"/>
      <point x="181" y="805" type="line"/>
      <point x="172" y="805" type="line"/>
      <point x="157" y="803" type="line"/>
      <point x="147" y="799" type="line"/>
      <point x="137" y="792" type="line"/>
      <point x="126" y="782" type="line"/>
      <point x="120" y="772" type="line"/>
      <point x="115" y="762" type="line"/>
      <point x="113" y="750" type="line"/>
      <point x="113" y="733" type="line"/>
      <point x="116" y="722" type="line"/>
    </contour>
    <contour>
      <point x="30" y="502" type="line"/>
      <point x="50" y="506" type="line"/>
      <point x="79" y="511" type="line"/>
      <point x="113" y="518" type="line"/>
      <point x="152" y="527" type="line"/>
      <point x="186" y="532" type="line"/>
      <point x="227" y="540" type="line"/>
      <point x="228" y="499" type="line"/>
      <point x="228" y="436" type="line"/>
      <point x="227" y="319" type="line"/>
      <point x="228" y="198" type="line"/>
      <point x="230" y="117" type="line"/>
      <point x="235" y="77" type="line"/>
      <point x="241" y="68" type="line"/>
      <point x="250" y="54" type="line"/>
      <point x="258" y="47" type="line"/>
      <point x="267" y="43" type="line"/>
      <point x="273" y="40" type="line"/>
      <point x="286" y="38" type="line"/>
      <point x="298" y="36" type="line"/>
      <point x="309" y="35" type="line"/>
      <point x="320" y="35" type="line"/>
      <point x="321" y="0" type="line"/>
      <point x="271" y="1" type="line"/>
      <point x="164" y="-1" type="line"/>
      <point x="73" y="0" type="line"/>
      <point x="32" y="-1" type="line"/>
      <point x="33" y="34" type="line"/>
      <point x="44" y="36" type="line"/>
      <point x="54" y="37" type="line"/>
      <point x="63" y="39" type="line"/>
      <point x="76" y="40" type="line"/>
      <point x="90" y="45" type="line"/>
      <point x="101" y="50" type="line"/>
      <point x="109" y="54" type="line"/>
      <point x="117" y="65" type="line"/>
      <point x="122" y="75" type="line"/>
      <point x="126" y="92" type="line"/>
      <point x="127" y="109" type="line"/>
      <point x="127" y="121" type="line"/>
      <point x="130" y="197" type="line"/>
      <point x="129" y="316" type="line"/>
      <point x="126" y="416" type="line"/>
      <point x="122" y="424" type="line"/>
      <point x="119" y="433" type="line"/>
      <point x="116" y="445" type="line"/>
      <point x="110" y="453" type="line"/>
      <point x="103" y="455" type="line"/>
      <point x="96" y="460" type="line"/>
      <point x="88" y="462" type="line"/>
      <point x="77" y="464" type="line"/>
      <point x="66" y="465" type="line"/>
      <point x="52" y="467" type="line"/>
      <point x="38" y="465" type="line"/>
      <point x="32" y="467" type="line"/>
    </contour>
  </outline>
</glyph>
<glyph name="l" format="2">
  <advance width="320"/>
  <unicode hex="006C"/>
  <guideline x="209" y="779" angle="90"/>
  <outline>
    <contour>
      <point x="207" y="832" type="curve"/>
      <point x="17" y="793" type="line"/>
      <point x="21" y="759" type="line"/>
      <point x="39" y="758"/>
      <point x="90" y="750"/>
      <point x="100" y="739" type="curve" smooth="yes"/>
      <point x="110" y="728"/>
      <point x="115" y="670"/>
      <point x="115" y="656" type="curve" smooth="yes"/>
      <point x="115" y="642"/>
      <point x="115" y="198"/>
      <point x="116" y="181" type="curve" smooth="yes"/>
      <point x="117" y="164"/>
      <point x="118" y="93"/>
      <point x="110" y="76" type="curve" smooth="yes"/>
      <point x="105" y="65"/>
      <point x="78" y="30"/>
      <point x="22" y="36" type="curve"/>
      <point x="22" y="-1" type="line"/>
      <point x="299" y="-1" type="line"/>
      <point x="298" y="36" type="line"/>
      <point x="275" y="37"/>
      <point x="240" y="32"/>
      <point x="219" y="68" type="curve" smooth="yes"/>
      <point x="211" y="81"/>
      <point x="208" y="156"/>
      <point x="208" y="176" type="curve" smooth="yes"/>
      <point x="208" y="196"/>
      <point x="211" y="682"/>
      <point x="211" y="692" type="curve" smooth="yes"/>
      <point x="211" y="699"/>
      <point x="210" y="745"/>
    </contour>
  </outline>
</glyph>
<glyph name="n" format="2">
  <advance width="700"/>
  <unicode hex="006E"/>
  <outline>
    <contour>
      <point x="195" y="540" type="line"/>
      <point x="34" y="503" type="line"/>
      <point x="35" y="471" type="line"/>
      <point x="49" y="470" type="line"/>
      <point x="63" y="468" type="line"/>
      <point x="78" y="468" type="line"/>
      <point x="89" y="465" type="line"/>
      <point x="97" y="460" type="line"/>
      <point x="105" y="455" type="line"/>
      <point x="109" y="447" type="line"/>
      <point x="114" y="434" type="line"/>
      <point x="118" y="413" type="line"/>
      <point x="120" y="386" type="line"/>
      <point x="120" y="359" type="line"/>
      <point x="120" y="261" type="line"/>
      <point x="121" y="182" type="line"/>
      <point x="121" y="166" type="line"/>
      <point x="121" y="147" type="line"/>
      <point x="120" y="107" type="line"/>
      <point x="116" y="76" type="line"/>
      <point x="107" y="56" type="line"/>
      <point x="99" y="48" type="line"/>
      <point x="91" y="43" type="line"/>
      <point x="77" y="39" type="line"/>
      <point x="62" y="37" type="line"/>
      <point x="50" y="35" type="line"/>
      <point x="38" y="33" type="line"/>
      <point x="38" y="0" type="line"/>
      <point x="174" y="0" type="line"/>
      <point x="300" y="0" type="line"/>
      <point x="298" y="34" type="line"/>
      <point x="283" y="34" type="line"/>
      <point x="265" y="37" type="line"/>
      <point x="255" y="39" type="line"/>
      <point x="245" y="42" type="line"/>
      <point x="234" y="49" type="line"/>
      <point x="226" y="59" type="line"/>
      <point x="221" y="73" type="line"/>
      <point x="217" y="103" type="line"/>
      <point x="217" y="155" type="line"/>
      <point x="216" y="251" type="line"/>
      <point x="218" y="336" type="line"/>
      <point x="222" y="370" type="line"/>
      <point x="237" y="406" type="line"/>
      <point x="262" y="438" type="line"/>
      <point x="282" y="455" type="line"/>
      <point x="312" y="473" type="line"/>
      <point x="336" y="482" type="line"/>
      <point x="361" y="486" type="line"/>
      <point x="389" y="486" type="line"/>
      <point x="411" y="482" type="line"/>
      <point x="429" y="475" type="line"/>
      <point x="444" y="466" type="line"/>
      <point x="457" y="451" type="line"/>
      <point x="467" y="434" type="line"/>
      <point x="471" y="425" type="line"/>
      <point x="473" y="419" type="line"/>
      <point x="476" y="410" type="line"/>
      <point x="478" y="403" type="line"/>
      <point x="479" y="398" type="line"/>
      <point x="487" y="355" type="line"/>
      <point x="488" y="130" type="line"/>
      <point x="488" y="119" type="line"/>
      <point x="488" y="105" type="line"/>
      <point x="486" y="88" type="line"/>
      <point x="484" y="73" type="line"/>
      <point x="476" y="57" type="line"/>
      <point x="469" y="49" type="line"/>
      <point x="462" y="44" type="line"/>
      <point x="456" y="41" type="line"/>
      <point x="449" y="39" type="line"/>
      <point x="435" y="36" type="line"/>
      <point x="422" y="35" type="line"/>
      <point x="406" y="34" type="line"/>
      <point x="406" y="0" type="line"/>
      <point x="555" y="0" type="line"/>
      <point x="665" y="0" type="line"/>
      <point x="665" y="34" type="line"/>
      <point x="656" y="35" type="line"/>
      <point x="642" y="36" type="line"/>
      <point x="633" y="37" type="line"/>
      <point x="625" y="39" type="line"/>
      <point x="619" y="40" type="line"/>
      <point x="606" y="46" type="line"/>
      <point x="599" y="53" type="line"/>
      <point x="593" y="63" type="line"/>
      <point x="589" y="73" type="line"/>
      <point x="587" y="86" type="line"/>
      <point x="586" y="99" type="line"/>
      <point x="585" y="114" type="line"/>
      <point x="584" y="302" type="line"/>
      <point x="584" y="319" type="line"/>
      <point x="584" y="335" type="line"/>
      <point x="584" y="357" type="line"/>
      <point x="583" y="375" type="line"/>
      <point x="582" y="390" type="line"/>
      <point x="580" y="402" type="line"/>
      <point x="579" y="416" type="line"/>
      <point x="577" y="431" type="line"/>
      <point x="574" y="442" type="line"/>
      <point x="567" y="458" type="line"/>
      <point x="560" y="476" type="line"/>
      <point x="545" y="494" type="line"/>
      <point x="530" y="507" type="line"/>
      <point x="513" y="518" type="line"/>
      <point x="494" y="526" type="line"/>
      <point x="480" y="531" type="line"/>
      <point x="457" y="536" type="line"/>
      <point x="434" y="539" type="line"/>
      <point x="412" y="541" type="line"/>
      <point x="391" y="540" type="line"/>
      <point x="372" y="538" type="line"/>
      <point x="335" y="528" type="line"/>
      <point x="301" y="514" type="line"/>
      <point x="283" y="503" type="line"/>
      <point x="265" y="493" type="line"/>
      <point x="250" y="481" type="line"/>
      <point x="237" y="469" type="line"/>
      <point x="223" y="455" type="line"/>
      <point x="211" y="441" type="line"/>
      <point x="207" y="441" type="line"/>
    </contour>
  </outline>
</glyph>
<glyph name="o" format="2">
  <advance width="650"/>
  <unicode hex="006F"/>
  <outline>
    <contour>
      <point x="324" y="542" type="line"/>
      <point x="255" y="535" type="line"/>
      <point x="208" y="517" type="line"/>
      <point x="172" y="497" type="line"/>
      <point x="139" y="473" type="line"/>
      <point x="111" y="447" type="line"/>
      <point x="92" y="423" type="line"/>
      <point x="72" y="383" type="line"/>
      <point x="63" y="360" type="line"/>
      <point x="53" y="327" type="line"/>
      <point x="50" y="299" type="line"/>
      <point x="48" y="270" type="line"/>
      <point x="49" y="245" type="line"/>
      <point x="54" y="205" type="line"/>
      <point x="63" y="172" type="line"/>
      <point x="86" y="121" type="line"/>
      <point x="118" y="81" type="line"/>
      <point x="142" y="52" type="line"/>
      <point x="170" y="35" type="line"/>
      <point x="190" y="22" type="line"/>
      <point x="217" y="8" type="line"/>
      <point x="256" y="-6" type="line"/>
      <point x="299" y="-11" type="line"/>
      <point x="333" y="-12" type="line"/>
      <point x="392" y="-3" type="line"/>
      <point x="443" y="14" type="line"/>
      <point x="481" y="36" type="line"/>
      <point x="519" y="62" type="line"/>
      <point x="550" y="97" type="line"/>
      <point x="573" y="133" type="line"/>
      <point x="586" y="162" type="line"/>
      <point x="599" y="194" type="line"/>
      <point x="606" y="245" type="line"/>
      <point x="609" y="277" type="line"/>
      <point x="606" y="302" type="line"/>
      <point x="599" y="332" type="line"/>
      <point x="588" y="362" type="line"/>
      <point x="576" y="388" type="line"/>
      <point x="565" y="407" type="line"/>
      <point x="553" y="426" type="line"/>
      <point x="539" y="444" type="line"/>
      <point x="526" y="461" type="line"/>
      <point x="476" y="498" type="line"/>
      <point x="440" y="517" type="line"/>
      <point x="384" y="536" type="line"/>
    </contour>
    <contour>
      <point x="325" y="493" type="line"/>
      <point x="358" y="489" type="line"/>
      <point x="386" y="480" type="line"/>
      <point x="412" y="465" type="line"/>
      <point x="435" y="445" type="line"/>
      <point x="453" y="421" type="line"/>
      <point x="466" y="399" type="line"/>
      <point x="477" y="374" type="line"/>
      <point x="485" y="344" type="line"/>
      <point x="490" y="309" type="line"/>
      <point x="493" y="277" type="line"/>
      <point x="493" y="247" type="line"/>
      <point x="490" y="220" type="line"/>
      <point x="485" y="187" type="line"/>
      <point x="477" y="162" type="line"/>
      <point x="465" y="131" type="line"/>
      <point x="442" y="95" type="line"/>
      <point x="414" y="69" type="line"/>
      <point x="376" y="48" type="line"/>
      <point x="325" y="39" type="line"/>
      <point x="284" y="45" type="line"/>
      <point x="247" y="62" type="line"/>
      <point x="214" y="89" type="line"/>
      <point x="191" y="124" type="line"/>
      <point x="172" y="171" type="line"/>
      <point x="164" y="211" type="line"/>
      <point x="161" y="253" type="line"/>
      <point x="162" y="307" type="line"/>
      <point x="170" y="350" type="line"/>
      <point x="178" y="376" type="line"/>
      <point x="188" y="402" type="line"/>
      <point x="202" y="425" type="line"/>
      <point x="224" y="453" type="line"/>
      <point x="250" y="473" type="line"/>
      <point x="283" y="486" type="line"/>
    </contour>
  </outline>
</glyph>
